<svg width="344" height="68" viewBox="0 0 344 68" fill="none" xmlns="http://www.w3.org/2000/svg">
<path d="M332.032 11.8608C285.871 7.33673 148.689 4.56533 100.97 7.53843C78.2279 8.95531 55.1769 12.1819 34.7246 16.1545C25.2591 17.993 13.7258 20.4866 7.85547 24.0678C-2.04663 30.1087 -0.830644 36.0173 8.9851 41.8804C29.9408 54.3978 67.9982 60.819 105.246 63.6956C163.219 68.1726 226.269 68.7911 282.437 61.1902C300.995 58.6789 323.303 55.7391 335.449 49.3355C345.895 43.8283 345.08 36.9827 335.611 31.4923C312.341 18 266.178 7.84233 225.794 3.93313C200.42 1.47691 172.371 1 146.316 1C112.687 1 84.6276 4.86579 52.8795 8.39392" stroke="#60DC74" stroke-width="2" stroke-linecap="round"/>
</svg>
