<svg preserveAspectRatio="none" viewBox="0 0 162 65" fill="none" xmlns="http://www.w3.org/2000/svg">
<path d="M155.869 11.3671C134.273 7.0487 70.0943 4.40327 47.7694 7.24122C37.13 8.59371 26.3459 11.6737 16.7776 15.4656C12.3493 17.2206 6.95357 19.6008 4.20724 23.0193C-0.425324 28.7856 0.143558 34.4256 4.73572 40.0222C14.5395 51.9706 32.3442 58.1 49.7701 60.8458C76.8918 65.1193 106.389 65.7097 132.667 58.4543C141.348 56.0571 151.785 53.2509 157.468 47.1384C162.354 41.8815 161.973 35.3471 157.543 30.1063C146.657 17.2273 125.06 7.53132 106.167 3.7998C94.2959 1.45523 81.1737 1 68.9842 1C53.2511 1 40.124 4.69007 25.2711 8.05783" stroke="#1e1e1e" stroke-width="2" stroke-linecap="round"/>
</svg>
