<svg width="85" height="171" viewBox="0 0 85 171" fill="none" xmlns="http://www.w3.org/2000/svg">
<path id="Dawn" d="M-0.5 0L-0.48345 85.4159L32.2196 6.50827L-0.452423 85.429L59.9575 25.0424L-0.428982 85.4524L78.4917 52.7804L-0.415883 85.4834L85 85.5L-0.415883 85.5165L78.4917 118.22L-0.428982 85.5476L59.9575 145.957L-0.452423 85.571L32.2196 164.492L-0.48345 85.5841L-0.5 171L-0.51655 85.5841L-33.2196 164.492L-0.547577 85.571L-60.9576 145.957L-0.571018 85.5476L-79.4917 118.22L-0.584117 85.5165L-86 85.5L-0.584117 85.4834L-79.4917 52.7804L-0.571018 85.4524L-60.9576 25.0424L-0.547577 85.429L-33.2196 6.50827L-0.51655 85.4159L-0.5 0Z" stroke="#60DC74" stroke-width="2"/>
</svg>
