<svg width="196" height="54" viewBox="0 0 196 54" fill="none" xmlns="http://www.w3.org/2000/svg">
<path d="M188.778 9.55696C162.594 5.99258 84.7768 3.80905 57.7079 6.15149C44.8076 7.26782 31.7319 9.81 20.1303 12.9399C14.761 14.3884 8.2187 16.353 4.88878 19.1746C-0.728206 23.9341 -0.0384356 28.5894 5.52956 33.2088C17.4167 43.071 39.0049 48.1301 60.1337 50.3965C93.0188 53.9239 128.784 54.4112 160.646 48.4226C171.173 46.444 183.827 44.1278 190.717 39.0825C196.642 34.7435 196.18 29.35 190.808 25.0242C177.609 14.394 151.423 6.39093 128.515 3.31095C114.121 1.37575 98.2106 1 83.4309 1C64.3544 1 48.4379 4.04577 30.4287 6.82551" stroke="#545454" stroke-width="2" stroke-linecap="round"/>
</svg>
