<svg preserveAspectRatio="none" viewBox="0 0 191 43" fill="none" xmlns="http://www.w3.org/2000/svg">
<path id="Vector 20" d="M137.306 8.59353C111.837 5.92915 82.7865 3.09977 56.4567 4.85075C43.9087 5.68521 31.1901 7.5855 19.9052 9.9251C14.6825 11.0079 8.31885 12.4764 5.07985 14.5856C-0.383757 18.1433 -0.336096 26.0137 5.07986 29.4668C16.6424 36.8387 32.1429 42 56.4567 42C87.9548 42 125.592 40.925 156.584 36.4485C166.823 34.9695 179.132 33.2381 185.834 29.4668C191.597 26.2233 191.148 22.1917 185.923 18.9582C173.084 11.012 147.613 5.02973 125.33 2.72744C111.33 1.28087 95.8535 1 81.4773 1C62.9218 1 47.4399 3.27672 29.9224 5.35459" stroke="#292929" stroke-linecap="round"/>
</svg>
