<svg viewBox="0 0 345 345" fill="none" xmlns="http://www.w3.org/2000/svg">
<path d="M307.489 200.613L307.461 200.657L307.544 200.678L307.489 200.613Z" fill="white"/>
<path d="M307.234 200.33L307.486 200.618C307.597 200.429 307.539 200.33 307.234 200.33Z" fill="white"/>
<path d="M40.7578 123.021C41.7215 123.598 42.6645 124.171 43.4074 124.424L40.7578 123.021Z" fill="white"/>
<path d="M40.7569 123.02C39.9062 122.475 39.0114 122.002 38.082 121.605L40.7569 123.02Z" fill="white"/>
<path d="M48.7305 115.341C48.8777 115.661 50.3405 118.644 50.4532 118.791L48.7305 115.341Z" fill="white"/>
<path d="M57.8164 118.316C58.0993 117.688 59.3022 115.462 59.3827 114.866L57.8164 118.316Z" fill="white"/>
<path d="M64.0195 124.236L67.0555 122.396C66.63 122.59 64.9809 123.638 64.0195 124.236Z" fill="white"/>
<path d="M316.68 183.634C321.843 183.505 327.112 183.404 331.091 182.714L316.68 183.634Z" fill="white"/>
<path d="M36.3609 268.843C40.8137 272.753 47.2353 279.285 52.8979 282.753C55.9201 284.593 55.9385 285.973 57.606 284.053C59.1516 282.272 60.826 281.509 59.6001 280.941C60.8237 281.049 69.3314 269.073 69.3428 269.013C69.7546 266.793 67.9744 266.308 66.0424 266.253C67.6434 265.196 69.1794 264.044 70.6424 262.803C73.2414 264.687 75.5989 265.855 76.8731 265.333C81.7169 263.341 109.901 241.714 127.514 229.453C128.126 234.034 128.759 237.259 129.295 237.259C138.251 237.259 145.109 236.884 152.396 236.553C161.63 248.791 172.102 256.174 212.55 269.567C212.55 269.567 212.932 268.81 213.7 267.348C215.411 268.171 217.697 269.068 219.406 269.001C217.934 269.351 216.559 268.369 216.039 269.121C215.756 269.528 215.752 271.966 215.752 273.76C215.752 274.68 214.809 280.708 214.372 281.207C213.85 281.789 213.045 282.068 211.152 283.438C210.252 284.087 208.553 284.471 208.215 286.09C208.086 286.707 207.525 288.16 207.665 288.871C207.012 289.924 206.188 293.887 209.871 293.729C214.967 293.499 223.054 295.826 226.824 291.852C232.261 286.123 232.94 283.192 236.626 276.711C237.747 274.742 241.686 267.474 238.034 266.692C236.847 266.439 236.783 265.659 235.568 266.087C235.272 265.291 234.188 264.65 232.086 263.355C228.763 261.301 221.506 256.059 221.925 261.055C220.706 260.319 219.446 259.653 218.151 259.061C218.537 258.352 218.943 257.612 219.37 256.839C218.059 255.146 202.58 247.078 191.358 235.891L234.984 235.527C233.503 230.782 215.593 198.058 196.788 168.767H197.248H196.772C193.375 163.477 189.946 158.291 186.581 153.408C203.175 159.963 220.869 165.497 230.23 170.039C230.69 170.269 231.111 168.926 231.454 166.918C238.77 167.265 237.832 176.141 245.424 172.668C245.742 172.814 246.067 172.943 246.399 173.052L246.781 173.174L247.011 173.335C248.747 174.499 256.211 177.657 259.661 178.496C258.237 182.572 256.377 186.491 255.001 192.039L259.935 188.306C259.935 187.696 262.612 179.773 263.564 176.645L263.794 176.73C262.437 180.474 261.08 184.108 260.084 188.306C258.014 190.939 252.526 193.019 255.999 193.617C266.662 195.457 295.451 203.967 301.898 203.967C302.625 203.967 306.804 201.545 307.434 200.645L306.914 200.51C308.359 199.403 310.668 189.47 311.974 183.92L316.657 183.623C315.086 183.662 313.525 183.704 312.011 183.763C312.416 182.05 312.717 180.773 312.862 180.359C313.274 179.078 313.605 177.772 313.851 176.449C316.14 176.362 318.362 176.18 319.323 175.872L313.95 176.153C315.691 167.305 316.894 152.053 318.118 149.473C318.642 148.364 310.875 148.129 309.242 147.607C306.712 146.802 275.165 141.657 272.023 141.657C269.928 141.901 268.61 143.228 267.207 144.215C265.517 145.409 265.188 149.539 265.289 151.678C265.308 152.151 265.302 152.625 265.273 153.097C258.529 151.832 244.877 150.699 241.985 155.685C241.659 155.914 241.368 156.19 241.121 156.504C240.99 156.669 240.868 156.837 240.753 157.005C238.142 156.84 235.424 156.86 233.876 156.481C233.876 156.481 232.67 156.481 232.539 156.469C232.661 154.678 232.723 153.447 232.723 153.447C225.718 151.147 197.089 139.012 176.088 129.276C176.191 129.27 176.291 129.243 176.383 129.196H175.902C167.252 125.182 159.917 121.585 155.954 119.267C152.713 117.372 149.707 116.491 147.099 116.422C147.113 116.316 147.127 116.212 147.143 116.107C147.143 116.072 147.143 116.038 147.159 116.001C147.173 115.906 147.186 115.812 147.202 115.718C147.202 115.676 147.216 115.635 147.223 115.591C147.237 115.504 147.253 115.417 147.269 115.329C147.269 115.283 147.288 115.237 147.294 115.191C147.311 115.108 147.329 115.026 147.345 114.945C147.361 114.865 147.366 114.846 147.377 114.798C147.389 114.75 147.412 114.641 147.43 114.568C147.449 114.494 147.455 114.467 147.469 114.418C147.483 114.37 147.508 114.269 147.527 114.188C147.545 114.108 147.557 114.087 147.57 114.037C147.584 113.986 147.612 113.894 147.635 113.823L147.683 113.671C147.706 113.602 147.729 113.533 147.754 113.464C147.78 113.395 147.789 113.367 147.807 113.317C147.826 113.266 147.86 113.183 147.888 113.119C147.915 113.054 147.925 113.022 147.945 112.976C147.966 112.93 148.003 112.847 148.033 112.783L148.095 112.65C148.127 112.585 148.162 112.523 148.196 112.459C148.231 112.394 148.237 112.378 148.26 112.339L148.38 112.141L148.44 112.045C148.502 111.95 148.566 111.861 148.635 111.771C149.476 110.6 150.107 109.292 150.501 107.905C150.554 107.675 150.609 107.456 150.662 107.215C153.311 108.887 156.274 110.665 159.912 113.735C167.143 119.849 177.852 120.511 184.2 112.197C187.597 107.741 187.745 100.437 185.323 95.6503C179.52 84.1825 171.325 84.5781 159.333 84.9599C155.485 85.0841 149.93 79.9482 142.064 79.9482C135.785 79.9482 127.655 86.8482 133.212 96.0689C133.4 94.4428 134.24 93.1617 134.914 92.0209C136.089 90.0383 136.712 89.6266 137.163 90.0935C135.898 91.2277 135.038 92.7447 134.716 94.4129C133.874 98.6035 131.843 103.544 131.496 107.003C131.109 110.814 132.464 112.937 134.716 114.973C135.702 115.858 135.656 116.976 135.622 117.928C135.566 118.625 135.458 119.317 135.298 119.998C132.949 120.458 130.468 122.103 128.478 125.044C123.94 131.747 114.731 143.258 108.266 147.784C105.06 150.032 102.435 151.03 98.6288 149.93C95.8366 149.125 75.5575 142.552 75.2907 143.069C75.2056 143.233 75.0906 143.472 74.9526 143.771C74.5823 143.541 73.6646 143.311 73.2299 143.026C69.9616 140.91 69.6534 140.756 67.3488 137.246C65.955 135.121 64.046 134.472 62.3209 134.504C61.0583 131.705 59.7404 128.867 58.7192 126.951C57.6681 124.98 56.2651 123.853 54.984 125.024C54.2181 125.714 50.8785 128.191 49.2478 130.447C47.5734 132.765 48.3508 134.799 49.3605 137.092C47.4929 137.848 48.1116 140.137 48.8798 141.551C49.7492 143.161 49.6756 141.356 49.7469 143.704C49.7745 144.638 51.8169 145.314 52.1297 146.72C52.2654 147.331 54.8897 149.808 55.4578 149.963C55.6878 150.386 55.9178 150.816 56.1478 151.262C58.5466 155.692 60.1429 154.316 62.5878 150.935C62.7442 150.722 62.9098 150.475 63.08 150.22C63.08 150.337 63.1605 150.4 63.31 150.383C66.116 150.078 70.3641 151.791 71.4474 151.57C71.7326 151.513 73.4668 146.814 74.4213 144.949C72.7239 148.829 69.5913 156.699 70.4676 156.991C79.0489 159.836 80.7762 160.26 97.8376 164.547C106.897 166.824 111.996 167.077 117.417 162.194C120.125 159.756 122.797 157.265 125.438 154.799C125.148 166.182 125.113 179.322 125.072 188.796C107.01 203.888 58.7905 251.013 59.9359 252.54C60.412 253.17 61.0261 253.904 61.7391 254.698C60.0233 256.156 58.3074 257.837 57.3691 259.169C57.6244 258.191 57.9441 257.278 58.0108 256.528C58.0361 256.264 48.2197 256.846 46.681 256.926L46.3176 256.784C43.9877 256.356 33.9389 250.785 33.679 250.774C31.4618 250.67 30.0842 250.76 29.3597 251.169C26.9653 252.066 25.1897 255.079 25.7831 256.126C27.1769 258.536 31.0501 264.16 36.3609 268.843ZM295.051 197.423C300.001 198.541 304.58 199.626 306.057 200.291L295.051 197.423ZM267.824 163.001C266.874 168.008 265.496 172.084 264.091 175.992L264.9 171.753C266.28 166.447 268.555 157.64 270.156 150.878C269.1 156.283 267.973 162.203 267.824 163.001ZM64.4002 139.178C65.4191 140.825 65.7802 141.211 66.0102 142.759C65.6146 141.397 64.8602 140.176 64.7199 139.889C64.6095 139.659 64.5037 139.422 64.4002 139.178ZM65.8147 145.788C65.9934 145.519 66.117 145.217 66.1781 144.9C66.162 145.613 65.9251 145.82 65.1753 146.818C65.403 146.441 65.6192 146.092 65.8124 145.788H65.8147ZM62.4636 266.34C62.3268 266.334 62.1911 266.313 62.0588 266.278C58.2431 265.128 57.1483 263.403 57.0494 261.618C58.0637 263.159 60.389 265.326 62.4636 266.34Z" fill="white"/>
<path d="M149.797 237.16L152.166 237.052L151.821 236.592L151.483 236.132L149.754 236.21C143.314 236.511 137.232 236.792 129.433 236.797C129.123 236.309 128.628 234.152 128.021 229.683L127.584 229.986L127.145 230.292C127.692 234.158 128.269 236.962 128.807 237.521C128.868 237.591 128.942 237.648 129.026 237.687C129.109 237.727 129.2 237.749 129.293 237.751C137.182 237.746 143.309 237.461 149.797 237.16Z" fill="#454545"/>
<path d="M134.32 92.0685L134.495 91.7764C135.477 90.1158 136.132 89.4419 136.779 89.4419C136.818 89.4396 136.858 89.4396 136.898 89.4419C136.922 89.4448 136.946 89.4502 136.97 89.458C136.7 86.8843 137.213 84.9822 138.4 84.5452L138.727 85.433C138.193 85.6285 137.717 86.8314 137.869 88.9313C137.88 89.1061 137.896 89.2832 137.919 89.4695C137.942 89.6558 137.963 89.8191 137.991 90.0031C138.069 90.5022 138.172 91.0358 138.32 91.6131C138.37 91.781 138.421 91.9535 138.474 92.1375C138.839 93.3864 139.295 94.9435 140.114 96.2476C143.633 101.844 146.692 104.123 150.337 106.448L150.763 106.717L151.186 106.984L151.678 107.295C154.123 108.826 156.894 110.563 160.209 113.367C164.142 116.692 169.036 118.312 173.634 117.81C177.684 117.369 181.203 115.324 183.816 111.901C186.916 107.835 187.39 100.786 184.892 95.852C179.292 84.7821 171.511 85.042 159.735 85.41L159.332 85.4215C157.614 85.479 155.625 84.5728 153.332 83.524C150.293 82.144 146.512 80.4121 142.062 80.4121C138.543 80.4121 134.702 82.6684 132.954 85.778C131.861 87.71 131.056 90.7736 133.018 94.7319C133.347 93.7965 133.784 92.9027 134.32 92.0685Z" fill="#454545"/>
<path d="M47.806 138.03C47.3069 139.41 48.0912 141.114 48.45 141.777C48.7536 142.333 48.9905 142.584 49.2251 142.708C49.2366 142.883 49.2458 143.184 49.2573 143.559V143.718C49.278 144.371 49.8323 144.833 50.4211 145.328C50.9616 145.788 51.5205 146.248 51.6516 146.827C51.8126 147.556 54.1517 149.817 55.1016 150.326C55.3017 150.703 55.5087 151.087 55.7226 151.476C56.8243 153.509 57.8041 154.447 58.8966 154.519H59.0185C60.4376 154.519 61.6911 152.948 62.9561 151.195C63.0389 151.085 63.1217 150.965 63.2068 150.839C63.2573 150.844 63.3082 150.844 63.3586 150.839C64.9249 150.668 67.0202 151.174 68.7038 151.581C69.4778 151.797 70.2676 151.951 71.0659 152.041C69.5755 156.198 69.8101 156.773 69.9159 157.037C69.9504 157.127 70.004 157.208 70.0732 157.275C70.1423 157.341 70.2252 157.392 70.3161 157.423C78.7962 160.236 80.5212 160.671 97.026 164.818L97.716 164.99C101.564 165.956 104.738 166.557 107.532 166.557C111.387 166.557 114.524 165.418 117.726 162.532C120.155 160.344 122.572 158.097 124.932 155.896C124.688 166.136 124.64 177.659 124.603 186.472C124.603 187.185 124.603 187.882 124.603 188.559L125.077 188.163C125.238 188.03 125.394 187.898 125.551 187.772C125.551 187.346 125.551 186.916 125.551 186.475C125.569 182.155 125.59 177.18 125.636 172.026C127.476 172.042 129.29 172.095 131.13 172.183C130.5 177.542 130.061 182.314 130.21 184.251L130.48 184.092C130.537 184.06 130.599 184.028 130.666 183.998C130.815 183.925 130.969 183.86 131.126 183.804C130.896 177.841 134.946 151.19 134.99 150.914L135.029 150.648L134.82 150.477C134.105 149.903 133.423 149.289 132.777 148.637C132.547 148.407 132.336 148.177 132.133 147.947C128.044 143.308 129.373 139.603 130.687 136.001C130.953 135.268 131.227 134.506 131.45 133.756C132.83 129.09 133.49 127.231 135.498 123.149C136.041 122.459 136.768 122.204 137.619 122.164C136.991 124.106 136.929 126.369 137.472 128.765C138.051 131.295 139.114 135.325 140.519 140.392C140.616 140.739 140.712 141.082 140.813 141.45C143.78 152.094 148.139 166.906 152.675 181.7L152.817 182.16C152.856 182.289 152.895 182.418 152.937 182.546C152.937 182.574 152.953 182.599 152.96 182.627C151.796 182.675 150.319 182.735 148.682 182.813C145.676 182.958 142.124 183.163 138.96 183.457C136.377 183.699 134.054 183.998 132.497 184.377C131.957 184.488 131.433 184.668 130.94 184.913L130.85 184.964C129.741 185.608 127.899 187.02 125.537 188.991L125.063 189.387L124.589 189.787C116.562 196.583 103.498 208.819 92.6606 219.261C74.9828 236.3 61.2978 250.366 60.4192 252.381C60.8125 252.892 61.2702 253.446 61.7785 254.026L62.0982 254.38L62.4179 254.732C64.918 257.464 67.6583 259.965 70.6059 262.207L70.9992 262.497C71.1349 262.593 71.266 262.688 71.3994 262.78C73.6833 264.39 75.6705 265.31 76.6894 264.896C79.5874 263.704 91.3266 255.111 103.754 246.015C112.954 239.274 120.831 233.544 126.997 229.246L127.441 228.935L127.878 228.631C134.001 224.386 138.329 221.651 140.473 220.876C139.935 219.813 139.323 218.608 138.718 217.373C137.193 214.319 135.293 210.517 134.969 210.144C135.008 210.184 135.056 210.215 135.109 210.234L135.445 209.353C135.767 209.475 135.979 209.776 139.562 216.943C140.199 218.219 140.843 219.512 141.416 220.639H141.471C141.523 220.635 141.574 220.635 141.625 220.639C141.73 220.653 141.831 220.688 141.921 220.742C142.012 220.796 142.09 220.868 142.152 220.954C143.863 223.392 145.372 225.614 146.819 227.762C148.875 230.8 150.729 233.535 152.622 236.06L152.967 236.52L153.316 236.98C162.348 248.678 173.126 255.992 212.309 268.99C212.461 268.693 212.709 268.212 213.05 267.557C213.116 267.426 213.19 267.283 213.28 267.138C213.369 266.993 213.42 266.867 213.496 266.724C214.388 265.02 215.718 262.513 217.477 259.284C217.553 259.148 217.629 259.008 217.707 258.867L217.937 258.451L218.777 256.919C218.128 256.342 216.364 255.213 214.202 253.828C208.385 250.104 198.808 243.968 191.142 236.366H191.832H192.488L235.624 236.008L235.435 235.4C233.871 230.393 215.729 197.466 197.255 168.652V168.3H197.025C193.946 163.502 190.859 158.824 187.842 154.41C194.206 156.888 200.602 159.188 206.803 161.414C216.327 164.836 224.552 167.792 230.033 170.458C230.136 170.506 230.25 170.529 230.364 170.525C230.478 170.52 230.589 170.487 230.688 170.43C230.93 170.285 231.346 170.037 231.838 167.422C234.642 167.695 236.082 169.351 237.471 170.959C238.793 172.486 240.065 173.949 242.301 173.949C243.177 173.949 244.198 173.719 245.429 173.183L245.776 173.024C246.02 172.909 246.271 172.783 246.531 172.645C246.722 172.705 246.912 172.764 247.108 172.82C248.732 173.273 250.38 173.639 252.044 173.914C253.141 174.105 254.238 174.276 255.324 174.443C256.522 174.625 257.693 174.807 258.815 175.009C259.275 175.094 259.735 175.182 260.195 175.276L260.655 175.377L261.115 175.483C261.867 175.662 262.585 175.863 263.259 176.095L263.516 176.187L263.629 176.226L263.65 176.171L263.721 176.196C263.85 176.24 263.981 176.281 264.107 176.327L263.778 177.21L263.449 177.093L263.219 177.015L263.003 176.944C262.327 176.73 261.623 176.541 260.867 176.373L260.407 176.272L259.947 176.178C259.772 176.77 259.585 177.353 259.388 177.928C257.088 177.307 253.343 175.842 250.558 174.591C249.215 174.33 247.886 173.998 246.579 173.595L246.77 173.724C248.479 174.874 255.388 177.806 259.077 178.82C258.686 179.917 258.265 181.001 257.837 182.105C256.706 185.033 255.537 188.057 254.576 191.923L254.254 193.218L254.45 193.069C254.45 193.101 254.45 193.131 254.463 193.161C254.604 193.77 255.337 193.973 255.958 194.081C260.434 194.851 268.01 196.776 276.03 198.817C286.905 201.577 298.15 204.435 301.938 204.435C302.819 204.435 307.35 201.825 307.918 200.82C307.982 200.722 308.019 200.608 308.023 200.491C308.028 200.374 308 200.258 307.943 200.155C307.917 200.117 307.888 200.082 307.856 200.049C309.045 197.945 310.448 192.623 312.387 184.373L312.421 184.218C314.006 184.159 315.627 184.12 317.233 184.078C322.185 183.954 327.304 183.827 331.18 183.17L331.023 182.25C327.215 182.894 322.127 183.022 317.21 183.144C315.689 183.183 314.153 183.22 312.646 183.275C312.971 181.895 313.221 180.87 313.336 180.515C313.715 179.335 314.022 178.133 314.256 176.916C316.451 176.822 318.537 176.638 319.484 176.336L319.197 175.437C318.38 175.697 316.494 175.869 314.447 175.966C315.218 171.971 315.88 166.766 316.487 162.012C317.207 156.352 317.888 151.006 318.528 149.659C318.578 149.557 318.602 149.445 318.598 149.332C318.595 149.219 318.563 149.108 318.507 149.01C318.111 148.299 316.329 148.028 312.635 147.616C311.227 147.46 309.896 147.31 309.367 147.142C306.998 146.383 277.606 141.526 272.468 141.188V141.112L271.969 141.169H271.953C271.904 141.169 271.858 141.183 271.812 141.19C270.071 141.434 268.822 142.379 267.718 143.219C267.445 143.428 267.185 143.626 266.92 143.812C265.016 145.153 264.701 149.548 264.802 151.683C264.813 151.949 264.813 152.237 264.802 152.529C257.978 151.34 244.707 150.27 241.604 155.349C241.277 155.59 240.983 155.874 240.73 156.193C240.65 156.294 240.574 156.398 240.5 156.501C239.81 156.46 239.106 156.43 238.43 156.402C236.675 156.329 235.017 156.26 233.977 156.004C233.856 155.983 233.734 155.978 233.612 155.988H233.03C233.129 154.482 233.179 153.474 233.181 153.458L233.2 153.097L232.857 152.984C225.978 150.735 197.207 138.547 176.135 128.777H176.158H176.128C167.507 124.777 160.182 121.187 156.18 118.841C153.217 117.107 150.287 116.143 147.624 115.961C147.854 114.469 148.247 113.013 149.004 112.051C149.886 110.828 150.546 109.46 150.954 108.008C150.954 107.994 150.954 107.98 150.954 107.967L150.533 107.7L150.112 107.435C146.241 104.983 143.033 102.677 139.302 96.761C138.412 95.3442 137.936 93.7181 137.554 92.4117C137.405 91.8988 137.221 91.2617 137.044 90.8431C136.99 90.6867 136.906 90.5422 136.798 90.4176C136.786 90.4054 136.772 90.3953 136.756 90.3877C136.733 90.3877 136.351 90.4728 135.293 92.2622L135.116 92.5589C134.838 93.0189 134.544 93.5226 134.288 94.0562C134.268 94.1436 134.245 94.231 134.226 94.3207C134.045 95.2269 133.803 96.1768 133.536 97.1382L133.495 97.4993L133.453 97.4303C133.21 98.2974 132.947 99.1691 132.688 100.032C131.922 102.562 131.197 104.967 130.997 106.957C130.585 111.005 132.053 113.229 134.38 115.322C135.195 116.056 135.162 116.989 135.13 117.912C135.087 118.479 135.003 119.042 134.879 119.598C132.402 120.184 129.953 121.999 128.067 124.784C123.812 131.068 114.591 142.768 107.974 147.402C104.938 149.532 102.454 150.553 98.7395 149.472C98.0334 149.268 96.1773 148.686 93.8267 147.947C90.448 146.887 85.8158 145.434 82.0967 144.323C75.1599 142.253 75.0817 142.4 74.8494 142.848C74.808 142.929 74.7597 143.028 74.7045 143.143C74.5918 143.097 74.4745 143.053 74.3434 143.005C74.0401 142.904 73.7461 142.777 73.4648 142.625L73.2555 142.49C70.2379 140.537 69.9228 140.332 67.724 136.981C66.2037 134.656 64.1682 134.09 62.6157 134.035C61.3875 131.33 60.1179 128.593 59.1243 126.73C58.547 125.649 57.604 124.315 56.385 124.106C56.0721 124.056 55.7519 124.082 55.451 124.181C55.1502 124.28 54.8774 124.45 54.6554 124.676C54.4967 124.821 54.1954 125.058 53.8366 125.366C52.4566 126.491 50.1566 128.37 48.8548 130.178C47.1321 132.56 47.7945 134.683 48.7398 136.88C48.3054 137.144 47.9756 137.55 47.806 138.03ZM117.087 161.835C111.845 166.557 106.944 166.343 97.9368 164.08L97.2583 163.909C80.8892 159.795 79.0883 159.339 70.7761 156.586C70.7416 156.126 71.0475 155.008 71.5259 153.596C74.6102 153.773 83.8746 153.826 94.588 153.87C104.954 153.921 116.898 153.978 124.966 154.178C124.966 154.316 124.966 154.452 124.966 154.59C122.386 156.977 119.739 159.443 117.087 161.835ZM217.307 147.89C216.983 147.947 216.654 147.977 216.325 147.98C212.24 147.816 208.261 148.309 204.415 148.785C203.065 148.953 201.667 149.125 200.275 149.268C194.376 149.877 188.38 150.188 182.432 150.388C181.165 149.762 179.688 149.058 178.115 148.318C173.878 146.356 168.549 144.049 166.863 143.614L166.633 144.534C168.492 145.013 175.311 148.01 180.406 150.448C177.899 150.523 175.401 150.586 172.926 150.645L168.204 150.763L167.664 150.779L167.123 150.793C164.342 150.871 161.546 150.963 158.742 151.089L158.254 151.112L157.764 151.138C153.447 151.345 149.123 151.641 144.841 152.099C143.626 147.915 142.522 144.049 141.57 140.629C141.469 140.263 141.368 139.902 141.269 139.548C140.059 135.178 139.118 131.638 138.548 129.248C139.578 129.377 141.398 129.478 143.523 129.575L144.606 129.616C145.501 129.651 146.432 129.681 147.366 129.708L148.226 129.734L149.146 129.757L149.567 129.768L150.089 129.782H150.618C153.995 129.86 156.897 129.902 157.622 129.911C160.642 129.952 163.549 129.971 166.132 129.971C167.661 129.971 169.078 129.971 170.341 129.95C173.756 129.911 175.279 129.835 175.992 129.743C189.205 135.879 205.388 142.924 217.307 147.89ZM232.22 153.783C232.176 154.604 232.128 155.432 232.075 156.255L230.973 166.948C230.743 168.284 230.513 169.218 230.283 169.549C227.503 168.208 224.048 166.789 220.099 165.294C222.606 164.604 228.34 164.107 230.605 164.107V163.164C228.788 163.164 220.89 163.689 218.77 164.79C215.209 163.454 211.281 162.03 207.104 160.54C200.572 158.194 193.822 155.767 187.129 153.139C186.993 152.856 186.42 152.43 184.267 151.31L184.185 151.269C189.585 151.066 195.018 150.76 200.379 150.206C201.775 150.063 203.178 149.889 204.535 149.721C208.519 149.226 212.279 148.762 216.29 148.923C217.153 148.9 218.01 148.767 218.839 148.525C224.915 151.032 229.729 152.932 232.22 153.776V153.783ZM181.735 215.593C181.171 213.943 180.738 212.251 180.438 210.533C180.185 209.178 176.866 198.081 176.128 195.615C177.827 195.256 182.602 194.911 187.446 194.81C195.11 194.654 197.828 195.153 198.256 195.459C198.449 196.183 199.344 198.159 200.57 200.861C202.41 204.939 204.956 210.521 206.32 214.624L206.34 214.691C206.449 215.015 206.545 215.328 206.635 215.632C207.539 218.705 207.555 220.83 206.669 222.106C206.009 223.061 204.829 223.56 203.086 223.629C190.88 224.112 185.128 223.884 182.098 216.531C181.967 216.225 181.85 215.915 181.735 215.593ZM207.208 214.316C205.827 210.176 203.277 204.56 201.418 200.463C200.268 197.933 199.275 195.739 199.146 195.173C199.112 195.05 199.051 194.935 198.968 194.838C198.885 194.74 198.782 194.661 198.665 194.608C196.002 193.14 177.623 194.039 175.378 194.838L174.955 194.987L175.083 195.417C175.125 195.555 179.242 209.259 179.509 210.703C179.805 212.375 180.224 214.023 180.762 215.634L179.773 215.669L179.272 215.685L178.777 215.703L177.119 215.754L176.638 215.768L176.153 215.781C172.51 215.885 168.853 215.949 165.113 215.949V216.89C168.945 216.89 172.68 216.821 176.401 216.715L176.887 216.701L177.367 216.688L179.12 216.632L179.614 216.616L180.111 216.598L181.116 216.563C182.427 219.864 184.249 221.932 186.811 223.148C189.373 224.365 192.665 224.726 196.899 224.726C198.776 224.726 200.843 224.657 203.125 224.567C205.165 224.487 206.619 223.836 207.447 222.638C208.47 221.156 208.525 218.852 207.617 215.62C211.097 215.597 214.869 215.62 218.369 215.636C220.472 215.648 222.459 215.659 224.202 215.659C229.531 225.253 233.241 232.449 234.295 235.085L191.515 235.442H190.873H190.206L185.008 235.485H184.451H183.886L171.88 235.584C169.4 230.793 163.381 212.748 157.086 192.63C160.179 192.225 163.365 192.027 166.553 191.914L167.119 191.896L167.682 191.877C168.406 191.856 169.13 191.838 169.856 191.825L170.341 191.813H170.828L173.128 191.774C177.703 191.696 182.437 191.618 187.064 191.169C190.326 190.854 194.479 191.001 198.497 191.144C202.516 191.286 206.713 191.434 209.979 191.109V191.01C215.103 199.576 219.798 207.734 223.682 214.7C222.072 214.7 220.272 214.7 218.379 214.68C214.781 214.659 210.899 214.641 207.339 214.666C207.283 214.555 207.249 214.438 207.208 214.316ZM209.482 190.21C206.338 190.481 202.371 190.341 198.525 190.21C194.477 190.065 190.291 189.918 186.968 190.24C182.368 190.684 177.666 190.762 173.108 190.838L170.564 190.884H170.079H169.591C168.735 190.902 167.879 190.925 167.022 190.953L166.454 190.971L165.883 190.992C162.824 191.112 159.77 191.316 156.794 191.714C155.936 188.97 155.073 186.194 154.218 183.404C154.17 183.248 154.121 183.094 154.075 182.944C154.029 182.795 153.999 182.7 153.963 182.579C153.963 182.546 153.942 182.514 153.933 182.48C153.894 182.358 153.857 182.236 153.82 182.114C153.772 181.958 153.723 181.803 153.677 181.654C152.488 177.79 151.308 173.905 150.165 170.101C151.75 169.855 153.349 169.702 154.952 169.641C154.626 169.891 154.419 170.384 154.328 171.12C154.252 171.766 154.659 173.618 155.589 174.11C155.745 174.194 155.919 174.239 156.097 174.241C156.391 174.233 156.672 174.117 156.886 173.914C157.712 173.224 157.5 171.87 157.068 170.924C156.819 170.386 156.435 169.841 155.98 169.597C158.139 169.494 160.695 169.418 163.462 169.367L163.951 169.356H164.441C167.714 169.296 171.245 169.262 174.745 169.243H175.718C182.158 169.216 188.405 169.243 192.614 169.243L196.501 169.257C200.965 176.212 205.358 183.333 209.482 190.21ZM156.38 171.741C156.541 172.261 156.61 172.914 156.279 173.188C156.129 173.316 156.076 173.289 156.049 173.268C155.605 173.038 155.228 171.658 155.28 171.217C155.349 170.639 155.478 170.455 155.51 170.409C155.674 170.462 156.125 170.931 156.38 171.743V171.741ZM192.614 168.291C188.111 168.275 181.88 168.25 175.534 168.277H174.554C171.008 168.296 167.452 168.332 164.165 168.397H163.675H163.186C157.026 168.528 151.948 168.762 149.892 169.17C148.194 163.516 146.575 158.04 145.108 152.991C149.399 152.531 153.737 152.244 158.07 152.039L158.56 152.016L159.048 151.993C161.93 151.864 164.798 151.763 167.666 151.694L168.204 151.68L168.742 151.664L172.947 151.561C176.013 151.485 179.113 151.409 182.23 151.305C183.918 152.138 185.252 152.842 185.91 153.258L186.186 153.661C189.406 158.339 192.674 163.263 195.903 168.279L192.614 168.291ZM150.145 128.834L149.611 128.821L149.084 128.8L147.684 128.761L146.879 128.738L146.106 128.713C145.386 128.69 144.698 128.664 144.05 128.639L142.814 128.588C140.588 128.489 138.969 128.379 138.327 128.262C137.867 126.033 137.968 123.945 138.601 122.181C138.656 122.026 138.718 121.875 138.783 121.721C138.847 121.566 138.916 121.417 138.99 121.261C139.049 121.141 139.107 121.031 139.174 120.904C139.174 120.881 139.199 120.858 139.213 120.835L139.229 120.81C139.302 120.681 139.383 120.554 139.459 120.43C139.472 120.411 139.485 120.391 139.496 120.37C139.558 120.281 139.624 120.196 139.689 120.106L139.804 119.952C140.228 119.4 140.727 118.911 141.287 118.498C142.745 117.429 144.544 116.888 146.552 116.858H146.715H147.026C147.182 116.858 147.341 116.87 147.5 116.881C150.03 117.04 152.84 117.965 155.699 119.641C159.485 121.856 166.235 125.189 174.242 128.924C169.828 129.127 158.864 129.046 150.145 128.834ZM133.614 153.674C132.464 153.525 130.415 153.41 127.706 153.316L126.367 153.274L125.935 153.263C125.967 152.147 126.001 151.05 126.038 149.983C126.08 148.771 126.105 147.506 126.133 146.165C126.206 142.533 126.289 138.545 126.726 134.824C127.931 134.824 129.136 134.824 130.095 134.835L129.792 135.686C128.449 139.38 126.958 143.52 131.427 148.58C131.63 148.81 131.843 149.04 132.071 149.27C132.684 149.895 133.33 150.487 134.008 151.041C133.939 151.485 133.801 152.405 133.614 153.663V153.674ZM130.535 133.494C130.496 133.628 130.455 133.761 130.411 133.894C129.491 133.881 128.186 133.867 126.846 133.871C127.554 128.673 129.035 124.119 132.28 121.978C132.993 121.513 133.778 121.169 134.603 120.962C134.314 122.323 134.192 122.976 134.373 123.31C132.538 127.054 131.864 128.979 130.535 133.483V133.494ZM125.631 171.099C125.682 165.722 125.76 160.183 125.889 154.999C125.889 154.728 125.896 154.459 125.909 154.192L126.731 154.215C129.9 154.309 132.29 154.431 133.479 154.59C132.89 158.631 131.954 165.218 131.229 171.249C129.353 171.159 127.513 171.104 125.631 171.088V171.099ZM301.922 203.518C298.242 203.518 287.064 200.675 276.247 197.926C268.208 195.884 260.607 193.954 256.103 193.175C255.854 193.148 255.611 193.076 255.388 192.961C255.54 192.636 256.52 191.93 257.246 191.406C258.201 190.716 259.261 189.95 260.062 189.106C261.515 190.217 266.989 191.546 276.191 193.513C278.218 193.945 279.819 194.286 280.237 194.433C282.077 195.038 286.587 196.043 291.362 197.11C297.299 198.435 305.424 200.249 306.158 200.912C306.223 200.969 306.296 201.017 306.374 201.052C305.066 201.991 302.425 203.469 301.922 203.506V203.518ZM312.536 148.575C314.217 148.762 316.964 149.068 317.608 149.44C316.931 151.112 316.292 156.133 315.556 161.913C314.94 166.743 314.263 172.045 313.486 176.024C311.223 176.102 308.934 176.086 307.8 175.987L307.718 176.925C308.35 176.983 309.426 177.013 310.687 177.013C311.503 177.013 312.393 176.999 313.293 176.971C313.072 178.073 312.787 179.161 312.439 180.23C312.297 180.642 312.028 181.762 311.657 183.331C309.122 183.404 306.593 183.619 304.081 183.975L304.231 184.895C306.619 184.555 309.023 184.346 311.434 184.271C310.765 187.116 309.859 190.969 308.948 194.194C307.888 197.943 307.234 199.339 306.899 199.858H306.262C304.525 199.072 299.362 197.887 291.572 196.149C286.817 195.088 282.33 194.079 280.532 193.497C280.072 193.343 278.524 193.014 276.391 192.556C273.569 191.956 269.708 191.13 266.502 190.313C261.821 189.12 260.814 188.517 260.597 188.306C261.517 184.467 262.716 181.159 263.985 177.661C265.57 173.291 267.205 168.774 268.289 163.077C268.562 161.63 269.623 156.092 270.607 151.027C271.573 146.945 272.302 143.575 272.447 142.128C277.477 142.462 307.028 147.382 309.081 148.037C309.702 148.246 311.016 148.394 312.536 148.564V148.575ZM253.886 152.485C257.529 152.516 261.162 152.85 264.749 153.486V153.497L265.209 153.58L265.669 153.665L265.97 153.723C266.734 153.881 267.378 154.036 267.861 154.183V154.151C268.008 154.19 268.144 154.226 268.266 154.263L267.999 155.167C267.405 154.995 266.571 154.799 265.563 154.604L265.103 154.519L264.643 154.436C264.528 155.411 264.349 156.464 264.13 157.559C262.727 157.343 260.862 156.853 258.741 156.296C255.061 155.333 250.921 154.24 247.402 154.091C246.304 154.315 245.245 154.703 244.261 155.241C248 154.447 253.895 155.993 258.502 157.203C260.623 157.759 262.49 158.251 263.937 158.479C263.512 160.462 262.985 162.536 262.486 164.501C261.81 167.15 261.228 169.439 261.025 171C260.876 172.14 260.666 173.271 260.395 174.388C258.833 174.057 257.175 173.797 255.439 173.533C252.711 173.114 249.9 172.679 247.278 171.923C247.302 171.811 247.302 171.696 247.278 171.585L246.788 171.568L246.303 171.545H246.073L245.312 171.499C244.932 171.472 244.553 171.444 244.18 171.412L243.764 171.373H243.702C243.313 171.336 242.943 171.295 242.6 171.253C241.712 171.145 241.029 171.023 240.811 170.913L241.243 170.073C241.424 170.131 241.609 170.172 241.797 170.195C241.988 170.225 242.218 170.257 242.487 170.29L242.74 170.32L243.115 170.361L244.083 170.458H244.191C245.015 170.531 245.896 170.593 246.68 170.632L247.347 170.66C247.642 170.66 247.913 170.674 248.145 170.674C248.292 170.579 248.46 170.476 248.658 170.359C249.645 169.784 249.438 168.82 249.254 167.971C249.07 167.123 248.851 166.111 249.548 165.025C250.402 163.693 247.708 158.859 247.674 158.815C246.899 157.534 244.939 156.986 242.66 156.717C242.467 156.694 242.269 156.674 242.071 156.655C242.075 156.637 242.081 156.62 242.087 156.602C242.151 156.408 242.233 156.219 242.331 156.039C242.715 155.359 243.27 154.791 243.941 154.392L244.042 154.337H244.019C246.42 152.846 250.452 152.49 253.888 152.49L253.886 152.485ZM127.331 127.494C126.64 129.564 126.16 131.698 125.898 133.865C124.589 133.878 123.32 133.911 122.397 133.977C124.244 131.682 125.935 129.442 127.331 127.494ZM75.5762 143.52C77.3863 143.771 88.2262 147.175 93.5553 148.847C95.9105 149.585 97.7689 150.169 98.4865 150.376C102.544 151.547 105.336 150.399 108.526 148.164C112.491 145.385 117.363 140.132 121.572 134.989C122.032 134.883 123.819 134.831 125.778 134.812C125.346 138.545 125.263 142.508 125.19 146.128C125.162 147.464 125.137 148.727 125.095 149.93C125.058 151.002 125.024 152.101 124.992 153.219C117.052 153.019 105.38 152.961 94.5926 152.909C84.1851 152.858 75.1461 152.814 71.8456 152.651C72.7058 150.224 73.9156 147.253 74.7988 145.224C74.8961 145.022 75.0067 144.826 75.13 144.638C75.1624 144.592 75.1901 144.542 75.2128 144.491C75.3153 144.443 75.4029 144.368 75.4665 144.275C75.53 144.181 75.5672 144.072 75.5739 143.959C75.5788 143.858 75.5549 143.758 75.5049 143.669C75.5302 143.626 75.5532 143.573 75.5762 143.52ZM49.6184 130.723C50.8535 129.016 53.0937 127.185 54.4323 126.091C54.8118 125.78 55.1223 125.534 55.2925 125.371C55.4967 125.159 55.7741 125.034 56.0676 125.021C56.1201 125.021 56.1724 125.026 56.224 125.035C56.8726 125.145 57.627 125.925 58.294 127.174C59.2347 128.936 60.4307 131.493 61.6037 134.074L61.4197 134.097C59.6441 134.35 57.857 135.304 57.5994 136.142C57.328 137.02 57.3694 137.671 57.7374 138.136C58.3607 138.927 59.651 138.846 61.0172 138.759C62.1672 138.685 63.4943 138.603 63.8531 139.189L63.9796 139.394L64.2809 140.084C64.3177 140.167 64.3775 140.277 64.4695 140.445C64.9133 141.219 65.2749 142.038 65.5482 142.887C65.5827 143.143 65.6126 143.428 65.6425 143.766C65.6825 144.13 65.704 144.495 65.7069 144.861C65.6549 145.097 65.5598 145.322 65.4263 145.523C65.2354 145.822 65.0192 146.172 64.7938 146.542C64.6374 146.749 64.4603 146.988 64.2533 147.276L64.1153 147.464C63.1309 148.808 62.687 149.551 62.618 150.043C62.4754 150.257 62.3351 150.459 62.2063 150.638C60.9068 152.439 59.858 153.628 58.9702 153.569C58.2572 153.523 57.4706 152.688 56.5667 151.016C56.3367 150.574 56.1067 150.149 55.8767 149.73L49.7794 136.896C48.7881 134.651 48.0981 132.83 49.6184 130.723Z" fill="#454545"/>
<path d="M43.2556 124.87L43.5638 123.97C42.8738 123.74 41.9975 123.205 41.0614 122.643C40.1253 122.082 39.111 121.475 38.2508 121.155L37.9219 122.038C38.7016 122.328 39.6538 122.901 40.5761 123.453C41.5559 124.049 42.4805 124.603 43.2556 124.87Z" fill="#454545"/>
<path d="M50.8308 118.484L50.8515 118.512C50.6974 118.282 49.3381 115.501 49.1748 115.143L48.3008 115.538C48.3146 115.57 49.8993 118.859 50.0879 119.087L50.8308 118.484Z" fill="#454545"/>
<path d="M58.6501 117.684C59.2895 116.41 59.784 115.4 59.8484 114.935L58.9123 114.807C58.8663 115.154 58.1763 116.525 57.806 117.261C57.6243 117.622 57.4679 117.937 57.3828 118.123L58.243 118.51C58.3212 118.342 58.4753 118.036 58.6501 117.684Z" fill="#454545"/>
<path d="M64.9714 124.2C65.8063 123.678 66.9494 122.961 67.2553 122.82L66.8574 121.965C66.5239 122.119 65.6568 122.655 64.47 123.405C63.941 123.736 63.4419 124.049 63.2188 124.177L63.6903 124.994C63.9272 124.854 64.4125 124.55 64.9714 124.2Z" fill="#454545"/>
<path d="M148.555 142.276C148.255 142.139 147.918 142.102 147.595 142.17C147.272 142.239 146.98 142.41 146.761 142.658C146.281 143.249 146.359 144.148 146.971 145.061C147.686 146.131 148.604 146.628 149.271 146.628C149.364 146.628 149.456 146.617 149.547 146.595C149.704 146.561 149.846 146.478 149.953 146.358C150.06 146.238 150.125 146.086 150.14 145.926C150.359 143.217 148.983 142.446 148.555 142.276ZM149.204 145.682C148.944 145.65 148.325 145.393 147.755 144.532C147.32 143.884 147.334 143.442 147.493 143.247C147.586 143.158 147.704 143.1 147.832 143.082C147.959 143.064 148.089 143.086 148.203 143.145C148.751 143.371 149.291 144.151 149.204 145.682Z" fill="#454545"/>
<path d="M151.388 156.152C150.62 156.34 150.501 157.47 150.468 157.84C150.418 158.3 150.487 160.117 151.733 160.476C151.924 160.533 152.121 160.564 152.32 160.565C152.506 160.574 152.69 160.536 152.858 160.456C153.026 160.376 153.171 160.255 153.281 160.105C153.865 159.303 153.35 157.789 152.798 156.971C152.203 156.101 151.66 156.083 151.388 156.152ZM152.49 159.574C152.423 159.641 152.228 159.641 151.979 159.574C151.434 159.415 151.361 158.233 151.393 157.946C151.401 157.646 151.48 157.353 151.623 157.09C151.818 157.189 152.242 157.732 152.472 158.493C152.658 159.114 152.589 159.48 152.49 159.574Z" fill="#454545"/>
<path d="M162.126 186.3C162.038 186.047 161.931 185.8 161.809 185.562C161.516 185.003 161.05 184.382 160.401 184.341H160.334H160.32C160.138 184.343 159.959 184.395 159.803 184.49C159.414 184.72 159.099 185.222 158.862 185.985C158.717 186.445 159.118 188.6 159.552 188.899C160.171 189.334 160.702 189.55 161.162 189.55C161.415 189.553 161.662 189.472 161.864 189.32C162.554 188.81 162.505 187.63 162.239 186.648C162.197 186.53 162.163 186.409 162.126 186.3ZM161.289 188.564C161.19 188.637 160.829 188.635 160.155 188.168C160.001 187.832 159.722 186.547 159.766 186.25C160.015 185.461 160.265 185.279 160.334 185.279C160.486 185.279 160.916 185.677 161.234 186.606C161.588 187.644 161.493 188.407 161.289 188.561V188.564Z" fill="#454545"/>
<path d="M36.0475 269.197C37.1584 270.174 38.4004 271.322 39.7137 272.536C43.7709 276.283 48.3663 280.531 52.6489 283.155C53.3326 283.577 53.9866 284.045 54.6062 284.556C55.2686 285.085 55.7677 285.451 56.2944 285.451C56.7774 285.451 57.2834 285.14 57.9619 284.363C58.3894 283.883 58.844 283.427 59.3235 282.999C60.0756 282.309 60.5724 281.849 60.4735 281.274C60.4603 281.194 60.4347 281.116 60.3976 281.044C61.1244 280.464 62.486 278.997 65.2897 275.324C65.8969 274.53 69.7402 269.399 69.7954 269.095C69.9702 268.175 69.8092 267.407 69.3216 266.851C68.834 266.294 68.1716 266.046 67.3781 265.903C68.3372 265.234 69.5217 264.353 70.6579 263.405L70.26 263.12L69.8667 262.828C66.9411 260.634 63.8614 257.678 61.6994 255.332L61.382 254.983L61.0646 254.631C60.1247 255.442 59.2273 256.301 58.3759 257.204C58.4244 256.991 58.4597 256.774 58.4817 256.556L58.4955 256.326L58.346 256.172C58.116 255.942 57.9964 255.808 47.5774 256.386L46.7586 256.432L46.4895 256.326L46.4021 256.3C44.8036 256.006 39.1249 253.037 36.0728 251.441C33.8786 250.291 33.8648 250.291 33.7015 250.291C31.2589 250.178 29.8881 250.291 29.1015 250.751C27.3213 251.454 25.8815 253.205 25.3893 254.596C25.1294 255.316 25.1202 255.921 25.364 256.349C26.859 258.934 30.7713 264.553 36.0475 269.197ZM33.5957 251.231C33.8257 251.335 34.7135 251.797 35.645 252.285C39.8885 254.504 44.546 256.885 46.1951 257.227L46.6137 257.391H46.7149L47.6349 257.34C53.0629 257.039 56.3749 256.901 57.4789 256.924C57.403 257.317 57.2765 257.756 57.1454 258.214C57.0764 258.444 57.0051 258.709 56.9361 258.971C56.6615 259.884 56.5455 260.838 56.5934 261.791C56.7544 263.665 57.9504 265.544 61.9179 266.731C62.0556 266.768 62.1965 266.792 62.3388 266.802C62.7875 266.833 63.2378 266.833 63.6866 266.802L64.0247 266.786C64.4065 266.765 64.8205 266.745 65.2437 266.736C65.5496 266.736 65.8578 266.736 66.1637 266.736C67.201 266.775 68.1601 266.952 68.6224 267.481C68.9007 267.798 68.9904 268.244 68.8938 268.842C67.9623 270.255 60.8783 279.958 59.5949 280.469C57.7549 280.239 51.5794 275.747 44.1412 269.243C36.956 262.961 31.045 256.94 30.0836 254.925C29.4971 253.697 28.9474 252.367 29.3108 251.82C29.6397 251.326 30.861 251.199 32.195 251.199C32.6596 251.194 33.138 251.211 33.5957 251.231ZM26.2909 254.911C26.7079 253.894 27.3843 253.003 28.2528 252.328C28.2689 253.117 28.6507 254.106 29.2303 255.318C30.4286 257.828 37.4781 264.656 43.5202 269.939C46.4849 272.529 56.3059 280.933 59.4477 281.384C59.4753 281.397 59.5022 281.412 59.5282 281.428C59.2762 281.745 58.9935 282.036 58.6841 282.297C58.1778 282.748 57.6985 283.228 57.2489 283.735C56.7889 284.266 56.4853 284.515 56.2737 284.498C56.0621 284.482 55.6688 284.188 55.1973 283.808C54.5454 283.274 53.8593 282.783 53.1434 282.339C48.939 279.765 44.3781 275.549 40.3554 271.83C39.0375 270.613 37.7909 269.461 36.6754 268.477C31.4935 263.916 27.6548 258.405 26.2035 255.866C26.123 255.746 26.1069 255.422 26.2909 254.914V254.911Z" fill="#454545"/>
<path d="M207.022 292.928C207.39 293.556 208.172 294.289 209.867 294.216C211.247 294.156 212.88 294.289 214.598 294.432C216.142 294.558 217.754 294.69 219.322 294.69C222.363 294.69 225.245 294.193 227.142 292.194C231.218 287.898 232.649 285.161 234.629 281.384C235.301 280.096 236.062 278.64 237.012 276.97C238.468 274.413 240.756 269.785 239.744 267.524C239.596 267.196 239.369 266.908 239.084 266.687C238.799 266.467 238.464 266.319 238.109 266.257C237.801 266.187 237.51 266.06 237.249 265.882C237.041 265.728 236.802 265.619 236.55 265.563C236.297 265.507 236.035 265.505 235.781 265.558C235.307 264.868 234.293 264.205 232.635 263.182L232.308 262.979C231.943 262.749 231.529 262.487 231.082 262.202C227.172 259.69 223.787 257.703 222.174 258.839C221.955 259.007 221.775 259.222 221.647 259.467C221.52 259.712 221.448 259.982 221.436 260.259C220.689 259.828 219.799 259.355 218.784 258.879C218.708 259.017 218.63 259.157 218.554 259.295C218.478 259.433 218.402 259.573 218.324 259.711C216.562 262.943 215.231 265.461 214.334 267.161C214.258 267.306 214.187 267.446 214.115 267.577C214.044 267.708 213.968 267.865 213.885 267.998C214.44 268.253 215.067 268.52 215.725 268.759C215.69 268.797 215.658 268.838 215.629 268.881C215.311 269.341 215.258 270.765 215.258 273.789C215.258 274.721 214.338 280.321 213.977 280.936C213.646 281.246 213.277 281.512 212.878 281.727C212.393 282.028 211.728 282.442 210.835 283.086C210.589 283.249 210.332 283.397 210.067 283.528C209.147 284.008 208.009 284.606 207.712 286.023C207.68 286.175 207.611 286.412 207.537 286.663C207.333 287.353 207.077 288.183 207.139 288.804C206.702 289.65 206.245 291.594 207.022 292.928ZM208.653 286.203C208.857 285.22 209.704 284.779 210.52 284.349C210.827 284.199 211.122 284.028 211.404 283.836C212.268 283.213 212.892 282.826 213.391 282.516C213.819 282.275 214.22 281.99 214.587 281.665C215.18 281.57 216.944 281.274 217.177 281.235C220.003 280.758 220.003 280.758 220.127 280.616L219.755 280.289L219.654 279.85C219.424 279.898 216.507 280.393 215.074 280.63C215.629 278.663 216.224 274.346 216.224 273.776C216.224 272.589 216.224 269.81 216.427 269.406C216.526 269.263 216.868 269.316 217.418 269.406C218.088 269.57 218.785 269.594 219.465 269.477C220.417 269.268 221.432 268.585 222.287 266.786C222.472 266.393 222.636 265.991 222.777 265.581L222.844 265.383C223.074 264.75 223.304 264.074 223.304 263.442C223.313 263.002 223.162 262.575 222.878 262.239C222.773 262.115 222.654 262.003 222.524 261.905C222.485 261.721 222.453 261.547 222.43 261.381C222.401 261.184 222.383 260.986 222.375 260.788C222.356 260.187 222.476 259.776 222.736 259.592C223.959 258.729 228.272 261.494 230.59 262.977C231.05 263.267 231.46 263.534 231.83 263.764L232.156 263.966C233.983 265.093 234.99 265.716 235.146 266.349C235.303 266.981 234.709 268.019 233.628 269.891C233.074 270.85 232.386 272.044 231.591 273.546L231.533 273.654C224.373 287.159 221.535 288.746 220.645 288.802H220.615C212.885 289.282 208.761 289.087 208.105 288.696C208.066 288.27 208.308 287.456 208.471 286.906C208.54 286.637 208.611 286.393 208.653 286.203ZM236.756 266.68C237.107 266.912 237.496 267.078 237.906 267.17C238.117 267.199 238.317 267.282 238.487 267.41C238.656 267.538 238.791 267.707 238.877 267.901C239.484 269.254 238.479 272.467 236.188 276.494C235.229 278.178 234.463 279.643 233.787 280.936C231.841 284.657 230.438 287.343 226.452 291.543C223.888 294.248 218.991 293.843 214.672 293.491C212.922 293.346 211.27 293.211 209.821 293.261C208.848 293.303 208.177 293.031 207.832 292.44C207.372 291.637 207.54 290.37 207.832 289.593C208.494 289.837 209.872 290.041 212.802 290.041C214.697 290.041 217.246 289.956 220.663 289.742H220.696C223.007 289.6 226.931 284.335 232.357 274.102L232.414 273.994C233.203 272.506 233.886 271.322 234.436 270.369C235.542 268.451 236.142 267.331 236.101 266.459C236.339 266.453 236.571 266.531 236.756 266.68Z" fill="#454545"/>
</svg>
