<svg width="754" height="754" viewBox="0 0 754 754" fill="none" xmlns="http://www.w3.org/2000/svg">
<path d="M239.688 326.112C239.688 327.04 239.368 327.813 238.728 328.432C238.099 329.04 237.133 329.344 235.832 329.344H233.688V334H232.232V322.848H235.832C237.091 322.848 238.045 323.152 238.696 323.76C239.357 324.368 239.688 325.152 239.688 326.112ZM235.832 328.144C236.643 328.144 237.24 327.968 237.624 327.616C238.008 327.264 238.2 326.763 238.2 326.112C238.2 324.736 237.411 324.048 235.832 324.048H233.688V328.144H235.832ZM252.81 322.928V334H251.354V325.744L247.674 334H246.65L242.954 325.728V334H241.498V322.928H243.066L247.162 332.08L251.258 322.928H252.81Z" fill="#1E1E1E"/>
<path d="M636.688 326.112C636.688 327.04 636.368 327.813 635.728 328.432C635.099 329.04 634.133 329.344 632.832 329.344H630.688V334H629.232V322.848H632.832C634.091 322.848 635.045 323.152 635.696 323.76C636.357 324.368 636.688 325.152 636.688 326.112ZM632.832 328.144C633.643 328.144 634.24 327.968 634.624 327.616C635.008 327.264 635.2 326.763 635.2 326.112C635.2 324.736 634.411 324.048 632.832 324.048H630.688V328.144H632.832ZM637.954 329.584C637.954 328.688 638.135 327.904 638.498 327.232C638.86 326.549 639.356 326.021 639.986 325.648C640.626 325.275 641.335 325.088 642.114 325.088C642.882 325.088 643.548 325.253 644.114 325.584C644.679 325.915 645.1 326.331 645.378 326.832V325.232H646.85V334H645.378V332.368C645.09 332.88 644.658 333.307 644.082 333.648C643.516 333.979 642.855 334.144 642.098 334.144C641.319 334.144 640.615 333.952 639.986 333.568C639.356 333.184 638.86 332.645 638.498 331.952C638.135 331.259 637.954 330.469 637.954 329.584ZM645.378 329.6C645.378 328.939 645.244 328.363 644.978 327.872C644.711 327.381 644.348 327.008 643.89 326.752C643.442 326.485 642.946 326.352 642.402 326.352C641.858 326.352 641.362 326.48 640.914 326.736C640.466 326.992 640.108 327.365 639.842 327.856C639.575 328.347 639.442 328.923 639.442 329.584C639.442 330.256 639.575 330.843 639.842 331.344C640.108 331.835 640.466 332.213 640.914 332.48C641.362 332.736 641.858 332.864 642.402 332.864C642.946 332.864 643.442 332.736 643.89 332.48C644.348 332.213 644.711 331.835 644.978 331.344C645.244 330.843 645.378 330.261 645.378 329.6ZM650.766 326.656C651.022 326.155 651.385 325.765 651.854 325.488C652.334 325.211 652.915 325.072 653.598 325.072V326.576H653.214C651.582 326.576 650.766 327.461 650.766 329.232V334H649.31V325.232H650.766V326.656ZM657.055 326.432V331.6C657.055 332.027 657.146 332.331 657.327 332.512C657.508 332.683 657.823 332.768 658.271 332.768H659.343V334H658.031C657.22 334 656.612 333.813 656.207 333.44C655.802 333.067 655.599 332.453 655.599 331.6V326.432H654.463V325.232H655.599V323.024H657.055V325.232H659.343V326.432H657.055ZM665.379 325.072C666.446 325.072 667.31 325.397 667.971 326.048C668.632 326.688 668.963 327.616 668.963 328.832V334H667.523V329.04C667.523 328.165 667.304 327.499 666.867 327.04C666.43 326.571 665.832 326.336 665.075 326.336C664.307 326.336 663.694 326.576 663.235 327.056C662.787 327.536 662.563 328.235 662.563 329.152V334H661.107V325.232H662.563V326.48C662.851 326.032 663.24 325.685 663.731 325.44C664.232 325.195 664.782 325.072 665.379 325.072ZM679.341 329.28C679.341 329.557 679.325 329.851 679.293 330.16H672.285C672.339 331.024 672.632 331.701 673.165 332.192C673.709 332.672 674.365 332.912 675.133 332.912C675.763 332.912 676.285 332.768 676.701 332.48C677.128 332.181 677.427 331.787 677.597 331.296H679.165C678.931 332.139 678.461 332.827 677.757 333.36C677.053 333.883 676.179 334.144 675.133 334.144C674.301 334.144 673.555 333.957 672.893 333.584C672.243 333.211 671.731 332.683 671.357 332C670.984 331.307 670.797 330.507 670.797 329.6C670.797 328.693 670.979 327.899 671.341 327.216C671.704 326.533 672.211 326.011 672.861 325.648C673.523 325.275 674.28 325.088 675.133 325.088C675.965 325.088 676.701 325.269 677.341 325.632C677.981 325.995 678.472 326.496 678.813 327.136C679.165 327.765 679.341 328.48 679.341 329.28ZM677.837 328.976C677.837 328.421 677.715 327.947 677.469 327.552C677.224 327.147 676.888 326.843 676.461 326.64C676.045 326.427 675.581 326.32 675.069 326.32C674.333 326.32 673.704 326.555 673.181 327.024C672.669 327.493 672.376 328.144 672.301 328.976H677.837ZM682.719 326.656C682.975 326.155 683.338 325.765 683.807 325.488C684.287 325.211 684.869 325.072 685.551 325.072V326.576H685.167C683.535 326.576 682.719 327.461 682.719 329.232V334H681.263V325.232H682.719V326.656ZM688.32 332.8H692.624V334H686.656V332.8L690.912 326.416H686.688V325.232H692.592V326.416L688.32 332.8ZM702.065 325.232L696.785 338.128H695.281L697.009 333.904L693.473 325.232H695.089L697.841 332.336L700.561 325.232H702.065Z" fill="#1E1E1E"/>
<path d="M190.704 468.848C191.92 468.848 192.971 469.077 193.856 469.536C194.752 469.984 195.435 470.629 195.904 471.472C196.384 472.315 196.624 473.307 196.624 474.448C196.624 475.589 196.384 476.581 195.904 477.424C195.435 478.256 194.752 478.896 193.856 479.344C192.971 479.781 191.92 480 190.704 480H187.232V468.848H190.704ZM190.704 478.8C192.144 478.8 193.243 478.421 194 477.664C194.757 476.896 195.136 475.824 195.136 474.448C195.136 473.061 194.752 471.979 193.984 471.2C193.227 470.421 192.133 470.032 190.704 470.032H188.688V478.8H190.704ZM206.545 475.28C206.545 475.557 206.529 475.851 206.497 476.16H199.489C199.542 477.024 199.835 477.701 200.369 478.192C200.913 478.672 201.569 478.912 202.337 478.912C202.966 478.912 203.489 478.768 203.905 478.48C204.331 478.181 204.63 477.787 204.801 477.296H206.369C206.134 478.139 205.665 478.827 204.961 479.36C204.257 479.883 203.382 480.144 202.337 480.144C201.505 480.144 200.758 479.957 200.097 479.584C199.446 479.211 198.934 478.683 198.561 478C198.187 477.307 198.001 476.507 198.001 475.6C198.001 474.693 198.182 473.899 198.545 473.216C198.907 472.533 199.414 472.011 200.065 471.648C200.726 471.275 201.483 471.088 202.337 471.088C203.169 471.088 203.905 471.269 204.545 471.632C205.185 471.995 205.675 472.496 206.017 473.136C206.369 473.765 206.545 474.48 206.545 475.28ZM205.041 474.976C205.041 474.421 204.918 473.947 204.673 473.552C204.427 473.147 204.091 472.843 203.665 472.64C203.249 472.427 202.785 472.32 202.273 472.32C201.537 472.32 200.907 472.555 200.385 473.024C199.873 473.493 199.579 474.144 199.505 474.976H205.041ZM211.73 478.656L214.45 471.232H216.002L212.562 480H210.866L207.426 471.232H208.994L211.73 478.656ZM225.435 475.28C225.435 475.557 225.419 475.851 225.387 476.16H218.379C218.432 477.024 218.726 477.701 219.259 478.192C219.803 478.672 220.459 478.912 221.227 478.912C221.856 478.912 222.379 478.768 222.795 478.48C223.222 478.181 223.52 477.787 223.691 477.296H225.259C225.024 478.139 224.555 478.827 223.851 479.36C223.147 479.883 222.272 480.144 221.227 480.144C220.395 480.144 219.648 479.957 218.987 479.584C218.336 479.211 217.824 478.683 217.451 478C217.078 477.307 216.891 476.507 216.891 475.6C216.891 474.693 217.072 473.899 217.435 473.216C217.798 472.533 218.304 472.011 218.955 471.648C219.616 471.275 220.374 471.088 221.227 471.088C222.059 471.088 222.795 471.269 223.435 471.632C224.075 471.995 224.566 472.496 224.907 473.136C225.259 473.765 225.435 474.48 225.435 475.28ZM223.931 474.976C223.931 474.421 223.808 473.947 223.563 473.552C223.318 473.147 222.982 472.843 222.555 472.64C222.139 472.427 221.675 472.32 221.163 472.32C220.427 472.32 219.798 472.555 219.275 473.024C218.763 473.493 218.47 474.144 218.395 474.976H223.931ZM228.813 468.16V480H227.357V468.16H228.813ZM235.119 480.144C234.297 480.144 233.551 479.957 232.879 479.584C232.217 479.211 231.695 478.683 231.311 478C230.937 477.307 230.751 476.507 230.751 475.6C230.751 474.704 230.943 473.915 231.327 473.232C231.721 472.539 232.255 472.011 232.927 471.648C233.599 471.275 234.351 471.088 235.183 471.088C236.015 471.088 236.767 471.275 237.439 471.648C238.111 472.011 238.639 472.533 239.023 473.216C239.417 473.899 239.615 474.693 239.615 475.6C239.615 476.507 239.412 477.307 239.007 478C238.612 478.683 238.073 479.211 237.391 479.584C236.708 479.957 235.951 480.144 235.119 480.144ZM235.119 478.864C235.641 478.864 236.132 478.741 236.591 478.496C237.049 478.251 237.417 477.883 237.695 477.392C237.983 476.901 238.127 476.304 238.127 475.6C238.127 474.896 237.988 474.299 237.711 473.808C237.433 473.317 237.071 472.955 236.623 472.72C236.175 472.475 235.689 472.352 235.167 472.352C234.633 472.352 234.143 472.475 233.695 472.72C233.257 472.955 232.905 473.317 232.639 473.808C232.372 474.299 232.239 474.896 232.239 475.6C232.239 476.315 232.367 476.917 232.623 477.408C232.889 477.899 233.241 478.267 233.679 478.512C234.116 478.747 234.596 478.864 235.119 478.864ZM242.985 472.848C243.273 472.347 243.7 471.931 244.265 471.6C244.841 471.259 245.508 471.088 246.265 471.088C247.044 471.088 247.748 471.275 248.377 471.648C249.017 472.021 249.518 472.549 249.881 473.232C250.244 473.904 250.425 474.688 250.425 475.584C250.425 476.469 250.244 477.259 249.881 477.952C249.518 478.645 249.017 479.184 248.377 479.568C247.748 479.952 247.044 480.144 246.265 480.144C245.518 480.144 244.857 479.979 244.281 479.648C243.716 479.307 243.284 478.885 242.985 478.384V484.16H241.529V471.232H242.985V472.848ZM248.937 475.584C248.937 474.923 248.804 474.347 248.537 473.856C248.27 473.365 247.908 472.992 247.449 472.736C247.001 472.48 246.505 472.352 245.961 472.352C245.428 472.352 244.932 472.485 244.473 472.752C244.025 473.008 243.662 473.387 243.385 473.888C243.118 474.379 242.985 474.949 242.985 475.6C242.985 476.261 243.118 476.843 243.385 477.344C243.662 477.835 244.025 478.213 244.473 478.48C244.932 478.736 245.428 478.864 245.961 478.864C246.505 478.864 247.001 478.736 247.449 478.48C247.908 478.213 248.27 477.835 248.537 477.344C248.804 476.843 248.937 476.256 248.937 475.584ZM260.341 475.28C260.341 475.557 260.325 475.851 260.293 476.16H253.285C253.339 477.024 253.632 477.701 254.165 478.192C254.709 478.672 255.365 478.912 256.133 478.912C256.763 478.912 257.285 478.768 257.701 478.48C258.128 478.181 258.427 477.787 258.597 477.296H260.165C259.931 478.139 259.461 478.827 258.757 479.36C258.053 479.883 257.179 480.144 256.133 480.144C255.301 480.144 254.555 479.957 253.893 479.584C253.243 479.211 252.731 478.683 252.357 478C251.984 477.307 251.797 476.507 251.797 475.6C251.797 474.693 251.979 473.899 252.341 473.216C252.704 472.533 253.211 472.011 253.861 471.648C254.523 471.275 255.28 471.088 256.133 471.088C256.965 471.088 257.701 471.269 258.341 471.632C258.981 471.995 259.472 472.496 259.813 473.136C260.165 473.765 260.341 474.48 260.341 475.28ZM258.837 474.976C258.837 474.421 258.715 473.947 258.469 473.552C258.224 473.147 257.888 472.843 257.461 472.64C257.045 472.427 256.581 472.32 256.069 472.32C255.333 472.32 254.704 472.555 254.181 473.024C253.669 473.493 253.376 474.144 253.301 474.976H258.837ZM263.719 472.656C263.975 472.155 264.338 471.765 264.807 471.488C265.287 471.211 265.869 471.072 266.551 471.072V472.576H266.167C264.535 472.576 263.719 473.461 263.719 475.232V480H262.263V471.232H263.719V472.656ZM271.336 480.144C270.664 480.144 270.061 480.032 269.528 479.808C268.995 479.573 268.573 479.253 268.264 478.848C267.955 478.432 267.784 477.957 267.752 477.424H269.256C269.299 477.861 269.501 478.219 269.864 478.496C270.237 478.773 270.723 478.912 271.32 478.912C271.875 478.912 272.312 478.789 272.632 478.544C272.952 478.299 273.112 477.989 273.112 477.616C273.112 477.232 272.941 476.949 272.6 476.768C272.259 476.576 271.731 476.389 271.016 476.208C270.365 476.037 269.832 475.867 269.416 475.696C269.011 475.515 268.659 475.253 268.36 474.912C268.072 474.56 267.928 474.101 267.928 473.536C267.928 473.088 268.061 472.677 268.328 472.304C268.595 471.931 268.973 471.637 269.464 471.424C269.955 471.2 270.515 471.088 271.144 471.088C272.115 471.088 272.899 471.333 273.496 471.824C274.093 472.315 274.413 472.987 274.456 473.84H273C272.968 473.381 272.781 473.013 272.44 472.736C272.109 472.459 271.661 472.32 271.096 472.32C270.573 472.32 270.157 472.432 269.848 472.656C269.539 472.88 269.384 473.173 269.384 473.536C269.384 473.824 269.475 474.064 269.656 474.256C269.848 474.437 270.083 474.587 270.36 474.704C270.648 474.811 271.043 474.933 271.544 475.072C272.173 475.243 272.685 475.413 273.08 475.584C273.475 475.744 273.811 475.989 274.088 476.32C274.376 476.651 274.525 477.083 274.536 477.616C274.536 478.096 274.403 478.528 274.136 478.912C273.869 479.296 273.491 479.6 273 479.824C272.52 480.037 271.965 480.144 271.336 480.144Z" fill="#1E1E1E"/>
<path d="M323.704 405.848C324.92 405.848 325.971 406.077 326.856 406.536C327.752 406.984 328.435 407.629 328.904 408.472C329.384 409.315 329.624 410.307 329.624 411.448C329.624 412.589 329.384 413.581 328.904 414.424C328.435 415.256 327.752 415.896 326.856 416.344C325.971 416.781 324.92 417 323.704 417H320.232V405.848H323.704ZM323.704 415.8C325.144 415.8 326.243 415.421 327 414.664C327.757 413.896 328.136 412.824 328.136 411.448C328.136 410.061 327.752 408.979 326.984 408.2C326.227 407.421 325.133 407.032 323.704 407.032H321.688V415.8H323.704ZM339.545 412.28C339.545 412.557 339.529 412.851 339.497 413.16H332.489C332.542 414.024 332.835 414.701 333.369 415.192C333.913 415.672 334.569 415.912 335.337 415.912C335.966 415.912 336.489 415.768 336.905 415.48C337.331 415.181 337.63 414.787 337.801 414.296H339.369C339.134 415.139 338.665 415.827 337.961 416.36C337.257 416.883 336.382 417.144 335.337 417.144C334.505 417.144 333.758 416.957 333.097 416.584C332.446 416.211 331.934 415.683 331.561 415C331.187 414.307 331.001 413.507 331.001 412.6C331.001 411.693 331.182 410.899 331.545 410.216C331.907 409.533 332.414 409.011 333.065 408.648C333.726 408.275 334.483 408.088 335.337 408.088C336.169 408.088 336.905 408.269 337.545 408.632C338.185 408.995 338.675 409.496 339.017 410.136C339.369 410.765 339.545 411.48 339.545 412.28ZM338.041 411.976C338.041 411.421 337.918 410.947 337.673 410.552C337.427 410.147 337.091 409.843 336.665 409.64C336.249 409.427 335.785 409.32 335.273 409.32C334.537 409.32 333.907 409.555 333.385 410.024C332.873 410.493 332.579 411.144 332.505 411.976H338.041ZM344.57 417.144C343.898 417.144 343.296 417.032 342.762 416.808C342.229 416.573 341.808 416.253 341.498 415.848C341.189 415.432 341.018 414.957 340.986 414.424H342.49C342.533 414.861 342.736 415.219 343.098 415.496C343.472 415.773 343.957 415.912 344.554 415.912C345.109 415.912 345.546 415.789 345.866 415.544C346.186 415.299 346.346 414.989 346.346 414.616C346.346 414.232 346.176 413.949 345.834 413.768C345.493 413.576 344.965 413.389 344.25 413.208C343.6 413.037 343.066 412.867 342.65 412.696C342.245 412.515 341.893 412.253 341.594 411.912C341.306 411.56 341.162 411.101 341.162 410.536C341.162 410.088 341.296 409.677 341.562 409.304C341.829 408.931 342.208 408.637 342.698 408.424C343.189 408.2 343.749 408.088 344.378 408.088C345.349 408.088 346.133 408.333 346.73 408.824C347.328 409.315 347.648 409.987 347.69 410.84H346.234C346.202 410.381 346.016 410.013 345.674 409.736C345.344 409.459 344.896 409.32 344.33 409.32C343.808 409.32 343.392 409.432 343.082 409.656C342.773 409.88 342.618 410.173 342.618 410.536C342.618 410.824 342.709 411.064 342.89 411.256C343.082 411.437 343.317 411.587 343.594 411.704C343.882 411.811 344.277 411.933 344.778 412.072C345.408 412.243 345.92 412.413 346.314 412.584C346.709 412.744 347.045 412.989 347.322 413.32C347.61 413.651 347.76 414.083 347.77 414.616C347.77 415.096 347.637 415.528 347.37 415.912C347.104 416.296 346.725 416.6 346.234 416.824C345.754 417.037 345.2 417.144 344.57 417.144ZM350.578 406.808C350.3 406.808 350.066 406.712 349.874 406.52C349.682 406.328 349.586 406.093 349.586 405.816C349.586 405.539 349.682 405.304 349.874 405.112C350.066 404.92 350.3 404.824 350.578 404.824C350.844 404.824 351.068 404.92 351.25 405.112C351.442 405.304 351.538 405.539 351.538 405.816C351.538 406.093 351.442 406.328 351.25 406.52C351.068 406.712 350.844 406.808 350.578 406.808ZM351.282 408.232V417H349.826V408.232H351.282ZM357.379 408.088C358.137 408.088 358.798 408.253 359.363 408.584C359.939 408.915 360.366 409.331 360.643 409.832V408.232H362.115V417.192C362.115 417.992 361.945 418.701 361.603 419.32C361.262 419.949 360.771 420.44 360.131 420.792C359.502 421.144 358.766 421.32 357.923 421.32C356.771 421.32 355.811 421.048 355.043 420.504C354.275 419.96 353.822 419.219 353.683 418.28H355.123C355.283 418.813 355.614 419.24 356.115 419.56C356.617 419.891 357.219 420.056 357.923 420.056C358.723 420.056 359.374 419.805 359.875 419.304C360.387 418.803 360.643 418.099 360.643 417.192V415.352C360.355 415.864 359.929 416.291 359.363 416.632C358.798 416.973 358.137 417.144 357.379 417.144C356.601 417.144 355.891 416.952 355.251 416.568C354.622 416.184 354.126 415.645 353.763 414.952C353.401 414.259 353.219 413.469 353.219 412.584C353.219 411.688 353.401 410.904 353.763 410.232C354.126 409.549 354.622 409.021 355.251 408.648C355.891 408.275 356.601 408.088 357.379 408.088ZM360.643 412.6C360.643 411.939 360.51 411.363 360.243 410.872C359.977 410.381 359.614 410.008 359.155 409.752C358.707 409.485 358.211 409.352 357.667 409.352C357.123 409.352 356.627 409.48 356.179 409.736C355.731 409.992 355.374 410.365 355.107 410.856C354.841 411.347 354.707 411.923 354.707 412.584C354.707 413.256 354.841 413.843 355.107 414.344C355.374 414.835 355.731 415.213 356.179 415.48C356.627 415.736 357.123 415.864 357.667 415.864C358.211 415.864 358.707 415.736 359.155 415.48C359.614 415.213 359.977 414.835 360.243 414.344C360.51 413.843 360.643 413.261 360.643 412.6ZM368.848 408.072C369.914 408.072 370.778 408.397 371.44 409.048C372.101 409.688 372.432 410.616 372.432 411.832V417H370.992V412.04C370.992 411.165 370.773 410.499 370.336 410.04C369.898 409.571 369.301 409.336 368.544 409.336C367.776 409.336 367.162 409.576 366.704 410.056C366.256 410.536 366.032 411.235 366.032 412.152V417H364.576V408.232H366.032V409.48C366.32 409.032 366.709 408.685 367.2 408.44C367.701 408.195 368.25 408.072 368.848 408.072ZM382.81 412.28C382.81 412.557 382.794 412.851 382.762 413.16H375.754C375.807 414.024 376.101 414.701 376.634 415.192C377.178 415.672 377.834 415.912 378.602 415.912C379.231 415.912 379.754 415.768 380.17 415.48C380.597 415.181 380.895 414.787 381.066 414.296H382.634C382.399 415.139 381.93 415.827 381.226 416.36C380.522 416.883 379.647 417.144 378.602 417.144C377.77 417.144 377.023 416.957 376.362 416.584C375.711 416.211 375.199 415.683 374.826 415C374.453 414.307 374.266 413.507 374.266 412.6C374.266 411.693 374.447 410.899 374.81 410.216C375.173 409.533 375.679 409.011 376.33 408.648C376.991 408.275 377.749 408.088 378.602 408.088C379.434 408.088 380.17 408.269 380.81 408.632C381.45 408.995 381.941 409.496 382.282 410.136C382.634 410.765 382.81 411.48 382.81 412.28ZM381.306 411.976C381.306 411.421 381.183 410.947 380.938 410.552C380.693 410.147 380.357 409.843 379.93 409.64C379.514 409.427 379.05 409.32 378.538 409.32C377.802 409.32 377.173 409.555 376.65 410.024C376.138 410.493 375.845 411.144 375.77 411.976H381.306ZM386.188 409.656C386.444 409.155 386.807 408.765 387.276 408.488C387.756 408.211 388.337 408.072 389.02 408.072V409.576H388.636C387.004 409.576 386.188 410.461 386.188 412.232V417H384.732V408.232H386.188V409.656ZM393.805 417.144C393.133 417.144 392.53 417.032 391.997 416.808C391.463 416.573 391.042 416.253 390.733 415.848C390.423 415.432 390.253 414.957 390.221 414.424H391.725C391.767 414.861 391.97 415.219 392.333 415.496C392.706 415.773 393.191 415.912 393.789 415.912C394.343 415.912 394.781 415.789 395.101 415.544C395.421 415.299 395.581 414.989 395.581 414.616C395.581 414.232 395.41 413.949 395.069 413.768C394.727 413.576 394.199 413.389 393.485 413.208C392.834 413.037 392.301 412.867 391.885 412.696C391.479 412.515 391.127 412.253 390.829 411.912C390.541 411.56 390.397 411.101 390.397 410.536C390.397 410.088 390.53 409.677 390.797 409.304C391.063 408.931 391.442 408.637 391.933 408.424C392.423 408.2 392.983 408.088 393.613 408.088C394.583 408.088 395.367 408.333 395.965 408.824C396.562 409.315 396.882 409.987 396.925 410.84H395.469C395.437 410.381 395.25 410.013 394.909 409.736C394.578 409.459 394.13 409.32 393.565 409.32C393.042 409.32 392.626 409.432 392.317 409.656C392.007 409.88 391.853 410.173 391.853 410.536C391.853 410.824 391.943 411.064 392.125 411.256C392.317 411.437 392.551 411.587 392.829 411.704C393.117 411.811 393.511 411.933 394.013 412.072C394.642 412.243 395.154 412.413 395.549 412.584C395.943 412.744 396.279 412.989 396.557 413.32C396.845 413.651 396.994 414.083 397.005 414.616C397.005 415.096 396.871 415.528 396.605 415.912C396.338 416.296 395.959 416.6 395.469 416.824C394.989 417.037 394.434 417.144 393.805 417.144Z" fill="#1E1E1E"/>
<circle cx="377" cy="377" r="376.5" stroke="#1E1E1E"/>
<circle cx="297.5" cy="400.5" r="293" stroke="#1E1E1E"/>
<circle cx="231.056" cy="474.056" r="82.5019" stroke="#1E1E1E" stroke-width="1.10741"/>
<circle cx="359.056" cy="411.056" r="82.5019" stroke="#1E1E1E" stroke-width="1.10741"/>
<circle cx="243.056" cy="328.056" r="82.5019" stroke="#1E1E1E" stroke-width="1.10741"/>
</svg>
