<svg preserveAspectRatio="none" viewBox="0 0 227 68" fill="none" xmlns="http://www.w3.org/2000/svg">
<path id="Vector 26" d="M218.784 11.8608C188.415 7.33673 98.1638 4.56533 66.7695 7.53843C51.8078 8.95531 36.6427 12.1819 23.1872 16.1545C16.9599 17.993 9.37221 20.4866 5.51018 24.0678C-1.00436 30.1087 -0.204371 36.0173 6.25336 41.8804C20.04 54.3978 45.0778 60.819 69.5829 63.6956C107.723 68.1726 149.203 68.7911 186.156 61.1902C198.365 58.6789 213.042 55.7391 221.032 49.3355C227.905 43.8283 227.368 36.9827 221.139 31.4923C205.83 18 175.459 7.84233 148.891 3.93313C132.197 1.47691 113.744 1 96.6028 1C74.4781 1 56.0182 4.86579 35.1312 8.39392" stroke="#F9F8F7" stroke-width="2" stroke-linecap="round"/>
</svg>
