<svg width="343" height="69" viewBox="0 0 343 69" fill="none" xmlns="http://www.w3.org/2000/svg">
<path d="M331.064 12.0253C285.038 7.43274 148.257 4.61935 100.677 7.63749C78.002 9.07585 55.0185 12.3513 34.626 16.3841C25.1882 18.2505 13.6885 20.7818 7.83542 24.4173C-2.03772 30.5498 -0.825291 36.5478 8.96176 42.4998C29.8562 55.2068 67.8023 61.7254 104.941 64.6455C162.744 69.1904 225.61 69.8182 281.614 62.1021C300.118 59.5528 322.361 56.5685 334.471 50.0678C344.886 44.4772 344.074 37.5279 334.632 31.9543C311.431 18.2576 265.403 7.946 225.137 3.97757C199.837 1.48413 171.87 1 145.891 1C112.36 1 84.3831 4.92436 52.7278 8.50595" stroke="#A6A6A6" stroke-width="2" stroke-linecap="round"/>
</svg>
