<svg width="367" height="45" viewBox="0 0 367 45" fill="none" xmlns="http://www.w3.org/2000/svg">
<path d="M354.294 8.07595C305.029 5.12848 158.621 3.32287 107.693 5.25988C83.4216 6.18301 58.8204 8.28519 36.9927 10.8734C26.8906 12.0712 14.5816 13.6958 8.31651 16.029C-2.25152 19.9648 -0.953757 23.8143 9.52211 27.6342C31.8871 35.7894 72.504 39.973 112.257 41.8471C174.128 44.764 241.419 45.1669 301.364 40.2148C321.17 38.5787 344.979 36.6633 357.942 32.4913C369.09 28.9033 368.22 24.4433 358.114 20.8662C333.279 12.0758 284.012 5.45788 240.912 2.91098C213.831 1.31071 183.896 1 156.089 1C120.198 1 90.2517 3.51862 56.3684 5.81725" stroke="#60DC74" stroke-linecap="round"/>
</svg>
