<svg width="140" height="140" viewBox="0 0 140 140" fill="none" xmlns="http://www.w3.org/2000/svg">
<mask id="mask0_1116_4835" style="mask-type:luminance" maskUnits="userSpaceOnUse" x="22" y="60" width="96" height="20">
<path d="M117.5 60.5H22.5V79.5H117.5V60.5Z" fill="white"/>
</mask>
<g mask="url(#mask0_1116_4835)">
<path d="M26.0792 69.7616V69.6567C24.6757 69.1024 23.0446 67.5968 23.0446 65.4867C23.0446 62.4527 25.8787 60.5 29.4282 60.5C33.1213 60.5 35.9555 62.4527 35.9555 65.4867C35.9555 67.5443 34.2673 69.0499 32.9208 69.6293V69.7616C34.6955 70.4483 36.5 71.9516 36.5 74.3012C36.5 77.2576 33.7797 79.5 29.4282 79.5C25.2203 79.4977 22.5 77.2553 22.5 74.3012C22.5 71.9264 24.4183 70.4483 26.0792 69.7616ZM32.1782 65.619C32.1782 64.3256 31.0891 63.2967 29.4307 63.2967C27.8837 63.2967 26.8243 64.3256 26.8243 65.619C26.8243 66.8326 27.6535 67.7564 29.5148 68.1785C31.3193 67.7816 32.1782 66.7801 32.1782 65.619Z" fill="black"/>
<path d="M39.7835 77.4401C39.5 77.228 39.3875 77.0706 39.6417 76.6485L40.6585 75.0129C40.8858 74.6434 41.3648 74.6434 41.619 74.8281C42.7775 75.6471 44.0509 76.4637 45.8888 76.4637C47.3577 76.4637 48.4624 75.5673 48.4624 74.4312C48.4624 73.0853 47.2477 72.1614 44.872 71.2649C42.2153 70.2612 39.5562 68.678 39.5562 65.5665C39.5586 63.2169 41.4235 60.5 45.9181 60.5C48.8021 60.5 51.0067 61.871 51.5712 62.2679C51.8548 62.4253 51.9379 62.8747 51.7399 63.1393L50.6645 64.6426C50.4372 64.9597 50.0144 65.1696 49.6746 64.9597C48.46 64.248 47.299 63.5089 45.7446 63.5089C44.1339 63.5089 43.2565 64.3529 43.2565 65.3566C43.2565 66.5976 44.3026 67.4417 46.5927 68.3131C49.335 69.3419 52.5 70.8725 52.5 74.2761C52.5 76.993 49.9851 79.5 45.9988 79.5C42.4426 79.4977 40.6047 78.0993 39.7835 77.4401Z" fill="black"/>
<path d="M58.5701 63.5878H54.0605C53.7369 63.5878 53.5 63.3566 53.5 63.0987V60.9891C53.5 60.7312 53.7369 60.5 54.0605 60.5H66.9395C67.2631 60.5 67.5 60.7312 67.5 60.9891V63.0965C67.5 63.3544 67.2631 63.5856 66.9395 63.5856H62.4299V78.0109C62.4299 78.2688 62.165 78.5 61.8694 78.5H59.128C58.8325 78.5 58.5675 78.2688 58.5675 78.0109V63.5878H58.5701Z" fill="black"/>
<path d="M65.5567 78.8036L74.4139 60.7938C74.5001 60.6342 74.6429 60.5 74.899 60.5H75.1846C75.4702 60.5 75.5835 60.6342 75.6697 60.7938L84.4434 78.8036C84.6131 79.1506 84.3868 79.5 83.9583 79.5H81.4811C81.0548 79.5 80.8557 79.3404 80.6561 78.9656L79.2601 76.0762H70.7424L69.3463 78.9656C69.233 79.234 68.9769 79.5 68.5214 79.5H66.0442C65.6133 79.5 65.3868 79.1506 65.5567 78.8036ZM77.8614 73.1034L75.0122 67.2158H74.9261L72.1337 73.1034H77.8614Z" fill="black"/>
<path d="M87.5 60.989C87.5 60.7312 87.7305 60.5 88.0454 60.5H96.2471C99.6887 60.5 102.5 62.9673 102.5 66.028C102.5 68.393 100.75 70.3224 98.2557 71.2226L102.185 77.7531C102.386 78.0865 102.185 78.4977 101.697 78.4977H98.6844C98.4265 78.4977 98.2825 78.3688 98.2255 78.2666L94.4127 71.4538H91.2291V78.0109C91.2291 78.2688 90.9711 78.5 90.6837 78.5H88.0454C87.7305 78.5 87.5 78.2688 87.5 78.0109V60.989ZM95.9323 68.7042C97.4524 68.7042 98.7709 67.5217 98.7709 66.0814C98.7709 64.7188 97.4524 63.5874 95.9323 63.5874H91.2586V68.7042H95.9323Z" fill="black"/>
<path d="M104.784 77.4401C104.5 77.228 104.388 77.0706 104.642 76.6485L105.659 75.0129C105.886 74.6434 106.365 74.6434 106.619 74.8281C107.777 75.6471 109.051 76.4637 110.889 76.4637C112.357 76.4637 113.462 75.5673 113.462 74.4312C113.462 73.0853 112.248 72.1614 109.872 71.2649C107.215 70.2612 104.556 68.678 104.556 65.5665C104.556 63.2169 106.421 60.5 110.918 60.5C113.802 60.5 116.007 61.871 116.571 62.2679C116.855 62.4253 116.938 62.8747 116.74 63.1393L115.665 64.6426C115.437 64.9597 115.014 65.1696 114.675 64.9597C113.46 64.248 112.299 63.5089 110.745 63.5089C109.134 63.5089 108.257 64.3529 108.257 65.3566C108.257 66.5976 109.303 67.4417 111.593 68.3131C114.335 69.3419 117.5 70.8725 117.5 74.2761C117.5 76.993 114.985 79.5 110.999 79.5C107.44 79.4977 105.602 78.0993 104.784 77.4401Z" fill="black"/>
</g>
</svg>
