<svg width="140" height="140" viewBox="0 0 140 140" fill="none" xmlns="http://www.w3.org/2000/svg">
<path d="M23.4865 55.8066H22.6719V84.1939H23.4865V55.8066Z" fill="black"/>
<path d="M29.4566 81.2891C28.9595 81.1762 28.5268 81.0048 28.1579 80.7742C27.7891 80.5437 27.474 80.2517 27.2128 79.8981C26.9515 79.5447 26.7413 79.1247 26.5825 78.6379C26.4236 78.1513 26.3109 77.598 26.2445 76.978C26.1778 76.3582 26.1445 75.6588 26.1445 74.8801V64.7363C26.1445 63.5785 26.2292 62.5846 26.3982 61.7547C26.5672 60.9247 26.8439 60.246 27.2281 59.7182C27.6124 59.1906 28.1272 58.7987 28.7727 58.5424C29.4183 58.2864 30.2225 58.1582 31.1857 58.1582C31.7287 58.1582 32.2282 58.207 32.6842 58.3042C33.14 58.4016 33.5473 58.5424 33.9061 58.7269C34.2646 58.9113 34.5771 59.1521 34.8436 59.4492C35.1099 59.7465 35.3328 60.0948 35.5122 60.4943C35.6914 60.8939 35.8219 61.3448 35.9041 61.8468C35.986 62.349 36.027 62.9176 36.027 63.5529V66.9034H32.9686V63.4606C32.9787 62.938 32.9379 62.5078 32.8455 62.1696C32.7534 61.8315 32.6304 61.5548 32.4767 61.3396C32.323 61.1244 32.1386 60.9684 31.9234 60.8709C31.7083 60.7736 31.457 60.7249 31.1703 60.7249C30.9142 60.7249 30.6913 60.7583 30.5017 60.8247C30.312 60.8916 30.1507 60.9888 30.0177 61.1168C29.8843 61.245 29.7741 61.4038 29.6872 61.5933C29.6 61.7829 29.5309 62.0082 29.4798 62.2694C29.4284 62.5308 29.3976 62.828 29.3874 63.1609C29.3771 63.494 29.3721 63.8655 29.3721 64.2752V75.3565C29.3721 75.7561 29.3771 76.1226 29.3874 76.4554C29.3976 76.7885 29.4284 77.0856 29.4798 77.3468C29.5309 77.6082 29.6 77.8336 29.6872 78.0232C29.7741 78.2128 29.8843 78.3716 30.0177 78.4996C30.1507 78.6278 30.3148 78.7251 30.5094 78.7916C30.7039 78.8583 30.9245 78.8915 31.1703 78.8915C31.457 78.8915 31.7083 78.843 31.9234 78.7455C32.1386 78.6482 32.323 78.4919 32.4767 78.2767C32.6304 78.0615 32.7534 77.7825 32.8455 77.4391C32.9379 77.0959 32.9787 76.6682 32.9686 76.1558V72.713H36.027V76.0634C36.027 76.996 35.9322 77.8029 35.7428 78.4842C35.553 79.1657 35.2559 79.724 34.8513 80.1594C34.4464 80.5951 33.9392 80.9203 33.3298 81.1354C32.7201 81.3506 32.0053 81.4582 31.1857 81.4582C30.5298 81.4582 29.9535 81.4017 29.4566 81.2891Z" fill="black"/>
<path d="M39.3009 55.8066H38.4863V84.1939H39.3009V55.8066Z" fill="black"/>
<path d="M44.6649 58.5117H49.1835L52.5802 81.1047H49.5216L48.6763 75.0646H45.2182L44.3883 81.1047H41.3145L44.6649 58.5117ZM48.2921 72.3902L46.9703 61.7854H46.9089L45.6025 72.3902H48.2921Z" fill="black"/>
<path d="M55.3908 55.8066H54.5762V84.1939H55.3908V55.8066Z" fill="black"/>
<path d="M60.6493 81.1431C60.0345 80.9331 59.5273 80.6282 59.1278 80.2287C58.728 79.8291 58.4207 79.3295 58.2055 78.7301C57.9903 78.1307 57.8828 77.4417 57.8828 76.6629V73.3278H60.9566V76.6322C60.9566 77.0525 61.0027 77.416 61.095 77.7235C61.1872 78.0309 61.3177 78.2743 61.4869 78.4534C61.6559 78.6329 61.853 78.7685 62.0787 78.8608C62.3038 78.953 62.5447 78.999 62.801 78.999C62.9647 78.999 63.1184 78.989 63.262 78.9683C63.4054 78.9479 63.5463 78.9122 63.6847 78.8608C63.823 78.8096 63.9461 78.7328 64.0536 78.6301C64.1611 78.528 64.2558 78.41 64.338 78.2767C64.4197 78.1436 64.484 77.9847 64.53 77.8003C64.5761 77.6158 64.5992 77.3956 64.5992 77.1394V74.3882C64.5992 73.958 64.5657 73.5968 64.4993 73.3047C64.4326 73.0127 64.3276 72.749 64.1841 72.5133C64.0405 72.2777 63.8562 72.0651 63.6309 71.8754C63.4054 71.6859 63.1391 71.4988 62.8318 71.3143L61.0027 70.254C60.521 69.9672 60.0907 69.6751 59.7117 69.3779C59.3325 69.0808 59.0148 68.7376 58.7588 68.3481C58.5026 67.9588 58.3105 67.508 58.1825 66.9956C58.0542 66.4834 57.9903 65.8636 57.9903 65.1358V62.3541C57.9903 61.9136 58.0339 61.501 58.121 61.1168C58.2079 60.7326 58.3462 60.3868 58.5358 60.0793C58.7255 59.7719 58.9509 59.503 59.2122 59.2725C59.4735 59.042 59.7782 58.8421 60.1267 58.6731C60.4749 58.5041 60.8591 58.376 61.2794 58.2889C61.6993 58.2019 62.1555 58.1582 62.6472 58.1582C63.3951 58.1582 64.0612 58.2453 64.6453 58.4194C65.2294 58.5938 65.7262 58.8705 66.136 59.2495C66.5459 59.6286 66.8508 60.1051 67.0506 60.6787C67.2503 61.2527 67.345 61.934 67.3349 62.7228V66.0581H64.2918V62.769C64.3019 62.3694 64.2611 62.0289 64.1688 61.747C64.0766 61.4653 63.951 61.2373 63.7922 61.0631C63.6333 60.8888 63.4488 60.7686 63.239 60.7019C63.0288 60.6353 62.8111 60.6019 62.5857 60.6019C62.4421 60.6019 62.3038 60.62 62.1708 60.6557C62.0375 60.6918 61.9119 60.7352 61.7943 60.7864C61.6764 60.8378 61.5688 60.9069 61.4715 60.9939C61.374 61.081 61.2895 61.1886 61.2179 61.3166C61.1461 61.4449 61.0923 61.5909 61.0565 61.7547C61.0205 61.9186 61.0027 62.1081 61.0027 62.3233V64.8899C61.0027 65.2691 61.0335 65.5946 61.095 65.8659C61.1564 66.1375 61.2588 66.3808 61.4024 66.596C61.5458 66.8112 61.7175 67.0086 61.9173 67.1877C62.117 67.3671 62.3552 67.5489 62.6319 67.7333L64.4455 68.7631C64.9577 69.0397 65.4112 69.3343 65.8056 69.6468C66.2 69.9595 66.5304 70.313 66.797 70.7074C67.0634 71.1019 67.2707 71.568 67.4194 72.1059C67.5678 72.6438 67.6422 73.287 67.6422 74.0348V77.0626C67.6422 77.5236 67.5962 77.954 67.504 78.3536C67.4117 78.7532 67.2735 79.1144 67.089 79.437C66.9046 79.7599 66.6741 80.0469 66.3974 80.2978C66.1207 80.5489 65.8081 80.7615 65.4598 80.9356C65.1115 81.1097 64.7117 81.2403 64.2611 81.3275C63.81 81.4144 63.3285 81.4582 62.8163 81.4582C61.9863 81.4582 61.264 81.353 60.6493 81.1431Z" fill="black"/>
<path d="M70.8693 55.8066H70.0547V84.1939H70.8693V55.8066Z" fill="black"/>
<path d="M73.8047 58.5117H78.4924C79.0046 58.5117 79.4734 58.5477 79.8987 58.6193C80.3237 58.6911 80.7055 58.8037 81.0437 58.9574C81.3818 59.1111 81.6686 59.3008 81.9043 59.5261C82.1399 59.7516 82.3397 60.0156 82.5038 60.3176C82.6675 60.6199 82.7881 60.953 82.865 61.3166C82.9418 61.6804 82.9803 62.0877 82.9803 62.5385V65.8275C82.9803 66.2786 82.9341 66.7012 82.8419 67.0955C82.7496 67.49 82.6164 67.8282 82.4424 68.1098C82.2679 68.3917 82.0631 68.6402 81.8275 68.8553C81.5917 69.0704 81.3357 69.2499 81.059 69.3933V69.4086C81.4072 69.5111 81.7353 69.6598 82.0427 69.8544C82.35 70.049 82.6114 70.3001 82.8266 70.6075C83.0418 70.9148 83.2055 71.2837 83.3183 71.714C83.4309 72.1444 83.4874 72.6465 83.4874 73.2202V76.6783C83.4874 77.4571 83.3823 78.1283 83.1723 78.6917C82.9622 79.2554 82.6522 79.7114 82.2425 80.0596C81.8325 80.408 81.3178 80.6693 80.6978 80.8434C80.0778 81.0178 79.3631 81.1047 78.5538 81.1047H73.8047V58.5117ZM78.3233 68.302C78.5793 68.302 78.8098 68.2612 79.0149 68.179C79.2198 68.0971 79.3915 67.9792 79.5298 67.8256C79.6682 67.6719 79.768 67.4874 79.8295 67.2722C79.891 67.057 79.9217 66.7907 79.9217 66.4731V62.8304C79.9217 62.5539 79.891 62.3002 79.8295 62.0697C79.768 61.8392 79.6682 61.6497 79.5298 61.5011C79.3915 61.3526 79.2198 61.2423 79.0149 61.1707C78.8098 61.0991 78.5742 61.063 78.3078 61.063H76.8631V68.302H78.3233ZM78.354 78.5534C78.7126 78.5534 79.0173 78.5149 79.2685 78.4382C79.5195 78.3612 79.7192 78.2436 79.8679 78.0846C80.0163 77.9259 80.1239 77.7234 80.1907 77.4775C80.2572 77.2317 80.2906 76.9449 80.2906 76.6168V72.7129C80.2906 72.3954 80.2572 72.1163 80.1907 71.8753C80.1239 71.6348 80.0163 71.4323 79.8679 71.2682C79.7192 71.1046 79.5195 70.984 79.2685 70.907C79.0173 70.8303 78.7177 70.7918 78.3695 70.7918H76.8631V78.5534H78.354Z" fill="black"/>
<path d="M86.7306 55.8066H85.916V84.1939H86.7306V55.8066Z" fill="black"/>
<path d="M89.6641 58.5117H97.8867V61.2474H92.7225V68.302H97.2565V71.0532H92.7225V78.369H97.9481V81.1047H89.6641V58.5117Z" fill="black"/>
<path d="M101.176 55.8066H100.361V84.1939H101.176V55.8066Z" fill="black"/>
<path d="M106.916 81.2891C106.48 81.1762 106.096 81.0048 105.763 80.7742C105.43 80.5437 105.14 80.2543 104.894 79.9058C104.649 79.5576 104.446 79.14 104.287 78.6533C104.128 78.1667 104.013 77.6134 103.942 76.9934C103.87 76.3736 103.834 75.6846 103.834 74.9261V64.7363C103.834 63.5682 103.921 62.5719 104.095 61.747C104.269 60.9223 104.546 60.246 104.925 59.7182C105.304 59.1906 105.819 58.7987 106.47 58.5424C107.12 58.2864 107.922 58.1582 108.875 58.1582C109.418 58.1582 109.915 58.207 110.366 58.3042C110.817 58.4016 111.221 58.5374 111.58 58.7114C111.939 58.8858 112.256 59.1137 112.533 59.3954C112.81 59.6773 113.038 60.0078 113.217 60.3868C113.396 60.766 113.527 61.1913 113.609 61.6623C113.691 62.1339 113.732 62.6614 113.732 63.2454V66.4576H110.673V63.1532C110.673 62.7128 110.63 62.3386 110.543 62.0312C110.456 61.7239 110.333 61.4755 110.174 61.2858C110.015 61.0964 109.825 60.9554 109.605 60.8632C109.385 60.771 109.142 60.7249 108.875 60.7249C108.619 60.7249 108.396 60.7583 108.207 60.8247C108.017 60.8916 107.853 60.9888 107.715 61.1168C107.576 61.245 107.464 61.4011 107.377 61.5855C107.289 61.77 107.223 61.9928 107.177 62.2541C107.131 62.5154 107.097 62.8127 107.077 63.1455C107.056 63.4786 107.046 63.8448 107.046 64.2445V75.3718C107.046 75.7818 107.059 76.1507 107.085 76.4785C107.11 76.8065 107.146 77.1035 107.192 77.3699C107.238 77.6365 107.305 77.8617 107.392 78.0462C107.479 78.2306 107.597 78.3869 107.745 78.5149C107.894 78.6431 108.066 78.7378 108.26 78.7993C108.455 78.8608 108.68 78.8915 108.937 78.8915C109.162 78.8915 109.357 78.8685 109.521 78.8223C109.684 78.7763 109.836 78.7097 109.974 78.6224C110.112 78.5356 110.233 78.4203 110.335 78.2767C110.438 78.1333 110.525 77.9719 110.597 77.7925C110.668 77.6134 110.717 77.4187 110.743 77.2085C110.768 76.9986 110.781 76.7705 110.781 76.5247V71.8215H108.46V69.2395H113.716V81.1046H111.703L111.58 79.6139C111.447 79.8497 111.296 80.0802 111.127 80.3055C110.958 80.5309 110.743 80.7308 110.481 80.9049C110.22 81.0792 109.918 81.2146 109.575 81.3122C109.231 81.4094 108.834 81.4582 108.383 81.4582C107.84 81.4582 107.351 81.4017 106.916 81.2891Z" fill="black"/>
<path d="M117.328 55.8066H116.514V84.1939H117.328V55.8066Z" fill="black"/>
</svg>
