<svg width="89" height="16" viewBox="0 0 89 16" fill="none" xmlns="http://www.w3.org/2000/svg">
<path fill-rule="evenodd" clip-rule="evenodd" d="M9.11895 4.24353V15.0832H5.21849V4.24353H0.894531V0.916504H13.8887V4.24353H9.11895ZM4.79501 15.0832H0.894531V4.67281H4.79501V15.0832Z" fill="#CC3333"/>
<path fill-rule="evenodd" clip-rule="evenodd" d="M67.3969 14.4178H75.7776V13.6879H68.1769V8.15007H75.198V7.3988H68.1769V1.83948H75.7776V1.10969H67.4192V14.4178H67.3969ZM33.7637 0.916504C31.1336 0.916504 28.4813 2.22585 28.4813 4.82307V10.7259C28.4813 13.3231 31.1114 14.6324 33.7637 14.6324C36.3937 14.6324 39.0683 13.3231 39.0683 10.7259V4.82307C39.0461 2.22585 36.3937 0.916504 33.7637 0.916504ZM38.2883 10.7259C38.266 12.8509 36.0148 13.9026 33.7637 13.9026C31.5126 13.9026 29.2392 12.8509 29.2392 10.7259V4.82307C29.2392 2.61221 31.4903 1.66777 33.7414 1.6463C36.0148 1.6463 38.2883 2.59075 38.2883 4.82307V10.7259ZM21.9508 1.68923C23.511 1.68923 25.0935 2.26877 25.8067 3.4064C26.0519 3.29908 26.2079 3.19176 26.4976 3.06297C25.6953 1.60337 23.8676 0.959433 22.0176 0.959433C19.5214 0.959433 16.9805 2.26877 16.9805 4.82307V10.7259C16.9805 13.2801 19.4991 14.5895 21.9731 14.5895C23.8231 14.5895 25.7175 13.9026 26.4976 12.4645C26.2525 12.3571 26.0965 12.2713 25.829 12.1425C25.1158 13.2801 23.511 13.8597 21.9508 13.8597C19.8557 13.8597 17.7383 12.8294 17.7383 10.7259V4.82307C17.716 2.741 19.8557 1.68923 21.9508 1.68923ZM62.9613 13.5163L54.9378 1.10969H53.9793V14.4392H54.7372V2.24731L62.6051 14.4392H63.7197V1.10969H62.9613V13.5163ZM83.69 8.60087C86.2978 8.60087 88.1027 7.72082 88.1027 4.84453C88.0359 2.20438 86.1413 1.08822 83.6677 1.08822H78.6526V14.4178H79.4103V8.60087H82.3527L87.011 14.4392H87.9023C86.4314 12.6362 84.6927 10.3824 83.244 8.60087H83.69ZM79.4103 7.95691V1.83948H83.69C85.8296 1.79656 87.345 2.63368 87.345 4.866C87.345 7.11978 86.119 7.95691 83.69 7.95691H79.4103ZM51.327 4.866C51.2601 2.22585 49.3656 1.10969 46.8916 1.10969H41.8767V14.4392H42.6345V8.60087H45.5766L50.2349 14.4392H51.1264C49.6554 12.6362 47.9169 10.3824 46.4681 8.60087H46.9139C49.5217 8.60087 51.327 7.72082 51.327 4.866ZM42.6345 7.95691V1.83948H46.9139C49.0536 1.79656 50.5692 2.63368 50.5692 4.866C50.5692 7.11978 49.3433 7.95691 46.9139 7.95691H42.6345Z" fill="black"/>
</svg>
