<svg width="140" height="140" viewBox="0 0 140 140" fill="none" xmlns="http://www.w3.org/2000/svg">
<path d="M33.1129 79.7769C33.7795 79.8084 34.4474 79.8044 35.1136 79.7647C36.0117 79.7158 36.8634 79.5611 37.5796 79.0074C37.7666 78.8783 37.9149 78.7002 38.0084 78.4923C38.2061 77.9812 38.2722 77.428 38.2006 76.8842C38.1096 76.07 37.4643 75.4043 36.4548 75.1112C35.7099 74.8907 34.9407 74.7635 34.1647 74.7325C32.7409 74.6539 31.3168 74.8815 29.9873 75.4003C29.255 75.724 28.99 76.4425 28.8868 76.7153C28.7513 77.0258 28.7101 77.3697 28.7684 77.7036C28.8267 78.0376 28.9819 78.3468 29.2145 78.5922C29.7816 79.2173 30.5583 79.6095 31.3953 79.6934C31.9646 79.7522 32.5365 79.7793 33.1088 79.7748L33.1129 79.7769ZM34.2436 84.4792C33.0642 84.5036 26.354 84.7296 22.9716 82.8507C19.7348 81.2751 19.9149 78.1504 20.0686 77.5581C20.8313 72.9839 25.1585 71.5306 26.5422 71.1193C27.3592 70.9072 28.1863 70.7367 29.0203 70.6084C30.4414 70.3566 31.8804 70.2205 33.3232 70.2012C34.8283 70.1564 36.3314 70.1564 37.8365 70.1382C38.241 70.1382 38.0813 69.1509 38.0833 68.8964C38.0833 67.3616 38.1379 66.0343 38.0084 64.5055C37.8932 63.1417 37.968 62.2786 37.8588 60.9147C37.7354 54.5696 38.4555 53.2261 40.8932 59.9905C41.8036 62.4821 42.6491 64.9147 42.7361 65.1346C43.3795 66.7631 43.9034 68.4241 44.4233 70.0873C44.5123 70.3763 45.1698 72.357 45.3458 72.8517C45.8151 74.1606 46.1186 75.5082 46.4908 76.8415C46.7397 77.7371 47.3122 80.5056 46.7821 81.3993C45.1637 84.6318 35.0953 84.4691 34.2498 84.4691" fill="black"/>
<path d="M53.1724 74.5907C51.428 75.2889 48.9994 75.0596 50.0656 72.8546C50.5601 71.8309 51.4885 71.0305 52.4796 70.363C53.7503 69.5072 54.2803 69.2104 54.4576 69.7119C54.4764 69.7652 55.3528 71.3928 55.6239 72.1564C56.3376 73.7637 53.4081 74.4966 53.1724 74.5907ZM73.9723 63.31C73.9306 62.9906 73.8451 62.7367 73.4988 62.6405C73.3465 62.5995 72.8561 62.36 72.4847 62.6179C72.058 62.9321 71.68 63.3052 71.3622 63.7256C70.0767 65.3747 68.9928 67.1661 68.1323 69.0629C67.7338 69.9044 67.2978 70.7316 66.8804 71.5627C66.7865 71.7463 66.677 71.9216 66.5528 72.0868C66.3109 72.4104 66.2483 72.4104 65.9624 72.1012C65.7627 71.8768 65.5917 71.6293 65.4534 71.3641C64.3851 69.3762 63.2918 67.3985 62.3236 65.3676C62.115 64.9478 61.8896 64.5486 61.6705 64.1289C61.6472 64.071 61.6156 64.0165 61.5766 63.9671C61.4181 63.7624 61.0175 63.6273 60.5751 63.7768C60.2434 63.9017 59.3922 64.1862 58.4886 64.5281C57.8001 64.7824 57.132 65.0869 56.4898 65.4392C56.2812 65.5395 55.9328 65.7381 55.697 65.8487C55.6364 65.818 54.8123 64.2313 54.1927 63.6335C53.7315 63.1892 53.2308 62.8493 52.5693 62.792C52.115 62.7495 51.6567 62.7771 51.2111 62.8738C50.099 63.1236 48.9368 63.8115 48.0501 64.5323C46.504 65.7914 48.4673 67.0382 49.4229 66.3851C49.919 66.0283 50.4421 65.7094 50.9878 65.431C51.2226 65.3054 51.4881 65.2455 51.7551 65.2578C52.0222 65.2701 52.2808 65.354 52.5026 65.5006C52.9199 65.7933 53.0993 66.338 53.2475 66.7393C53.3247 66.944 53.3205 67.0341 53.091 67.1487C52.9428 67.2245 51.4364 68.0822 51.1881 68.2809C49.7025 69.2902 47.7016 70.2852 47.0715 73.4627C46.9213 74.2161 46.8253 76.4661 48.7678 77.111C49.9933 77.472 51.2923 77.5206 52.5422 77.2522C53.6063 76.9595 55.4633 76.4681 56.3876 75.8581C56.4293 75.8335 56.471 75.8109 56.5148 75.7905C56.8487 75.6288 56.8988 75.6451 57.0657 75.9604C57.2769 76.3595 57.5234 76.7397 57.8022 77.0967C58.1277 77.5266 58.9957 77.5062 59.317 77.3976C61.1385 76.7835 59.317 73.7125 59.2398 73.5527C58.5846 72.1033 57.604 70.0068 56.8529 68.4877C56.7381 68.2564 57.1158 68.0782 57.4016 67.9185C58.1363 67.4894 58.9256 67.1576 59.7489 66.9317C60.064 66.815 60.1328 66.9173 60.2789 67.1897C60.813 68.1826 61.3806 69.6935 61.8708 70.707C62.6553 72.3325 63.5859 74.2857 64.5102 75.854C64.7636 76.2942 65.0744 76.7003 65.4346 77.0619C65.929 77.5471 66.4632 77.6106 67.1955 77.3444C67.486 77.1769 67.7253 76.9358 67.8882 76.6463C68.2742 75.8274 68.5142 75.4752 68.8375 74.6297C69.0712 74.0154 71.1327 69.4192 71.9965 67.9594C72.7413 66.6942 73.2985 65.3573 73.8743 64.0266C73.9792 63.8005 74.0196 63.5506 73.9911 63.3039" fill="black"/>
<path d="M76.9954 69.8698C76.987 70.2735 76.8704 70.67 76.6547 71.0287C76.4417 71.4058 75.803 71.5962 75.2239 71.4516C75.0084 71.4097 74.8066 71.3268 74.6334 71.2089C74.4602 71.091 74.32 70.9412 74.2231 70.7705C73.8866 70.1004 73.8973 69.4487 74.4871 68.8482C74.6186 68.7122 74.791 68.6099 74.9855 68.5524C75.18 68.4949 75.3892 68.4845 75.59 68.5223C76.3715 68.6249 77.0635 69.1869 76.9954 69.8698Z" fill="black"/>
<path d="M100.828 65.9346C100.416 66.1103 98.7686 66.5996 98.5482 68.2349C98.5482 68.2997 98.5482 68.6384 98.6306 68.6677C98.7645 68.8643 100.109 68.377 100.392 68.306C101.493 68.03 102.657 67.7141 103.763 67.4403C104.102 67.3567 104.435 67.2527 104.762 67.1287C105.032 67.0555 104.832 66.8234 104.789 66.7104C104.115 64.9184 101.108 65.8133 100.828 65.9346ZM94.3652 72.7726C94.3878 72.9148 94.3652 73.2724 94.5114 73.2953C95.4712 73.1072 95.5268 72.7601 95.4835 72.2979C95.4007 71.1332 95.4173 69.9634 95.5329 68.8016C95.8172 66.7104 96.4722 65.1483 98.3958 64.0422C99.7489 63.2664 103.598 62.5031 105.94 64.2388C106.253 64.473 107.186 65.3449 107.781 66.9572C107.978 67.3559 108.077 67.7973 108.068 68.2433C107.934 68.7681 105.32 69.4519 104.381 69.6882C103.242 69.9725 102.095 70.2277 100.97 70.5623C100.519 70.6961 99.7963 70.8634 99.3391 71.014C98.9725 71.106 98.7006 71.152 98.7439 71.7751C98.7953 72.4966 98.8489 74.3786 100.05 74.5939C100.985 74.7633 102.412 74.6421 103.281 74.2406C104.659 73.6014 105.894 72.6819 106.908 71.5389C108.076 70.2444 108.741 70.2591 109.089 70.4389C109.244 70.5233 109.381 70.6381 109.492 70.7767C109.603 70.9152 109.686 71.0747 109.736 71.2461C109.942 71.8337 110.205 73.86 111.661 74.3409C112.227 74.5243 112.807 74.6573 113.396 74.7383C113.881 74.7677 114.369 74.7529 114.852 74.6944C116.5 74.5751 116.782 73.7659 116.65 72.9085C116.508 71.9821 113.177 70.7777 112.119 70.2215C111.476 69.8827 109.336 68.925 109.522 66.8651C109.678 65.1337 110.486 64.3851 111.82 63.6595C112.996 62.9757 116.172 63.143 117.464 63.6783C117.908 63.8623 120.605 64.4876 119.791 66.1626C119.671 66.4093 119.585 66.6247 119.329 66.7397C119.009 66.8941 118.648 66.9402 118.3 66.8715C117.517 66.7083 116.846 66.3111 116.065 66.1395C115.332 65.9785 114.123 65.7987 113.429 66.0914C113.262 66.1626 112.092 66.907 113.414 67.7434C113.527 67.8166 118.003 69.7676 119.057 70.9094C119.63 71.5033 120.052 72.5969 119.995 73.3602C119.944 74.0566 119.842 76.6684 116.868 77.2831C115.468 77.5717 113.429 77.5278 112.269 77.4065C111.187 77.2533 110.151 76.8575 109.237 76.248C108.742 75.8263 108.346 75.2967 108.08 74.6985C107.981 74.4622 107.954 74.4581 107.773 74.6483C107.345 75.1159 106.87 75.5365 106.356 75.903C105.944 76.177 105.499 76.5304 104.066 77.0196C102.534 77.4702 100.925 77.5856 99.3453 77.3584C98.8283 77.2853 97.6337 76.5952 97.2651 76.2523C96.9541 75.9595 96.7193 75.3028 96.2827 75.5789C96.052 75.6583 94.6103 76.4865 93.737 76.888C93.1191 77.1723 92.2644 77.1221 92.1284 76.5429C91.8875 75.719 91.6857 73.8538 91.661 73.3079C91.6074 72.1892 91.1893 68.1889 91.1172 67.3023C90.9627 65.9556 89.8299 65.9639 89.1894 66.0476C88.6004 66.127 86.9239 66.3466 86.4728 67.0597C86.2325 67.4426 86.1098 67.8896 86.1207 68.3436C86.1062 69.9412 86.2628 74.8889 86.3678 76.1875C86.4254 76.8838 86.1475 77.1995 85.4287 77.3731C85.1535 77.4313 84.8735 77.4614 84.5924 77.463C83.853 77.4421 83.5338 77.2079 83.4906 76.5178C83.4247 75.4722 83.503 75.1627 83.4329 74.1256C83.4329 74.0921 83.4432 73.6927 82.6729 74.3932C81.9664 75.054 81.2045 75.6249 80.5021 76.2878C80.1478 76.6213 79.7707 76.9287 79.3735 77.2079C79.116 77.3919 78.8441 77.5509 78.5043 77.417C77.8 77.2455 77.7155 75.7295 77.6805 75.2736C77.5342 73.5567 77.3921 71.8902 77.2686 70.1712C77.1635 68.7828 77.0482 67.3524 77.0029 65.9597C76.9679 64.7218 77.2562 63.7829 77.4148 63.5695C77.7217 63.1681 79.1243 62.7833 79.5794 63.8184C79.6854 64.1731 79.741 64.5414 79.7442 64.9121C79.8513 66.8296 80.1685 72.919 80.362 72.9002C80.6525 72.873 82.467 71.2816 82.9448 70.7588C83.2352 70.4431 83.2372 69.8346 83.231 69.4038C83.2043 67.9652 83.1137 66.38 83.1549 64.9434C83.1651 64.5545 83.1157 64.107 83.1549 63.7117C83.2372 62.8753 84.2897 62.2856 85.3854 62.5742C85.4843 62.5895 85.5758 62.6366 85.6466 62.7084C85.7174 62.7803 85.7637 62.8731 85.7788 62.9736C85.8262 63.2538 85.8674 63.5382 85.9208 63.8101C85.9682 64.0505 86.0877 64.1196 86.3328 64.0443C86.4452 64.003 86.5524 63.9483 86.6521 63.8811C88.8126 62.8168 91.0348 63.0259 92.3262 63.5863C92.6664 63.7332 92.9646 63.9648 93.1932 64.2598C93.4218 64.5548 93.5734 64.9036 93.634 65.2738C93.7988 66.6226 93.8544 67.7539 94.0068 69.18C94.048 69.5669 94.361 72.7203 94.3652 72.7538" fill="black"/>
</svg>
