<svg width="140" height="140" viewBox="0 0 140 140" fill="none" xmlns="http://www.w3.org/2000/svg">
<path d="M73.4509 60.5C71.1814 60.5 69.184 61.6574 68.0029 63.4091C66.828 61.6574 64.8244 60.5 62.5549 60.5C60.8914 60.5 59.3764 61.1251 58.22 62.1526V61.0137H56V76.5H58.22V67.0547C58.22 64.6656 60.1617 62.7221 62.5549 62.7221C64.9481 62.7221 66.8898 64.6656 66.8898 67.0547H66.896V76.5H69.1036V67.0547H69.1098C69.1098 64.6656 71.0515 62.7221 73.4447 62.7221C75.8379 62.7221 77.7796 64.6656 77.7796 67.0547V76.5H79.9996V67.0547C79.9996 63.44 77.0561 60.5 73.4447 60.5" fill="black"/>
<path d="M122 67.0573C122 63.4412 118.863 60.5 115 60.5C113.119 60.5 111.413 61.1997 110.151 62.339V61.0263H108.006V66.9334C108.006 66.9768 108 67.0201 108 67.0635H108.006V76.5H110.151V67.0635H110.157C110.157 64.6734 112.326 62.7291 114.994 62.7291C117.662 62.7291 119.831 64.6734 119.831 67.0635V76.5H121.988V67.0635L122 67.0573Z" fill="black"/>
<path d="M48.493 67.2822H36.5003C37.2511 64.6737 39.6496 62.7586 42.4999 62.7586C45.3501 62.7586 47.7487 64.6737 48.4994 67.2822M50.9743 69.5535C50.987 69.369 50.9997 69.1845 50.9997 69C50.9997 64.311 47.1888 60.5 42.4999 60.5C37.8109 60.5 34 64.311 34 69C34 73.689 37.8109 77.5 42.4999 77.5C46.1836 77.5 49.3201 75.1396 50.4971 71.8503H48.0286C46.9916 73.8608 44.9111 75.2414 42.4999 75.2414C39.2424 75.2414 36.564 72.7347 36.284 69.5535H50.9743Z" fill="black"/>
<path d="M97.9849 64.3657L90.5407 71.8894H91.7412L98.5852 64.9724C99.5134 66.0543 100.083 67.4615 100.083 69C100.083 72.396 97.3599 75.1478 93.9998 75.1478C90.6397 75.1478 87.917 72.396 87.917 69C87.917 65.604 90.6397 62.8522 93.9998 62.8522C95.5283 62.8522 96.9206 63.4276 97.9849 64.3657ZM102.799 59.5L99.5691 62.7646C98.0963 61.42 96.1471 60.5945 93.9998 60.5945C89.4083 60.5945 85.6831 64.3594 85.6831 69C85.6831 71.1639 86.5 73.134 87.8304 74.6287L84 78.5H85.2005L88.4306 75.2354C89.9034 76.58 91.8526 77.4055 93.9998 77.4055C98.5913 77.4055 102.317 73.6406 102.317 69C102.317 66.8298 101.5 64.866 100.169 63.3713L104 59.5H102.799Z" fill="black"/>
<path d="M17 52.5V76.4877H19.2206V71.4823L20.5019 70.2095L26.8588 76.5H30L22.0694 68.6599L29.7014 61.1149H26.5665L19.2206 68.377V52.5H17Z" fill="black"/>
<path d="M19.2788 87.5H19.7143V84.8146H21V84.5H18V84.8146H19.2788V87.5Z" fill="black"/>
<path d="M25.4551 84.413C25.4551 84.7989 25.0678 85.0326 24.523 85.0326H23.407V83.8152H24.523C25.1072 83.8152 25.4486 84.038 25.4486 84.4076V84.4185L25.4551 84.413ZM25.8687 84.4022V84.3913C25.8687 84.1576 25.7637 83.9456 25.5864 83.7989C25.3567 83.6087 25.0022 83.5 24.5558 83.5H23V86.5H23.407V85.3315H24.4442L25.4945 86.5H26L24.884 85.2717C25.4551 85.1848 25.8687 84.8967 25.8687 84.3967" fill="black"/>
<path d="M29.5 86.5C30.4 86.5 31 86.0516 31 85.1922V83.5H30.5957V85.2135C30.5957 85.8594 30.1717 86.1851 29.5065 86.1851C28.8413 86.1851 28.4043 85.8274 28.4043 85.1922V83.5H28V85.2135C28 86.0463 28.6065 86.4947 29.5 86.4947" fill="black"/>
<path d="M33 87.5H35V87.1908H33.3077V86.1438H34.8015V85.8345H33.3077V84.8092H34.9801V84.5H33V87.5Z" fill="black"/>
<path d="M46.3415 87.5H46.6528L48 84.5H47.6208L46.5 87.0637L45.3906 84.5H45L46.3415 87.5Z" fill="black"/>
<path d="M50.3841 84.5H50V87.5H50.3841V84.5Z" fill="black"/>
<path d="M54.6304 87.493C55.4275 87.493 56 87.0641 56 86.3963V86.3823C56 85.7917 55.587 85.4754 54.6956 85.2856C53.8116 85.1028 53.6087 84.8989 53.6087 84.5334V84.5193C53.6087 84.1678 53.942 83.8937 54.4638 83.8937C54.8768 83.8937 55.2464 84.0202 55.6159 84.3155L55.8768 83.978C55.471 83.6617 55.0507 83.5 54.471 83.5C53.7101 83.5 53.1594 83.9499 53.1594 84.5615V84.5756C53.1594 85.2153 53.5797 85.5035 54.5 85.6933C55.3406 85.862 55.5435 86.0729 55.5435 86.4315V86.4455C55.5435 86.8251 55.1884 87.1063 54.6522 87.1063C54.1159 87.1063 53.6957 86.9236 53.2826 86.558L53 86.8814C53.4783 87.2961 54 87.5 54.6377 87.5" fill="black"/>
<path d="M58.3841 84.5H58V87.5H58.3841V84.5Z" fill="black"/>
<path d="M63.6489 85.514C63.6489 86.3951 63.1702 87.1014 62.5 87.1014C61.8298 87.1014 61.3404 86.3811 61.3404 85.507V85.493C61.3404 84.6119 61.8192 83.9056 62.4894 83.9056C63.1596 83.9056 63.6489 84.6259 63.6489 85.5V85.514ZM63.9947 85.5V85.486C63.9947 84.4231 63.3936 83.5 62.5 83.5C61.6064 83.5 61 84.4301 61 85.5V85.514C61 86.5769 61.6011 87.5 62.4947 87.5C63.3883 87.5 64 86.5699 64 85.5" fill="black"/>
<path d="M67 87.5H67.3854V85.0425L69.6788 87.5H70V84.5H69.6081V86.9033L67.3726 84.5H67V87.5Z" fill="black"/>
<path d="M74.1673 85.4101H72.8221L73.4947 83.8885L74.1673 85.4101ZM75 86.5L73.6548 83.5H73.3452L72 86.5H72.3416L72.6886 85.7122H74.2954L74.6423 86.5H75Z" fill="black"/>
<path d="M80.4617 85.413C80.4617 85.7989 80.0744 86.0326 79.5295 86.0326H78.4136V84.8152H79.5295C80.1138 84.8152 80.4551 85.038 80.4551 85.4076V85.4185L80.4617 85.413ZM80.8753 85.4022V85.3913C80.8753 85.1576 80.7702 84.9456 80.593 84.7989C80.3632 84.6087 80.0088 84.5 79.5624 84.5H78V87.5H78.407V86.3315H79.4442L80.4945 87.5H81L79.884 86.2717C80.4551 86.1848 80.8687 85.8967 80.8687 85.3967" fill="black"/>
<path d="M83.3218 87.5H83.6839V86.3065L85 84.5H84.5862L83.5058 86.0027L82.4368 84.5H82L83.3218 86.3119V87.5Z" fill="black"/>
<path d="M96.582 86.663C96.582 87 96.2315 87.2011 95.6652 87.2011H94.4112V86.1413H95.591C96.2382 86.1413 96.582 86.3315 96.582 86.6576V86.6685V86.663ZM95.5169 85.8424H94.4112V84.8098H95.5438C96.0764 84.8098 96.3663 85.0054 96.3663 85.2989V85.3098C96.3663 85.663 96.0157 85.8478 95.5101 85.8478M96.2045 85.9565C96.4944 85.8533 96.7978 85.6522 96.7978 85.2609V85.25C96.7978 85.0543 96.7101 84.8967 96.5618 84.7663C96.3461 84.5978 96.0157 84.5 95.5843 84.5H94V87.5H95.6517C96.4674 87.5 97 87.1957 97 86.6793V86.6685C97 86.2554 96.6427 86.0489 96.2045 85.9457" fill="black"/>
<path d="M100 87.5H102V87.1908H100.308V86.1438H101.806V85.8345H100.308V84.8092H101.98V84.5H100V87.5Z" fill="black"/>
<path d="M106.167 85.4101H104.822L105.495 83.8885L106.167 85.4101ZM107 86.5L105.655 83.5H105.345L104 86.5H104.342L104.689 85.7122H106.295L106.642 86.5H107Z" fill="black"/>
<path d="M111.5 86.5C112.4 86.5 113 86.0516 113 85.1922V83.5H112.596V85.2135C112.596 85.8594 112.172 86.1851 111.507 86.1851C110.841 86.1851 110.404 85.8274 110.404 85.1922V83.5H110V85.2135C110 86.0463 110.607 86.4947 111.5 86.4947" fill="black"/>
<path d="M116.279 87.5H116.714V84.8146H118V84.5H115V84.8146H116.279V87.5Z" fill="black"/>
<path d="M121.316 87.5H121.678V86.3065L123 84.5H122.58L121.506 86.0027L120.431 84.5H120L121.316 86.3119V87.5Z" fill="black"/>
<path d="M40.4409 85.5H40V85.9416H40.4409V85.5Z" fill="black"/>
<path d="M89.7339 85.4844H89.293V85.926H89.7339V85.4844Z" fill="black"/>
</svg>
