<svg viewBox="0 0 107 28" fill="none" xmlns="http://www.w3.org/2000/svg">
<path d="M51.6829 5.16211V9.31783H45.2832V27.7518H40.0084V9.31812H33.6094V5.16211H51.6829Z" fill="white"/>
<path d="M59.1459 19.3952V27.7518H53.8711V5.16211H61.2675C62.9118 5.16211 64.3132 5.33044 65.4746 5.66654C66.6339 6.00235 67.5808 6.47023 68.3149 7.06962C69.0498 7.66872 69.5811 8.3763 69.9154 9.19352C70.2474 10.0093 70.4133 10.899 70.4133 11.8604C70.4133 12.595 70.3148 13.2862 70.1176 13.9374C69.92 14.5886 69.6257 15.1911 69.2361 15.7439C68.845 16.297 68.3659 16.7902 67.8001 17.2244C67.2321 17.6603 66.5797 18.0157 65.8396 18.294C66.1944 18.4707 66.5241 18.6888 66.8314 18.9457C67.1385 19.2047 67.405 19.5201 67.6359 19.8922L72.4744 27.753H67.6976C66.8132 27.753 66.1802 27.4221 65.795 26.7611L62.0172 20.2029C61.8504 19.9123 61.654 19.7063 61.4318 19.5825C61.2084 19.4594 60.8944 19.3966 60.4874 19.3966H59.1456L59.1459 19.3952ZM59.1459 15.7839H61.2675C61.9859 15.7839 62.596 15.6936 63.1018 15.5126C63.6064 15.3307 64.0212 15.0812 64.3419 14.7607C64.6649 14.4404 64.8998 14.0652 65.0453 13.6367C65.1907 13.2077 65.2648 12.7444 65.2648 12.2489C65.2648 11.2567 64.9389 10.4806 64.2877 9.92326C63.6391 9.36473 62.6316 9.08561 61.2675 9.08561H59.1459V15.7839Z" fill="white"/>
<path d="M89.2697 5.16211V9.19381H79.9335V14.4646H87.0829V18.3415H79.9335V23.7204H89.2697V27.7527H74.6289V5.1624L89.2697 5.16211Z" fill="white"/>
<path d="M106.906 5.16211V9.19381H97.5714V14.4646H104.721V18.3415H97.5714V23.7204H106.906V27.7527H92.2656V5.1624L106.906 5.16211Z" fill="white"/>
<path d="M32.7297 11.9074C32.1626 10.5018 31.3651 9.28197 30.3338 8.24894C29.304 7.21533 28.0633 6.40157 26.6108 5.80621C25.1598 5.21114 23.55 4.91504 21.7807 4.91504C20.0119 4.91504 18.4004 5.20883 16.943 5.79815C15.4856 6.38747 14.2391 7.19835 13.2044 8.23196C12.8281 8.60805 12.2558 9.22116 11.9415 9.6453L15.3456 15.4809C15.4186 14.9716 15.6397 13.8869 15.7872 13.434C16.0792 12.5408 16.4969 11.7831 17.0444 11.1627C17.5913 10.5423 18.2616 10.0678 19.0571 9.73604C19.8528 9.40513 20.7604 9.23967 21.7804 9.23967C22.7882 9.23967 23.6897 9.40484 24.4811 9.73604C25.271 10.0672 25.9402 10.5423 26.486 11.1627C27.0329 11.7825 27.4515 12.5405 27.7426 13.434C28.0334 14.3286 28.1797 15.3334 28.1797 16.4493C28.1797 17.5761 28.0334 18.5862 27.7426 19.4796C27.4515 20.374 27.0329 21.131 26.486 21.7517C25.9402 22.371 25.271 22.8443 24.4811 23.1703C23.6897 23.4967 22.7882 23.6592 21.7804 23.6592C20.7604 23.6592 19.8526 23.4967 19.0571 23.1703C18.2616 22.8443 17.591 22.3715 17.0444 21.7517C16.4969 21.1313 16.0792 20.3737 15.7872 19.4796C15.4963 18.5862 15.3497 17.5761 15.3497 16.4493C15.3497 16.2398 15.3396 15.682 15.3497 15.4809L11.4559 15.8378H10.4851H9.97587C9.96544 16.0413 9.94922 16.2418 9.94922 16.4493C9.94922 18.0837 10.2331 19.6028 10.7986 21.0073C11.3678 22.4136 12.1682 23.6359 13.2038 24.6744C14.2385 25.7126 15.485 26.5264 16.9424 27.1154C18.3998 27.7047 20.0113 28 21.7801 28C23.5492 28 25.1595 27.7053 26.6108 27.1154C28.0633 26.5258 29.3037 25.7126 30.3341 24.6744C31.3651 23.6359 32.1626 22.4136 32.7297 21.0073C33.2969 19.6028 33.5808 18.0837 33.5808 16.4493C33.5808 14.8272 33.2969 13.3137 32.7297 11.9074Z" fill="white"/>
<path d="M0 4.2207C4.03417 1.89157 9.19294 3.28154 11.5109 7.32217L15.9385 15.0406C11.9438 17.377 6.81065 16.0171 4.49671 12.0092L0 4.2207Z" fill="url(#paint0_linear_1238_6956)"/>
<defs>
<linearGradient id="paint0_linear_1238_6956" x1="3.65524" y1="2.11035" x2="12.3486" y2="17.1678" gradientUnits="userSpaceOnUse">
<stop stop-color="#3AFF5A"/>
<stop offset="1" stop-color="#4FC0FF"/>
</linearGradient>
</defs>
</svg>
