<?xml version="1.0" encoding="UTF-8" standalone="no"?>
<!-- Created with Inkscape (http://www.inkscape.org/) -->

<svg
   xmlns:dc="http://purl.org/dc/elements/1.1/"
   xmlns:cc="http://creativecommons.org/ns#"
   xmlns:rdf="http://www.w3.org/1999/02/22-rdf-syntax-ns#"
   xmlns:svg="http://www.w3.org/2000/svg"
   xmlns="http://www.w3.org/2000/svg"
   xmlns:sodipodi="http://sodipodi.sourceforge.net/DTD/sodipodi-0.dtd"
   xmlns:inkscape="http://www.inkscape.org/namespaces/inkscape"
   width="102.50562mm"
   height="25.321369mm"
   viewBox="0 0 109.50562 42.321369"
   version="1.1"
   id="svg11537"
   inkscape:version="0.92.0 r15299"
   sodipodi:docname="sig plc.svg">
  <defs
     id="defs11531">
	

		
	</defs>
  <sodipodi:namedview
     id="base"
     pagecolor="#ffffff"
     bordercolor="#666666"
     borderopacity="1.0"
     inkscape:pageopacity="0.0"
     inkscape:pageshadow="2"
     inkscape:zoom="2.1872714"
     inkscape:cx="205.05"
     inkscape:cy="78.087598"
     inkscape:document-units="mm"
     inkscape:current-layer="layer1"
     showgrid="false"
     fit-margin-top="0"
     fit-margin-left="0"
     fit-margin-right="0"
     fit-margin-bottom="0"
     inkscape:window-width="1280"
     inkscape:window-height="744"
     inkscape:window-x="-4"
     inkscape:window-y="-4"
     inkscape:window-maximized="1" />
  <metadata
     id="metadata11534">
    <rdf:RDF>
      <cc:Work
         rdf:about="">
        <dc:format>image/svg+xml</dc:format>
        <dc:type
           rdf:resource="http://purl.org/dc/dcmitype/StillImage" />
        <dc:title></dc:title>
      </cc:Work>
    </rdf:RDF>
  </metadata>
  <g
     inkscape:label="Layer 1"
     inkscape:groupmode="layer"
     id="layer1"
     transform="translate(50.47305,-319.9405)">
    <path
       id="path11541"
       d="m 58.532573,320.44051 c -0.502708,2.75167 -1.11125,5.42396 -1.640417,8.12271 -0.661458,0 -1.322916,0 -1.957916,0 0.396875,-2.24896 0.238125,-4.97417 -1.534584,-5.52979 -0.978958,-0.3175 -2.804583,-0.0529 -3.995208,0.0529 -3.783542,0.34396 -7.487708,1.16417 -10.212916,2.2225 -3.862917,1.50813 -6.985,4.31271 -9.2075,7.35542 -2.169584,2.96333 -4.339167,6.93208 -5.212292,11.37708 -0.926042,4.78896 -0.714375,10.60979 1.957917,13.59959 1.42875,1.5875 4.339166,1.98437 6.614583,0.9525 3.466042,-1.5875 6.482292,-6.56167 7.487708,-11.16542 0.502709,-2.27542 0.661459,-5.26521 -0.502708,-6.85271 -1.349375,-1.87854 -4.656667,-1.32292 -7.990417,-1.53458 0.264584,-0.68792 0.47625,-1.40229 0.820209,-1.95792 8.360833,0 16.536458,0.13229 24.897291,0.13229 -3.942292,10.31875 -9.895417,19.42042 -20.6375,23.12459 -5.423958,1.85208 -13.837708,1.95791 -18.997083,-0.0529 -5.265208,-2.06375 -8.9958327,-5.66208 -9.1545827,-12.7 -1.3758333,4.55083 -2.6458333,9.2075 -3.9952083,13.78479 -5.29166653,0 -10.5833332,0 -15.875,0 0.6350004,-2.16958 1.4022919,-4.18042 2.0902085,-6.29708 -0.238125,-0.10584 -0.47625,0.34396 -0.6879166,0.58208 -2.6193749,2.61938 -7.0643749,4.25979 -11.5622919,5.08 -1.719792,0.3175 -3.571875,0.37042 -5.529792,0.50271 -7.514166,0.55562 -16.033749,0.0265 -23.680208,0 0.846667,-3.94229 1.878542,-7.69938 2.725209,-11.61521 0.502708,0.13229 1.217083,0.0529 1.852083,0.0529 -0.608542,3.41312 -0.555625,7.9375 1.852083,9.2075 1.11125,0.58208 3.148542,0.68791 5.027084,0.76729 1.878541,0.0794 3.730624,-0.0794 5.450416,-0.26458 4.92125,-0.50271 9.154583,-1.34938 9.154583,-6.53521 0,-1.11125 -1.27,-2.72521 -2.090208,-3.62479 -0.9525,-1.00542 -2.037292,-1.82563 -2.989792,-2.54 -3.360208,-2.51355 -6.19125,-4.81542 -9.313333,-7.46125 -0.978958,-0.84667 -2.090208,-1.5875 -2.989791,-2.54 -1.613959,-1.74625 -3.518959,-4.7625 -2.407709,-8.0698 1.322917,-3.94229 5.715,-6.00604 10.424583,-6.72041 4.92125,-0.76729 10.212917,-1.27 15.875,-1.27 11.5887505,0 22.516042,0.10583 34.025416,0.18521 -1.375833,4.81541 -2.672291,9.7102 -4.074583,14.55208 3.836458,-6.13833 10.027708,-10.13354 17.965208,-12.43542 7.963959,-2.32833 17.727083,-2.38125 28.019375,-2.48708 z m -59.37249887,5.58271 c -0.34395833,0.71437 -0.63500003,2.09021 -0.63500003,2.91041 0.052917,4.39209 4.0216666,7.09084 7.9904166,6.7998 4.0481243,-0.3175 8.1756243,-4.68313 6.0324993,-9.525 -1.137708,-2.56646 -3.942291,-4.55084 -7.672916,-4.1275 -2.8839583,0.34395 -4.8683332,2.14312 -5.71499987,3.94229 z m -2.30187503,11.87979 c 0.8202084,-4.47146 0.6085417,-9.2075 -1.8520833,-12.01208 -3.1749999,-3.59834 -12.6206248,-3.88938 -17.9122918,-2.09021 -2.460625,0.82021 -5.318125,2.56646 -3.757083,5.84729 1.058333,2.2225 2.778125,3.28083 4.577291,4.57729 2.354792,1.69333 4.736042,3.33375 6.985,5.13292 3.518959,2.83104 7.1437505,5.42396 8.5725005,9.8425 1.2964583,-3.54542 2.6458333,-7.27604 3.3866666,-11.29771 z"
       class="st0"
       inkscape:connector-curvature="0"
       style="clip-rule:evenodd;fill:#b30839;fill-rule:evenodd;stroke-width:0.26458332" />
  </g>
  <style
     id="style11539"
     type="text/css">
	.st0{fill-rule:evenodd;clip-rule:evenodd;fill:#B30839;}
</style>
</svg>
