<svg width="14" height="16" viewBox="0 0 14 16" fill="none" xmlns="http://www.w3.org/2000/svg">
<g id="calendar" clip-path="url(#clip0_1142_3386)">
<path id="Vector" d="M12 2H11V0.471875C11 0.223844 10.775 0 10.5 0C10.225 0 10 0.223844 10 0.471875V2H4V0.471875C4 0.223844 3.775 0 3.5 0C3.225 0 3 0.223844 3 0.471875V2H2C0.895313 2 0 2.89531 0 4V14C0 15.1047 0.895313 16 2 16H12C13.1047 16 14 15.1047 14 14V4C14 2.89531 13.1031 2 12 2ZM2 3H12C12.5522 3 13 3.44781 13 4V5H1V4C1 3.44688 1.44781 3 2 3ZM12 15H2C1.44781 15 1 14.5522 1 14V6H13V14C13 14.5531 12.5531 15 12 15Z" fill="#252525"/>
</g>
<defs>
<clipPath id="clip0_1142_3386">
<rect width="14" height="16" fill="white"/>
</clipPath>
</defs>
</svg>
