<svg width="31" height="56" viewBox="0 0 31 56" fill="none" xmlns="http://www.w3.org/2000/svg">
<g id="Frame 5464">
<path id="Vector" d="M12.9414 1.75289C12.9414 1.75289 12.3878 2.73334 12.2795 3.18448C12.135 3.78601 11.9906 4.38754 11.8461 4.98906C11.5572 6.19212 11.2321 7.54556 10.9432 8.74861C10.3654 11.1547 9.75144 13.7112 9.62474 16.2257C9.44417 16.9776 9.45009 17.6152 9.4199 18.4032C9.34767 18.704 9.23933 19.1552 9.1671 19.4559C9.09487 19.7567 9.02264 20.0574 9.28728 20.2801L9.58805 20.3523C9.99716 19.9734 9.87697 19.1492 9.98531 18.6981C10.1298 18.0966 10.1238 17.4589 10.1179 16.8213C10.4068 15.6182 10.395 14.3429 10.6839 13.1399C11.1114 10.6977 11.6892 8.29154 12.4535 5.77117C12.598 5.16964 12.7786 4.41773 12.923 3.8162C13.0675 3.21467 13.3985 2.49888 13.3564 2.01162C13.3564 2.01162 13.3564 2.01162 13.206 1.97551L12.9414 1.75289Z" fill="#252525"/>
<path id="Vector_2" d="M28.8644 7.16436C28.8644 7.16436 29.0089 6.56284 29.2315 6.29819C29.6406 5.91927 28.9609 5.43793 28.7022 5.85296C28.4074 6.41838 28.2268 7.17028 27.932 7.7357C27.7875 8.33722 27.643 8.93875 27.3121 9.65455C26.9871 11.008 26.5478 12.1749 26.0723 13.4922C25.7473 14.8457 25.4584 16.0487 25.1334 17.4022C24.9889 18.0037 24.8444 18.6052 24.6639 19.3571C24.5194 19.9587 24.3388 20.7106 24.1944 21.3121C24.086 21.7633 25.0244 21.8296 25.0967 21.5288C25.2411 20.9273 25.3856 20.3257 25.5661 19.5738C25.7106 18.9723 25.8551 18.3708 26.0356 17.6189C26.3607 16.2654 26.6496 15.0624 26.9746 13.7089C27.2635 12.5059 27.5886 11.1524 28.0279 9.9855C28.1723 9.38398 28.3168 8.78245 28.4974 8.03054C28.6418 7.42901 28.9728 6.71322 29.1173 6.11169C28.9669 6.07557 28.6661 6.00334 28.4796 6.11761C28.5578 6.45449 28.4855 6.75525 28.4133 7.05602L28.5637 7.09213L28.8644 7.16436Z" fill="#252525"/>
<path id="Vector_3" d="M13.4289 3.77524C13.4289 3.77524 13.4289 3.77524 13.7296 3.84747C14.0304 3.9197 14.3312 3.99193 14.6319 4.06416C15.2335 4.20862 15.9854 4.38919 16.5869 4.53365C17.9403 4.85869 19.2938 5.18372 20.4968 5.47264C21.8503 5.79767 23.2037 6.12271 24.479 6.11086C25.0805 6.25532 25.8685 6.28551 26.5062 6.27959C27.1077 6.42405 27.8957 6.45424 28.5695 6.29794C28.8703 6.37017 29.0147 5.76864 28.714 5.69641C28.1124 5.55195 27.3244 5.52176 26.6868 5.52768C25.9348 5.34711 25.2972 5.35303 24.5092 5.32284C23.1557 4.9978 21.7301 4.97353 20.3766 4.6485C19.0232 4.32347 17.6698 3.99843 16.3163 3.6734C15.7148 3.52894 14.9629 3.34836 14.3614 3.2039C13.9102 3.09556 13.3087 2.9511 13.05 3.36613L12.9777 3.66689C12.9777 3.66689 13.6935 3.99785 13.5793 3.81135L13.4289 3.77524Z" fill="#252525"/>
<path id="Vector_4" d="M13.1582 2.90875C16.0096 2.95729 18.8248 3.15621 21.5316 3.80628C22.8851 4.13131 24.2385 4.45635 25.592 4.78138C26.1935 4.92584 26.9454 5.10642 27.5108 5.40126C28.1123 5.54572 28.792 6.02705 29.4658 5.87075L29.538 5.56999C29.1952 5.0105 28.4433 4.82992 27.8418 4.68546C27.0899 4.50489 26.5244 4.21004 25.7725 4.02947C24.4191 3.70444 23.0657 3.3794 21.5618 3.01825C18.855 2.36819 15.8894 2.13315 13.0019 2.23499C12.7012 2.16276 12.7071 2.80041 12.8575 2.83652L13.1582 2.90875Z" fill="#252525"/>
<path id="Vector_5" d="M9.45052 20.3029L9.67905 20.6759C9.67905 20.6759 9.82943 20.712 9.9437 20.8985C10.0941 20.9346 10.1722 21.2715 10.473 21.3437C10.7015 21.7167 11.0805 22.1258 11.309 22.4988C11.7661 23.2448 12.187 24.1412 12.4576 25.0014C12.65 25.5248 13.3599 25.2181 13.1674 24.6948C12.7406 23.1607 11.7903 21.8191 10.804 20.6279C10.5754 20.2549 9.70332 19.2502 9.22199 19.9299C8.99937 20.1946 9.34217 20.7541 9.56479 20.4894L9.45052 20.3029Z" fill="#252525"/>
<path id="Vector_6" d="M24.3336 21.3421C23.1365 21.6908 22.1318 22.5629 21.0489 23.0981C20.1164 23.6694 19.184 24.2408 18.4019 24.8482C17.6198 25.4557 16.9519 26.2496 16.7352 27.1519C16.6269 27.6031 16.4824 28.2046 16.5245 28.6919C16.4161 29.143 16.3078 29.5942 16.1994 30.0453C16.1272 30.3461 16.3557 30.7191 16.5422 30.6048C17.5529 30.3703 17.4268 28.9085 17.6073 28.1566C17.7098 27.0678 18.2272 26.2378 19.0093 25.6303C19.8275 24.8725 20.76 24.3012 21.6564 23.8802C22.7754 23.1946 23.8582 22.6594 24.8268 21.9377C24.8629 21.7873 24.9352 21.4865 24.5983 21.5647L24.3336 21.3421Z" fill="#252525"/>
<path id="Vector_7" d="M13.5003 24.782C13.5003 24.782 13.4281 25.0828 13.3558 25.3836C13.3197 25.5339 13.2475 25.8347 13.2114 25.9851C13.1392 26.2859 13.0308 26.737 12.9586 27.0378C12.8864 27.3385 12.778 27.7897 12.7058 28.0904C12.6336 28.3912 12.5252 28.8424 12.453 29.1431C12.3807 29.4439 12.9462 29.7387 13.2049 29.3237C13.4275 29.059 13.3855 28.5718 13.4577 28.271C13.566 27.8199 13.6383 27.5191 13.7466 27.068C13.855 26.6168 13.9272 26.316 14.0355 25.8649C14.0716 25.7145 14.1078 25.5641 14.1439 25.4138C14.2161 25.113 14.2522 24.9626 14.138 24.7761C14.2102 24.4753 13.7229 24.5174 13.6868 24.6678L13.5003 24.782Z" fill="#252525"/>
<path id="Vector_8" d="M12.5526 29.6938C12.5526 29.6938 13.0061 29.8049 13.0769 29.5041C13.1478 29.2033 12.8455 29.1293 12.6943 29.0923C12.392 29.0182 12.3566 29.1686 12.17 29.282C11.9834 29.3954 11.7614 29.6591 11.5749 29.7725C11.1663 30.1496 10.7578 30.5267 10.1626 31.0172C9.34551 31.7714 8.49298 32.676 7.52471 33.3932C7.11615 33.7703 6.67218 34.2978 6.26362 34.6749C5.85506 35.052 5.29535 35.3921 5.15368 35.9937C5.08285 36.2944 5.34975 36.5188 5.53632 36.4055C5.87404 36.3291 6.2826 35.952 6.50459 35.6883C6.87773 35.4615 7.13513 35.0474 7.50827 34.8207C8.13882 34.1798 8.76937 33.539 9.3645 33.0485C9.99504 32.4076 10.5902 31.9172 11.2207 31.2763L12.2244 30.4087C12.2244 30.4087 12.8195 29.9182 12.8904 29.6175L12.7392 29.5804C12.5881 29.5434 12.3661 29.8072 12.6684 29.8812L12.5526 29.6938Z" fill="#252525"/>
<path id="Vector_9" d="M17.1958 31.0814C17.1958 31.0814 17.1538 30.5941 17.3403 30.4798C17.1899 30.4437 16.8891 30.3715 16.7387 30.3354C17.2017 31.719 17.779 33.2891 18.5789 34.5946C18.8855 35.3045 19.3787 35.9001 19.6854 36.61C19.914 36.983 20.1425 37.356 20.4071 37.5786C20.6357 37.9516 20.7499 38.1381 21.2011 38.2464C21.3515 38.2825 21.538 38.1682 21.6102 37.8675C21.7185 37.4163 21.4539 37.1937 21.1892 36.9711C20.9607 36.5981 20.8464 36.4116 20.6179 36.0386C20.1247 35.443 19.818 34.7332 19.4752 34.1737C18.6754 32.8682 18.062 31.4484 17.4486 30.0287C17.1419 29.3188 16.3237 30.0767 16.853 30.5219C17.0034 30.558 17.0815 30.8949 17.1958 31.0814Z" fill="#252525"/>
<path id="Vector_10" d="M5.5127 37.0325C5.5127 37.0325 5.76642 36.6175 5.98472 36.3529C5.68978 36.2806 5.54231 36.2445 5.24736 36.1723C4.75154 38.2776 4.40319 40.4191 4.05483 42.5606C3.80692 43.6132 3.55901 44.6659 3.3111 45.7186C3.16944 46.3201 3.06319 46.7713 2.92152 47.3728C2.77986 47.9743 2.67361 48.4255 2.53195 49.027C2.46112 49.3278 2.57317 49.5142 2.86812 49.5865C3.01559 49.6226 3.31053 49.6948 3.38136 49.3941C3.48761 48.9429 3.62927 48.3414 3.77094 47.7399C3.9126 47.1383 4.01885 46.6872 4.16051 46.0857C4.40842 45.033 4.65634 43.9803 4.90425 42.9276C5.40007 40.8223 5.74842 38.6808 5.98472 36.3529C6.12638 35.7513 5.20614 35.685 5.24736 36.1723C5.17653 36.4731 5.43606 36.6957 5.36522 36.9964C5.36522 36.9964 5.36522 36.9964 5.5127 37.0325Z" fill="#252525"/>
<path id="Vector_11" d="M20.8903 39.1278C20.8903 39.1278 21.4048 38.6152 21.7237 38.3736C21.6004 38.344 21.3898 38.1344 21.3026 37.9544C21.1581 38.5559 21.0498 39.0071 20.9053 39.6086C20.7609 40.2101 20.6525 40.6613 20.5081 41.2628C20.2553 42.3155 20.0024 43.3681 19.7135 44.5712C19.4607 45.6239 19.2079 46.6766 18.919 47.8796C18.8107 48.3308 18.6662 48.9323 18.5579 49.3834C18.4134 49.985 18.2689 50.5865 18.1606 51.0376C18.0522 51.4888 18.7923 51.6665 18.9006 51.2153C19.009 50.7642 19.1534 50.1627 19.2979 49.5611C19.4423 48.9596 19.5507 48.5085 19.6951 47.9069C19.9479 46.8543 20.2369 45.6512 20.4897 44.5985C20.7425 43.5459 20.9953 42.4932 21.2842 41.2901C21.4287 40.6886 21.537 40.2375 21.6815 39.6359C21.8259 39.0344 21.9343 38.5833 22.0787 37.9817C22.151 37.681 21.6576 37.5625 21.462 37.8336C21.3898 38.1344 21.1581 38.5559 20.9626 38.8271C20.9264 38.9775 20.8903 39.1278 21.2092 38.8863L20.8903 39.1278Z" fill="#252525"/>
<path id="Vector_12" d="M3.91049 49.5147C3.91049 49.5147 3.53157 49.1056 3.30896 49.3702C2.89985 49.7491 3.6938 50.417 4.14494 50.5253C5.35392 51.4519 6.78551 52.1138 8.10284 52.5892C9.57054 53.1007 11.1105 53.3115 12.4639 53.6365C13.7031 53.7751 14.9784 53.7632 16.3259 53.4506C16.9996 53.2943 17.5591 52.9515 18.1186 52.6087C18.5277 52.2298 19.3098 51.6224 18.967 51.0629C18.967 51.0629 18.7024 50.8403 18.5159 50.9545C18.179 51.0327 17.8842 51.5981 17.6615 51.8627C17.4389 52.1274 16.9156 52.3198 16.5426 52.5483C15.6462 52.9693 14.6717 53.0534 13.8837 53.0232C11.4835 53.083 9.22774 52.5413 7.08035 51.5484C6.47883 51.4039 5.94953 50.9587 5.23373 50.6277C4.93297 50.5555 4.66832 50.3329 4.40367 50.1103C4.25329 50.0742 4.10291 50.0381 3.98864 49.8516C3.98864 49.8516 3.42323 49.5567 3.38711 49.7071C3.351 49.8575 3.68788 49.7793 3.68788 49.7793L3.91049 49.5147Z" fill="#252525"/>
<path id="Vector_13" d="M5.38131 46.0579C5.38131 46.0579 5.0024 45.6488 4.88813 45.4623L4.58737 45.39C4.47902 45.8412 5.1587 46.3225 5.42335 46.5451C5.80227 46.9542 6.2173 47.213 6.78271 47.5078C7.76316 48.0614 8.7436 48.6149 9.79627 48.8677C11.9016 49.3734 14.2296 49.6143 16.4373 49.0311C17.2976 48.7606 19.3189 48.2916 18.9701 47.0945C19.0063 46.9441 18.7055 46.8719 18.519 46.9862C18.146 47.2147 17.8873 47.6297 17.5143 47.8583C17.1413 48.0868 16.6179 48.2792 16.1307 48.3213C15.12 48.5557 14.1455 48.6398 13.2071 48.5735C11.1438 48.5551 9.22494 47.9353 7.41443 46.8642C6.84902 46.5694 6.43399 46.3107 5.90469 45.8655C5.60393 45.7932 5.52577 45.4563 5.26113 45.2337C5.11074 45.1976 4.8461 44.975 4.6596 45.0893L4.58737 45.39C4.88813 45.4623 5.0024 45.6488 5.26705 45.8714C5.26705 45.8714 5.56781 45.9436 5.30316 45.721L5.38131 46.0579Z" fill="#252525"/>
<path id="Vector_14" d="M9.88257 19.1412C12.4331 19.1176 14.8694 18.9074 17.378 18.3964C18.539 18.1981 19.8865 17.8855 21.0475 17.6871C21.7213 17.5308 22.2447 17.3384 22.9184 17.1821C23.4418 16.9897 24.1156 16.8334 24.675 16.4906C24.675 16.4906 24.7473 16.1898 24.5969 16.1537C23.9592 16.1596 23.3998 16.5024 22.726 16.6587C22.2026 16.8511 21.5289 17.0074 21.0055 17.1999C19.8084 17.5486 18.6473 17.7469 17.2998 18.0595C14.7913 18.5705 12.3189 18.9311 9.88257 19.1412C9.88257 19.1412 9.81034 19.442 9.84646 19.2916L9.88257 19.1412Z" fill="#252525"/>
<path id="Vector_15" d="M11.1364 20.7184C13.4223 20.4721 15.7444 20.0754 17.916 19.6426C19.077 19.4443 20.2381 19.246 21.3991 19.0476C21.8863 19.0056 22.5601 18.8493 23.0473 18.8072C23.5346 18.7652 24.2084 18.6089 24.7317 18.4165L24.804 18.1157C24.3528 18.0074 23.6791 18.1637 23.1918 18.2057C22.7045 18.2477 22.0308 18.4041 21.5435 18.4461C20.3825 18.6444 19.2215 18.8428 18.0605 19.0411C15.7384 19.4378 13.4164 19.8345 11.2086 20.4177L11.1364 20.7184Z" fill="#252525"/>
<path id="Vector_16" d="M12.9708 22.2755C15.1064 21.9931 17.1276 21.5241 19.2993 21.0913C20.3099 20.8569 21.3205 20.6224 22.3312 20.388L23.8291 20.1115C23.8291 20.1115 24.8036 20.0274 25.2127 19.6485L25.2849 19.3477C24.8338 19.2394 24.3104 19.4318 23.8232 19.4738C23.3359 19.5159 22.8125 19.7083 22.3253 19.7503C21.3146 19.9848 20.1536 20.1831 19.143 20.4176C17.1217 20.8865 14.95 21.3193 12.8927 21.9386C12.7423 21.9025 12.8204 22.2394 12.8204 22.2394L12.9708 22.2755Z" fill="#252525"/>
<path id="Vector_17" d="M13.6098 24.1746C14.9212 24.0123 16.1545 23.5132 17.3516 23.1645C18.0254 23.0082 18.6991 22.8519 19.2225 22.6595C19.8963 22.5032 20.5339 22.4972 21.0934 22.1544L21.1656 21.8537C20.5641 21.7092 19.8542 22.0159 19.1805 22.1722C18.5067 22.3285 17.833 22.4848 17.3096 22.6772C16.1124 23.026 14.6145 23.3025 13.4956 23.9881C13.4956 23.9881 13.4233 24.2888 13.4595 24.1384L13.6098 24.1746Z" fill="#252525"/>
<path id="Vector_18" d="M14.3399 25.7755C14.3399 25.7755 16.0243 25.3848 16.7342 25.0781C17.0711 24.9999 17.4441 24.7714 17.9313 24.7294C18.2682 24.6512 18.7555 24.6092 19.1285 24.3806C19.1285 24.3806 19.2007 24.0799 19.0503 24.0438C18.7496 23.9715 18.2262 24.1639 17.8893 24.2421C17.5524 24.3202 17.0291 24.5127 16.6922 24.5908C15.8319 24.8614 15.1221 25.1681 14.2618 25.4386C14.1114 25.4025 14.1535 25.8898 14.3399 25.7755Z" fill="#252525"/>
<path id="Vector_19" d="M14.0175 27.2902C14.0175 27.2902 15.0282 27.0558 15.5154 27.0137C16.0027 26.9717 16.4899 26.9297 16.8629 26.7011C17.0133 26.7372 16.9352 26.4004 16.7848 26.3642C16.3336 26.2559 15.8103 26.4483 15.2869 26.6407C14.7635 26.8332 14.2763 26.8752 13.7529 27.0676C13.6025 27.0315 13.6445 27.5188 13.831 27.4045L14.0175 27.2902Z" fill="#252525"/>
<path id="Vector_20" d="M12.5905 29.1781C12.5905 29.1781 13.938 28.8654 14.6118 28.7091C15.2855 28.5528 15.887 28.6973 16.5608 28.541L16.633 28.2402C16.0315 28.0958 15.3578 28.2521 14.684 28.4084C14.0102 28.5647 13.3365 28.721 12.6266 29.0277C12.4762 28.9916 12.5544 29.3284 12.5544 29.3284L12.5905 29.1781Z" fill="#252525"/>
<path id="Vector_21" d="M11.4654 31.1331C11.4654 31.1331 12.6265 30.9348 13.1137 30.8928C13.601 30.8507 14.2386 30.8448 14.6116 30.6163C14.762 30.6524 14.6839 30.3155 14.6839 30.3155C14.2327 30.2072 13.5589 30.3635 13.0356 30.5559C12.5122 30.7483 11.8746 30.7542 11.3512 30.9466C11.2008 30.9105 11.2428 31.3978 11.2789 31.2474L11.4654 31.1331Z" fill="#252525"/>
<path id="Vector_22" d="M9.01443 33.3997C9.87468 33.1291 10.6988 33.0089 11.7095 32.7745C12.1967 32.7324 12.5697 32.5039 13.057 32.4619C13.5442 32.4198 14.0315 32.3778 14.4045 32.1492L14.4767 31.8485C14.0256 31.7401 13.6526 31.9687 13.1653 32.0107C12.6781 32.0528 12.3051 32.2813 11.8178 32.3233C10.9575 32.5939 9.94691 32.8283 9.08666 33.0989C8.93627 33.0628 9.01443 33.3997 9.01443 33.3997Z" fill="#252525"/>
<path id="Vector_23" d="M6.61192 35.6969C8.4467 35.3423 10.1672 34.8011 11.8516 34.4104C12.7119 34.1398 13.536 34.0196 14.3962 33.749C14.8835 33.707 15.2565 33.4785 15.7438 33.4364C16.0806 33.3583 16.604 33.1659 16.9409 33.0877C16.9409 33.0877 17.0131 32.787 16.8627 32.7508C16.4116 32.6425 16.0386 32.871 15.7017 32.9492C15.2145 32.9912 14.8415 33.2198 14.3542 33.2618C13.494 33.5324 12.6337 33.8029 11.6592 33.887C9.93867 34.4282 8.10389 34.7828 6.38339 35.3239C6.38339 35.3239 6.31116 35.6247 6.34727 35.4743L6.61192 35.6969Z" fill="#252525"/>
<path id="Vector_24" d="M5.72698 37.7158C7.74825 37.2469 9.73341 36.9283 11.7547 36.4594C13.7398 36.1409 15.8754 35.8585 17.7463 35.3535C18.047 35.4257 17.8546 34.9023 17.7042 34.8662C15.6048 34.9982 13.5835 35.4671 11.5623 35.9361C9.54099 36.405 7.51972 36.8739 5.49845 37.3428C5.34807 37.3067 5.42622 37.6436 5.5766 37.6797L5.72698 37.7158Z" fill="#252525"/>
<path id="Vector_25" d="M5.73999 39.3012C6.86489 39.2532 8.02591 39.0549 9.15081 39.0069C10.3118 38.8086 11.4728 38.6102 12.4835 38.3758C13.6445 38.1774 14.8055 37.9791 15.9665 37.7807C17.1276 37.5824 18.2886 37.384 19.4496 37.1857C19.7504 37.2579 19.594 36.5842 19.4076 36.6984C18.2826 36.7464 17.1216 36.9447 16.111 37.1792C14.95 37.3775 13.789 37.5759 12.6279 37.7742C11.4669 37.9726 10.3059 38.1709 9.14489 38.3693C7.98387 38.5676 6.97323 38.8021 5.7761 39.1508L5.73999 39.3012Z" fill="#252525"/>
<path id="Vector_26" d="M5.52909 41.4801C6.80438 41.4683 8.11578 41.306 9.42718 41.1438C10.5882 40.9455 11.8996 40.7832 13.0967 40.4345C14.2577 40.2362 15.6053 39.9236 16.7663 39.7252C17.44 39.5689 17.9634 39.3765 18.6011 39.3706C19.2748 39.2143 19.9486 39.058 20.6223 38.9017C20.9592 38.8235 20.7668 38.3001 20.466 38.2279C19.8284 38.2338 19.305 38.4262 18.6312 38.5825C17.9575 38.7388 17.2837 38.8952 16.7604 39.0876C15.5632 39.4363 14.2518 39.5985 13.0908 39.7969C11.9298 39.9952 10.5823 40.3078 9.42125 40.5062C8.10985 40.6684 6.79845 40.8306 5.56521 41.3297C5.56521 41.3297 5.49298 41.6305 5.52909 41.4801Z" fill="#252525"/>
<path id="Vector_27" d="M5.29948 42.8599C5.29948 42.8599 4.5535 43.3169 4.21662 43.3951L4.1805 43.5455C5.45579 43.5336 6.65292 43.1849 7.85005 42.8362C9.19757 42.5236 10.3586 42.3252 11.7061 42.0126C12.9032 41.6639 14.2146 41.5017 15.4118 41.153C16.0855 40.9967 16.6089 40.8042 17.2465 40.7983C17.9203 40.642 18.5579 40.6361 19.1174 40.2933C19.2678 40.3294 19.2258 39.8421 19.0754 39.806C18.4378 39.8119 17.764 39.9682 17.2406 40.1607C16.5669 40.317 16.0796 40.359 15.4058 40.5153C14.0583 40.8279 12.8973 41.0263 11.5498 41.3389C10.3527 41.6876 9.04127 41.8498 7.84413 42.1985C6.647 42.5473 5.3356 42.7095 4.10235 43.2086C4.10235 43.2086 4.66184 42.8658 5.03483 42.6373L5.29948 42.8599Z" fill="#252525"/>
<path id="Vector_28" d="M5.58072 44.5143C5.58072 44.5143 5.50849 44.8151 5.47237 44.9655C5.85129 45.3746 6.22428 45.146 6.67543 45.2544C8.17333 44.9779 9.52084 44.6653 10.8684 44.3527C12.2159 44.0401 13.7138 43.7636 15.0613 43.451C15.735 43.2946 16.4088 43.1383 17.0826 42.982C17.4194 42.9039 17.7563 42.8257 18.0932 42.7476C18.4301 42.6694 18.7669 42.5913 18.9896 42.3266L19.0618 42.0259C18.6106 41.9175 17.9369 42.0738 17.6 42.152C16.9262 42.3083 16.439 42.3503 15.7652 42.5066C14.6042 42.705 13.4071 43.0537 12.2461 43.252C11.085 43.4504 9.88791 43.7991 8.72689 43.9974C8.20352 44.1899 7.52976 44.3462 7.00639 44.5386C6.70562 44.4664 6.48301 44.731 6.14613 44.8092C6.14613 44.8092 5.84536 44.7369 5.69498 44.7008L5.39422 44.6286C5.39422 44.6286 5.46645 44.3278 5.43034 44.4782L5.58072 44.5143Z" fill="#252525"/>
<path id="Vector_29" d="M6.52593 46.6562C8.69759 46.2234 11.0196 45.8267 13.2274 45.2435C14.3884 45.0452 15.4352 44.6604 16.5962 44.462C17.1196 44.2696 17.6068 44.2276 18.1302 44.0351C18.6536 43.8427 19.2912 43.8368 19.5499 43.4218L19.6222 43.121C19.171 43.0127 18.6476 43.2051 18.1243 43.3975C17.6009 43.5899 17.0775 43.7823 16.4399 43.7882C15.3931 44.1731 14.2321 44.3714 13.2215 44.6059C11.0137 45.1891 8.80593 45.7723 6.59816 46.3554C6.44778 46.3193 6.48982 46.8066 6.67632 46.6923L6.52593 46.6562Z" fill="#252525"/>
<path id="Vector_30" d="M7.382 48.127C9.36716 47.8085 11.3523 47.4899 13.3736 47.021C14.3842 46.7866 15.3949 46.5521 16.4416 46.1673C16.965 45.9749 17.4522 45.9328 17.8252 45.7043C18.1621 45.6261 18.8359 45.4698 19.245 45.0909C19.2811 44.9405 19.3533 44.6398 19.0526 44.5675C18.6014 44.4592 18.0419 44.802 17.705 44.8802C17.1817 45.0726 16.6583 45.265 16.171 45.307C15.1604 45.5415 14.264 45.9624 13.2534 46.1969C11.2321 46.6658 9.36123 47.1708 7.33996 47.6397C7.18958 47.6036 7.23162 48.0909 7.26773 47.9405L7.382 48.127Z" fill="#252525"/>
<path id="Vector_31" d="M9.90807 49.0541C11.3698 48.928 12.8677 48.6515 14.2153 48.3388C14.889 48.1825 15.5628 48.0262 16.2726 47.7196C16.9464 47.5632 17.7705 47.4431 18.3661 46.9499C18.5526 46.8356 18.5106 46.3484 18.1737 46.4265C17.5 46.5828 16.7901 46.8895 16.1163 47.0458C15.4426 47.2021 14.7327 47.5088 14.059 47.6651C12.7114 47.9777 11.2135 48.2542 9.86603 48.5668C9.56527 48.4946 9.72157 49.1683 9.90807 49.0541Z" fill="#252525"/>
<path id="Vector_32" d="M13.7918 49.3589C13.7918 49.3589 14.989 49.0101 15.5123 48.8177C16.0357 48.6253 16.7095 48.469 17.2328 48.2766C17.4193 48.1623 17.3412 47.8254 17.1908 47.7893C16.5532 47.7952 16.0298 47.9877 15.5064 48.1801C14.983 48.3725 14.3093 48.5288 13.7859 48.7212C13.449 48.7994 13.6053 49.4731 13.9783 49.2446L13.7918 49.3589Z" fill="#252525"/>
<path id="Vector_33" d="M11.5598 6.1889C12.5042 6.89285 13.5207 7.29603 14.6877 7.73533C15.7042 8.13852 16.7208 8.5417 17.7735 8.79451C19.8788 9.30011 22.1345 9.84184 24.3482 9.8963C25.6235 9.88446 26.7845 9.68612 27.9817 9.33739C28.3185 9.25924 28.1622 8.58548 27.8254 8.66363C23.5602 9.86611 19.1991 8.81878 15.1329 7.20603C13.966 6.76673 12.8351 6.17705 11.7825 5.92425L11.7463 6.07463L11.5598 6.1889Z" fill="#252525"/>
<path id="Vector_34" d="M13.4696 3.77235C13.4696 3.77235 12.6514 4.53018 12.507 5.13171C12.3986 5.58285 12.5188 6.407 12.9699 6.51534C12.9699 6.51534 13.2707 6.58757 13.3429 6.28681C13.4513 5.83566 13.0363 5.57693 13.1446 5.12579C13.2529 4.67464 13.3613 4.2235 13.7343 3.99496C13.7704 3.84458 13.8426 3.54382 13.5057 3.62197L13.4696 3.77235Z" fill="#252525"/>
<path id="Vector_35" d="M14.4458 4.34374C14.4458 4.34374 14.2653 5.09565 14.193 5.39641C14.1208 5.69717 14.0124 6.14832 13.9402 6.44909C13.868 6.74985 14.3191 6.85819 14.3914 6.55743C14.4636 6.25667 14.5719 5.80552 14.6442 5.50475C14.7164 5.20399 14.8247 4.75285 14.897 4.45208C14.9692 4.15132 14.5181 4.04297 14.4458 4.34374Z" fill="#252525"/>
<path id="Vector_36" d="M15.7971 4.66495C15.7971 4.66495 15.5804 5.56724 15.4721 6.01839C15.3637 6.46953 15.105 6.88456 15.1471 7.37182C15.1109 7.52221 15.3756 7.74482 15.5982 7.48017C15.8569 7.06514 15.9653 6.61399 16.0736 6.16285C16.182 5.7117 16.3264 5.11017 16.4348 4.65903C16.5431 4.20788 15.9416 4.06342 15.8332 4.51457L15.7971 4.66495Z" fill="#252525"/>
<path id="Vector_37" d="M17.2437 5.16884C17.2437 5.16884 16.5758 5.96279 16.281 6.5282C16.1727 6.97934 15.8778 7.54476 15.9199 8.03202C15.9199 8.03202 16.1845 8.25463 16.371 8.14036C16.6297 7.72533 16.5877 7.23807 16.8464 6.82304C16.9548 6.37189 17.3639 5.99298 17.6226 5.57794C17.8813 5.16291 17.5024 4.75381 17.0933 5.13272L17.2437 5.16884Z" fill="#252525"/>
<path id="Vector_38" d="M18.6855 5.20108C18.6855 5.20108 17.8312 6.1093 17.5002 6.82509C17.428 7.12586 17.3558 7.42662 17.2835 7.72738C17.2113 8.02815 17.1391 8.32891 17.2172 8.66579C17.1811 8.81617 17.6684 8.77413 17.6684 8.77413C17.7406 8.47337 17.7767 8.32299 17.8489 8.02222C17.9212 7.72146 17.9934 7.4207 18.0656 7.11993C18.2101 6.51841 18.6192 6.13949 19.0283 5.76057C19.2509 5.49592 18.872 5.08681 18.499 5.31535L18.6855 5.20108Z" fill="#252525"/>
<path id="Vector_39" d="M19.9323 5.80248L18.9696 7.16184C18.9696 7.16184 18.1153 8.07005 18.1573 8.55731C18.0851 8.85807 18.3498 9.08069 18.7228 8.85215C19.0957 8.62362 19.4267 7.90782 19.6854 7.49279C19.9803 6.92738 20.3894 6.54846 20.6842 5.98305C20.9429 5.56802 20.3775 5.27318 20.1188 5.68821L19.9323 5.80248Z" fill="#252525"/>
<path id="Vector_40" d="M20.7682 6.33165C20.7682 6.33165 20.0281 7.42637 19.7333 7.99178C19.6249 8.44292 19.1436 9.1226 19.5225 9.53171C19.5225 9.53171 19.6729 9.56783 19.8233 9.60394C20.0098 9.48967 20.0459 9.33929 20.1181 9.03853C20.1904 8.73776 20.2626 8.437 20.2987 8.28662C20.4432 7.68509 20.8523 7.30617 21.111 6.89114C21.3697 6.47611 20.8404 6.03089 20.5817 6.44592L20.7682 6.33165Z" fill="#252525"/>
<path id="Vector_41" d="M22.2714 6.68684C22.2714 6.68684 21.5675 7.63117 21.2727 8.19658C21.1643 8.64773 20.683 9.32741 20.8754 9.85078C20.8393 10.0012 21.2904 10.1095 21.4769 9.99524C21.886 9.61633 21.8801 8.97869 22.1388 8.56365C22.2472 8.11251 22.6924 7.58321 22.9511 7.16818C23.2099 6.75315 22.6806 6.30792 22.2714 6.68684Z" fill="#252525"/>
<path id="Vector_42" d="M24.2946 6.8636C24.2946 6.8636 23.4402 7.77182 23.2958 8.37334C23.1874 8.82449 22.8204 9.69066 22.8985 10.0275C22.8624 10.1779 23.3497 10.1359 23.3497 10.1359C23.4219 9.83512 23.458 9.68474 23.5302 9.38398C23.6025 9.08321 23.6386 8.93283 23.7108 8.63207C23.8192 8.18092 24.2644 7.65162 24.5231 7.23659C24.9322 6.85768 24.2525 6.37634 24.0299 6.64099L24.2946 6.8636Z" fill="#252525"/>
<path id="Vector_43" d="M25.9035 6.92418C25.9035 6.92418 25.1996 7.86851 24.9409 8.28354C24.8325 8.73469 24.3512 9.41437 24.5797 9.78736C24.5797 9.78736 24.8805 9.85959 25.0309 9.8957C25.4039 9.66717 25.5483 9.06564 25.6567 8.6145C25.765 8.16335 26.1741 7.78443 26.469 7.21902C26.5412 6.91826 26.1623 6.50915 25.9397 6.7738L25.9035 6.92418Z" fill="#252525"/>
<path id="Vector_44" d="M26.5633 6.91746C26.5633 6.91746 26.3105 7.97013 26.2021 8.42128C26.0938 8.87242 25.9493 9.47395 26.0275 9.81083C26.0275 9.81083 26.3282 9.88306 26.4786 9.91918C26.8516 9.69064 26.8457 9.053 26.954 8.60185C27.0624 8.15071 27.2068 7.54918 27.3152 7.09804C27.4235 6.64689 26.6716 6.46632 26.5633 6.91746Z" fill="#252525"/>
<path id="Vector_45" d="M27.7177 7.20459C27.7177 7.20459 26.2677 8.60599 26.5744 9.31587C26.5383 9.46625 27.0256 9.42421 27.0256 9.42421C27.2482 9.15956 27.17 8.82268 27.3926 8.55803C27.4649 8.25727 27.6875 7.99262 28.0244 7.91447C28.3974 7.68593 28.0907 6.97606 27.5673 7.16848L27.7177 7.20459Z" fill="#252525"/>
</g>
</svg>
