<svg width="71" height="98" viewBox="0 0 71 98" fill="none" xmlns="http://www.w3.org/2000/svg">
<g id="Group 1">
<path id="Vector" d="M21.1633 62.4393C18.5929 61.1541 16.4508 59.8689 14.3088 57.7269C12.1668 56.0133 10.4532 53.8713 8.73963 51.7293C5.74083 47.0169 4.0272 41.4477 3.5988 35.8785C3.1704 23.4549 10.4533 12.7449 21.1633 7.17569C32.7301 1.17809 48.5808 0.321291 58.434 9.74609C63.1464 14.0301 66.1453 20.0277 67.0021 26.4537C67.8589 33.3081 66.5736 40.1625 63.1465 46.1601C61.4328 49.1589 59.2909 52.1577 56.7205 54.7281C54.1501 57.2985 51.5797 59.4405 49.4377 62.0109C47.7241 64.5813 46.4389 67.1517 45.5821 70.1505C44.7253 72.7209 44.2968 75.2913 43.0116 77.4333C42.1548 78.2901 41.298 79.1469 40.4412 79.5753C39.156 80.0037 40.4412 82.1457 41.298 81.7173C47.2956 80.4321 47.7241 72.7209 49.4377 67.5801C50.7229 64.1529 53.2932 62.0109 55.8636 59.4405C58.8624 56.8701 61.4329 54.2997 63.5749 51.3009C67.8589 45.3033 70.4292 37.5921 70.0008 30.3093C70.0008 23.4549 67.4305 16.6005 63.1465 11.0313C58.4341 5.0337 51.5796 1.6065 44.2968 0.3213C37.4424 -0.5355 30.1596 0.321298 23.7337 2.8917C11.3101 7.6041 1.4568 18.7425 0.1716 32.0229C-1.1136 44.0181 4.88404 57.2985 16.0224 62.8677C17.3076 63.7245 18.5929 64.1529 20.3065 64.1529C21.1633 64.1529 22.0201 63.2961 20.7349 62.4393H21.1633Z" fill="white"/>
<path id="Vector_2" d="M18.6309 63.6993C22.4865 64.9845 22.0581 70.1253 22.9149 73.5525C23.3433 76.5513 25.4853 81.6921 29.3409 80.8353C30.6261 80.8353 30.1977 79.1217 29.3409 78.6933C28.4841 78.6933 28.0557 78.2648 27.1989 77.8364C26.7705 77.408 26.3421 76.5513 25.9137 75.6945C25.0569 73.9809 25.0569 72.2673 24.6285 70.1253C24.2001 67.1265 22.4865 62.8425 18.6309 62.4141C17.7741 62.4141 17.7741 63.2709 18.6309 63.6993Z" fill="white"/>
<path id="Vector_3" d="M29.7119 80.4047C29.7119 80.4047 30.5688 80.4047 31.4256 80.4047C31.854 80.4047 32.2823 80.4047 33.1391 80.4047C34.4243 80.4047 35.7095 80.4047 36.5663 80.4047C38.7083 80.4047 41.2787 79.5479 43.4207 79.1195C43.4207 79.1195 44.2775 78.6911 44.2775 78.2627C44.2775 77.8343 44.2775 77.4059 44.2775 76.9775C44.2775 76.9775 43.4207 76.9775 42.9923 76.9775C40.8503 77.4059 38.7083 77.8343 36.5663 78.2627C35.2811 78.2627 34.4243 78.2627 33.1391 78.6911C32.7107 78.6911 31.854 78.6911 31.4256 78.6911C30.5688 78.6911 30.5687 78.6911 29.7119 79.1195C29.2835 79.1195 29.2835 79.9763 29.7119 80.4047Z" fill="white"/>
<path id="Vector_4" d="M28.038 81.2667C28.038 81.2667 26.7528 80.41 27.6096 79.9816C27.6096 79.9816 26.7527 79.5532 26.3243 79.1248C26.3243 81.6952 26.3243 84.694 26.3243 87.6928C26.3243 89.8348 26.3243 91.9768 28.8947 92.4052C31.0367 92.8336 33.1788 92.4052 35.3208 92.4052C37.8912 92.4052 40.8899 91.5484 43.4603 91.5484C44.3171 91.5484 45.174 90.6916 44.7456 89.8348C43.8888 87.6928 43.4603 85.5508 43.4603 83.4088C43.4603 81.2668 43.4603 79.1248 43.4603 76.9828C43.4603 75.6976 41.3184 75.2692 40.89 76.9828C39.6048 81.2668 40.0332 86.836 41.7468 91.12C41.7468 90.6916 42.1752 90.2632 42.6036 89.4064C40.4616 89.4064 38.3195 90.2631 35.7491 90.2631C33.6071 90.2631 31.4651 91.12 29.7515 91.12C29.3231 91.12 28.4664 91.12 28.038 90.6916C27.6096 89.8348 28.038 88.1212 28.038 87.2644C28.038 84.694 28.038 82.552 28.038 79.9816C28.038 79.1248 27.1812 78.6964 26.7528 79.1248C25.0392 79.9816 26.7528 83.4088 28.4664 82.552V82.1236L28.038 81.2667Z" fill="white"/>
<path id="Vector_5" d="M43.5078 82.5312C43.5078 82.5312 46.5066 82.1028 48.2202 81.6744C48.2202 81.6744 47.3634 81.246 46.935 80.8176C46.935 81.246 46.935 82.1028 46.935 82.5312C46.935 82.9596 46.935 83.8164 46.935 84.2448C47.3634 84.2448 47.7918 84.2448 48.6486 84.2448C47.7918 83.8164 46.9351 83.388 46.0783 83.388C45.2215 83.388 44.3646 83.8164 44.3646 84.6732C44.3646 85.9584 45.2214 87.2436 46.5066 86.8152C47.3634 86.8152 47.3634 85.1016 46.5066 85.1016C46.935 85.1016 47.3634 85.1016 47.7918 85.9584C48.6486 86.3868 49.9339 85.9584 49.5055 84.6732C49.5055 84.2448 49.5055 83.388 49.5055 82.9596C49.5055 82.5312 49.5055 81.6744 49.5055 81.246C49.5055 80.8176 49.077 79.9608 48.2202 80.3892C46.935 80.8176 45.2214 81.246 43.9362 82.1028C43.5078 82.1028 43.9362 83.388 43.9362 83.388L43.5078 82.5312Z" fill="white"/>
<path id="Vector_6" d="M26.7741 84.6829C26.7741 84.6829 22.9185 83.3977 21.6333 84.2545C20.3481 85.1113 19.9198 86.3965 20.3482 87.6817C20.7766 89.3953 22.9186 89.3953 24.6322 88.9669C25.9174 88.9669 27.2026 88.5385 28.0594 88.1101C28.9162 88.1101 30.2013 88.1101 30.6297 86.8249V85.9681C29.7729 85.5397 28.4878 85.9681 27.2026 85.9681C25.9174 85.9681 24.6321 86.8249 22.9185 86.8249C22.4901 86.8249 22.0617 86.8249 22.0617 86.8249C22.0617 86.8249 22.0617 85.9681 22.4901 85.9681C23.3469 85.1113 25.0605 85.9681 26.3457 85.9681C27.2025 85.9681 27.6309 85.1113 26.7741 84.6829Z" fill="white"/>
<path id="Vector_7" d="M32.3293 94.1114C32.3293 94.1114 32.3294 93.683 31.901 93.2546C31.4726 93.2546 31.0442 93.2546 30.6158 93.683C30.1874 94.5398 29.759 95.825 30.6158 96.6818C31.4726 97.5386 32.7578 96.6818 33.6146 96.6818C34.4714 96.2534 34.8998 95.3966 35.3282 94.5398C35.3282 93.683 35.3282 91.9694 34.043 91.541C33.6146 91.541 33.1861 91.541 32.7577 92.3978C32.7577 92.8262 32.7577 93.683 32.7577 94.1114C32.7577 94.5398 31.901 94.9682 31.4726 94.9682C31.4726 94.9682 32.3293 94.9682 32.3293 95.3966C32.3293 95.3966 32.3293 95.3966 32.3293 94.9682C32.3293 94.5398 32.3293 94.1114 32.3293 93.683V94.5398C32.3293 94.5398 32.3294 94.5398 31.901 94.5398C31.901 94.9682 33.1861 94.5398 32.7577 94.1114H32.3293Z" fill="white"/>
<path id="Vector_8" d="M36.6055 92.4082C36.6055 92.4082 37.4623 95.407 38.7475 95.8354C39.6043 95.8354 40.8895 95.8355 41.3179 94.9787C41.3179 94.5503 41.3179 93.6935 41.3179 93.2651C41.3179 92.8367 41.3179 92.4082 41.3179 91.9798C41.3179 91.5514 40.4611 91.123 40.0327 91.123C39.6043 91.123 39.1759 91.123 38.7475 91.9798C38.7475 92.8366 38.7475 93.6934 38.7475 94.5502C38.7475 94.5502 38.7475 94.1218 38.7475 93.6934C38.7475 92.4082 37.0339 92.4082 37.0339 93.6934L36.6055 92.4082Z" fill="white"/>
<path id="Vector_9" d="M31.4063 81.6973C31.4063 81.6973 32.2631 78.2701 32.2631 76.5565C32.2631 74.8429 32.6915 72.7009 32.6915 70.9873C32.6915 67.1317 33.5483 63.7045 33.9767 59.8489C33.9767 58.5637 33.9767 56.4217 34.8335 55.5649C34.8335 55.5649 35.6903 54.7081 36.1187 55.1365C36.5471 55.1365 36.5471 56.4217 36.5471 56.8501C36.5471 60.7057 36.5471 64.1329 36.5471 67.9885C36.5471 72.2725 36.5471 76.1281 35.6903 80.4121C35.6903 82.1257 37.8323 82.1257 38.2607 80.4121C38.2607 76.1281 39.1175 71.8441 39.1175 67.5601C39.1175 65.4181 39.1175 63.2761 39.1175 60.7057C39.1175 59.8489 39.1175 58.5637 39.1175 57.7069C39.1175 56.8501 39.1175 55.5649 39.1175 54.7081C38.6891 52.9945 37.4039 52.1377 35.6903 52.1377C33.9767 52.1377 32.6915 53.4229 31.8347 54.7081C30.9779 56.4217 30.9779 58.5637 30.9779 60.2773C30.9779 62.4193 30.9779 64.5613 30.5495 66.7033C30.5495 69.2737 30.1211 71.4157 30.1211 73.9861C30.1211 75.2713 30.1211 76.5565 30.1211 77.8417C30.1211 79.1269 30.1211 79.9837 30.1211 81.2689C30.1211 81.6973 30.9779 81.2689 31.4063 81.2689V81.6973Z" fill="white"/>
<path id="Vector_10" d="M35.2387 56.8473C35.2387 56.8473 35.2387 56.4189 35.2387 55.9905C35.2387 55.9905 34.8103 55.1337 34.8103 54.7053C34.8103 53.8485 34.3819 52.9917 33.9535 52.1349C33.9535 50.4213 33.9535 48.7077 34.3819 46.9941C34.3819 46.1373 33.5251 45.2805 32.6683 45.2805C31.8115 45.2805 31.3831 43.9953 31.8115 43.1385C32.6683 42.2817 33.9535 41.8533 34.8103 41.8533C35.6671 41.8533 37.3807 41.8533 37.8091 43.1385C37.8091 43.9953 37.3807 45.2805 36.5239 44.8521C35.6671 44.4237 34.8103 44.8521 34.8103 46.1373C35.2387 49.5645 35.6671 52.5633 35.2387 55.9905C35.2387 57.2757 37.3807 57.2757 37.3807 55.9905C37.3807 52.5633 37.3807 48.7077 36.9523 45.2805L35.2387 46.5657C35.2387 46.5657 39.9511 45.7089 39.9511 43.5669C39.9511 40.9965 36.9523 39.2829 34.8103 38.8545C32.2399 38.8545 29.2411 39.7113 28.8127 42.7101C28.3843 45.2805 30.5263 47.8509 33.0967 47.4225C32.6683 46.9941 32.2399 46.5657 31.3831 45.7089C30.5263 47.8509 30.5263 49.9929 31.3831 52.1349C31.3831 52.9917 31.8115 54.2769 32.6683 55.1337C32.6683 55.1337 33.0967 55.9905 33.5251 56.4189C33.5251 56.4189 33.5251 56.4189 33.9535 56.4189C33.9535 56.4189 33.9535 56.4189 34.3819 56.8473C34.3819 56.8473 35.2387 56.8473 34.8103 56.4189L35.2387 56.8473Z" fill="white"/>
<path id="Vector_11" d="M31.0362 58.9974C31.0362 58.9974 31.0362 57.7122 31.0362 56.8554C31.0362 55.9986 30.1794 55.1418 29.751 54.285C29.3226 52.5714 28.4658 51.2862 27.609 49.5726C26.3238 46.1454 25.0386 43.1466 24.1818 39.7194C24.1818 39.291 23.325 38.8626 22.8966 38.8626C21.6114 38.8626 20.3262 38.8626 19.041 38.8626C19.041 38.8626 19.8978 39.291 20.3262 39.7194C20.3262 39.291 19.8978 38.4342 19.8978 38.0058C20.3262 37.5774 21.183 37.149 21.6114 36.7206C20.7546 36.2922 20.7546 34.1502 21.6114 33.7218C22.8966 32.865 24.6102 33.7218 24.6102 35.4354C25.0386 35.4354 25.8954 35.007 26.7522 34.5786C25.8954 34.1502 25.8954 32.865 26.7522 32.0082C27.609 31.1514 28.8942 32.0082 28.8942 33.2934C28.8942 33.2934 28.8942 32.4366 29.3226 32.4366C28.8942 32.4366 28.4658 32.4366 28.0374 32.4366C28.0374 32.865 28.0374 33.2934 28.0374 34.1502C28.8942 32.865 29.3226 31.1514 31.0362 30.723C31.4646 30.723 32.3214 30.723 32.7498 31.1514C32.7498 31.1514 32.7498 32.4366 32.7498 32.0082C32.7498 32.0082 33.1782 32.865 33.6066 32.865C33.6066 31.5798 35.3202 29.0094 37.0338 29.8662C37.8906 30.2946 38.319 32.0082 37.0338 32.4366C37.4622 32.865 37.8906 33.2934 38.319 33.7218C38.319 32.4366 39.6042 30.723 41.3178 30.723C41.7462 30.723 42.603 30.723 42.603 31.5798C42.603 32.0082 42.603 32.865 41.7462 32.4366C41.7462 32.865 42.603 33.7218 42.603 34.1502C43.4598 33.2934 44.3166 32.865 45.1734 32.4366C45.1734 32.4366 44.3166 32.4366 43.8882 32.4366C44.745 33.2934 43.8882 35.007 43.0314 35.4354C43.4598 35.4354 44.3166 36.2922 44.745 36.7206C44.745 35.4354 46.4586 34.5786 47.7438 35.4354C47.7438 35.4354 47.7438 34.5786 47.3154 34.1502C46.4586 38.4342 45.1734 42.7182 43.4598 47.0022C41.7462 51.2862 39.6042 55.1418 37.4622 58.9974C36.6054 60.2826 38.7474 61.1394 39.1758 60.2826C41.7462 56.427 43.4598 52.143 45.1734 47.859C46.887 43.575 48.1722 39.291 49.4574 34.5786C49.4574 34.1502 49.4574 33.7218 49.029 33.2934C46.887 31.5798 43.4598 33.2934 43.0314 35.8638C43.0314 36.7206 43.8882 37.5774 44.745 37.149C47.3154 35.8638 47.7438 32.865 46.0302 30.723C46.0302 30.723 45.1734 30.723 44.745 30.723C43.0314 30.723 41.7462 32.0082 40.8894 33.2934C40.461 34.1502 40.8894 35.007 41.7462 35.4354C43.0314 35.4354 44.3166 34.5786 44.745 32.865C44.745 31.5798 44.745 29.8662 43.0314 29.4378C40.0326 27.7242 37.0338 30.723 36.177 33.2934C36.177 34.1502 36.6054 35.007 37.4622 34.5786C40.0326 33.2934 40.0326 29.4378 37.8906 28.1526C34.8918 26.0106 31.0362 29.8662 31.0362 32.865C31.0362 33.2934 31.4646 33.7218 32.3214 34.1502C35.3202 34.1502 36.177 30.2946 33.6066 28.581C32.3214 27.7242 30.6078 27.7242 29.3226 28.581C27.609 29.4378 26.7522 31.1514 26.3238 32.4366C26.3238 32.865 26.3238 33.7218 26.3238 34.1502C27.609 34.5786 28.8942 34.5786 30.1794 34.1502C30.1794 34.1502 30.6078 33.7218 30.6078 33.2934C30.6078 30.723 27.609 28.581 25.0386 29.8662C22.8966 31.1514 22.4682 34.5786 24.6102 35.8638C25.467 36.7206 26.7522 35.8638 26.7522 35.007C26.7522 32.0082 22.8966 29.4378 20.3262 31.1514C17.7558 32.865 18.1842 36.7206 20.3262 38.4342C21.183 39.291 22.4682 38.0058 22.0398 37.149C22.0398 35.4354 19.4694 35.007 18.1842 35.8638C16.0422 37.149 16.899 39.7194 17.7558 41.433C17.7558 41.8614 18.6126 42.2898 19.041 42.2898C20.3262 42.2898 21.6114 42.2898 22.8966 42.2898C22.4682 42.2898 22.0398 41.433 21.6114 41.433C22.4682 44.8602 23.7534 48.2874 25.467 51.7146C26.3238 53.4282 26.7522 55.1418 27.609 56.8554C28.0374 57.7122 28.4658 58.569 28.8942 59.4258C29.3226 59.8542 29.751 60.2826 30.6078 60.2826L31.0362 58.9974Z" fill="white"/>
<path id="Vector_12" d="M50.2488 14.037C48.1068 14.037 46.8217 16.6073 47.2501 18.3209C47.2501 20.4629 49.3921 21.7482 51.5341 21.7482C53.6761 21.7482 55.8181 20.0345 55.3897 17.4641C55.3897 15.3221 53.2476 12.7518 50.6772 13.6086C50.2488 13.6086 49.8204 14.8938 50.6772 14.8938C51.9624 15.3222 52.8193 16.1789 53.2477 17.4641C53.2477 18.7493 52.3909 19.6062 51.5341 19.6062C50.2489 19.6062 49.3921 19.1778 48.9637 17.8926C48.9637 16.6074 49.392 15.3222 50.6772 14.8938V14.037H50.2488Z" fill="white"/>
<path id="Vector_13" d="M54.5796 22.9769C57.15 26.4041 59.2921 30.2597 59.7205 34.5437C59.7205 36.6857 59.7205 38.8277 59.7205 40.9697C59.7205 41.8265 59.7204 43.1117 59.292 43.9685C59.292 44.8253 58.4352 46.1105 58.4352 46.9673C58.4352 47.3957 59.2921 47.8241 59.7205 47.3957C61.0057 45.6821 61.434 43.1117 61.8624 40.9697C61.8624 38.8277 61.8624 36.2573 61.8624 34.1153C61.0056 29.8313 58.8636 25.1189 55.4364 22.1201C55.4364 22.1201 54.1512 22.1201 54.5796 22.5485V22.9769Z" fill="white"/>
<path id="Vector_14" d="M54.4767 25.1638C54.4767 25.1638 52.7631 24.7354 51.9063 25.1638C51.0495 26.0206 50.6211 27.3057 50.6211 28.1625C50.6211 31.1613 54.9051 32.0182 56.1903 34.5886C57.4755 37.159 57.4755 41.0146 57.4755 44.0134C57.4755 45.727 57.4755 47.0121 56.6187 48.7257C56.6187 49.5826 56.1903 50.011 55.7619 50.8678C55.7619 51.7246 54.9051 52.153 54.4767 52.5814C54.4767 53.0098 54.4767 53.8666 55.3335 53.4382C56.6187 53.4382 57.4755 51.7245 57.9039 50.4393C58.3323 49.1541 58.7607 47.869 59.1891 46.5838C59.6175 43.585 59.1891 40.5861 59.1891 38.0157C59.1891 35.0169 57.9039 32.875 55.3335 31.1614C54.4767 30.3046 52.7631 29.4477 52.3347 28.1625C52.3347 27.3057 52.3347 25.5922 54.0483 25.5922C54.0483 25.5922 54.9051 25.5922 54.0483 24.7354L54.4767 25.1638Z" fill="white"/>
<path id="Vector_15" d="M28.4558 88.5749C28.4558 88.5749 28.4557 88.1465 28.8841 87.7181C28.8841 87.7181 28.8841 87.2897 28.8841 86.8613C28.8841 86.8613 28.8842 87.2897 28.4558 87.7181C28.4558 87.7181 28.4557 88.1465 28.0273 88.5749H28.4558Z" fill="white"/>
<path id="Vector_16" d="M28.4942 90.2462C31.0646 90.2462 31.0646 86.3906 28.4942 86.3906C25.9238 86.3906 25.9238 90.2462 28.4942 90.2462Z" fill="white"/>
<path id="Vector_17" d="M29.306 87.2897C29.306 87.2897 29.306 87.2897 29.306 86.8613C29.306 86.8613 28.4492 86.8613 28.4492 87.7181C28.4492 87.7181 28.4492 87.7182 28.4492 88.1466C28.4492 88.1466 28.4492 88.1465 28.4492 88.5749L29.306 87.2897Z" fill="white"/>
<path id="Vector_18" d="M28.8385 86.4288C28.8385 86.4288 33.1225 86.4288 35.2645 86.4288C37.4065 86.4288 39.5485 86.4288 41.6905 85.572C42.9757 85.572 42.5473 83.43 41.2621 83.8584C39.1201 84.2868 36.9781 84.7152 34.8361 84.7152C32.6941 84.7152 30.5521 84.7152 28.8385 84.7152C27.9817 84.7152 27.5533 86.0004 28.8385 86.4288Z" fill="white"/>
</g>
</svg>
