<svg width="15" height="20" viewBox="0 0 15 20" fill="none" xmlns="http://www.w3.org/2000/svg">
<g clip-path="url(#clip0_1251_2311)">
<path d="M8.75 0H6.25C2.79766 0 0 2.79805 0 6.25V13.75C0 17.2023 2.79805 20 6.25 20H8.75C12.2023 20 15 17.202 15 13.75V6.25C15 2.79766 12.2031 0 8.75 0ZM13.75 13.75C13.7451 16.509 11.5086 18.7461 8.75 18.75H6.25C3.49102 18.7451 1.25391 16.5086 1.25 13.75V6.25C1.25488 3.49102 3.49141 1.25391 6.25 1.25H8.75C11.509 1.25488 13.7461 3.49141 13.75 6.25V13.75ZM7.5 3.71484C7.15453 3.71484 6.875 3.99437 6.875 4.33984V6.83984C6.875 7.21875 7.15625 7.5 7.5 7.5C7.84375 7.5 8.125 7.22047 8.125 6.875V4.375C8.125 4.03125 7.84375 3.71484 7.5 3.71484Z" fill="white"/>
</g>
<defs>
<clipPath id="clip0_1251_2311">
<rect width="15" height="20" fill="white"/>
</clipPath>
</defs>
</svg>
