<svg width="99" height="59" viewBox="0 0 99 59" fill="none" xmlns="http://www.w3.org/2000/svg">
<path d="M8 3C8 1.34315 9.34315 0 11 0H64C65.6569 0 67 1.34315 67 3V56C67 57.6569 65.6569 59 64 59H11C9.34315 59 8 57.6569 8 56V3Z" fill="#60DC74"/>
<path fill-rule="evenodd" clip-rule="evenodd" d="M67.0953 2L69.5016 2.01837L69.4864 4.01832L67.08 3.99994L67.0953 2ZM74.3144 2.05512L79.1272 2.09187L79.1119 4.09181L74.2991 4.05507L74.3144 2.05512ZM83.9399 2.12862L86.3463 2.147C87.0474 2.15235 87.6981 2.33423 88.2612 2.64799L87.2877 4.39505C87.0126 4.2418 86.6908 4.14968 86.331 4.14694L83.9247 4.12856L83.9399 2.12862ZM90.3107 5.8871C90.3531 6.53028 90.2388 7.19618 89.9435 7.83206L89.1207 9.6031L87.3069 8.76051L88.1296 6.98947C88.2812 6.6632 88.3357 6.33291 88.315 6.01875L90.3107 5.8871ZM87.4753 13.1452L85.8299 16.6873L84.0161 15.8447L85.6615 12.3026L87.4753 13.1452ZM84.1845 20.2294L82.5391 23.7715L80.7252 22.9289L82.3706 19.3868L84.1845 20.2294ZM80.8937 27.3135L79.2482 30.8556L77.4344 30.013L79.0798 26.4709L80.8937 27.3135ZM77.6028 34.3977L75.9574 37.9398L74.1435 37.0972L75.789 33.5551L77.6028 34.3977ZM74.312 41.4819L72.6666 45.024L70.8527 44.1814L72.4981 40.6393L74.312 41.4819ZM71.0211 48.5661L69.3757 52.1081L67.5619 51.2655L69.2073 47.7235L71.0211 48.5661ZM67.7303 55.6502L66.9076 57.4213L65.0938 56.5787L65.9165 54.8076L67.7303 55.6502Z" fill="#60DC74"/>
<path fill-rule="evenodd" clip-rule="evenodd" d="M34.1233 4.30255C34.7818 2.89746 36.1935 2 37.7452 2H39.6938V4H37.7452C36.9693 4 36.2635 4.44873 35.9342 5.15127L35.0165 7.1096L33.2055 6.26088L34.1233 4.30255ZM43.591 2H47.4882V4H43.591V2ZM51.3854 2H55.2826V4H51.3854V2ZM59.1798 2H62.5961V4H59.1798V2ZM65.5316 2H66.9994V4H65.5316V2ZM29.5343 14.0942L31.3699 10.1775L33.1809 11.0263L31.3453 14.9429L29.5343 14.0942ZM25.8632 21.9275L27.6988 18.0109L29.5098 18.8596L27.6742 22.7763L25.8632 21.9275ZM22.1921 29.7609L24.0276 25.8442L25.8386 26.6929L24.0031 30.6096L22.1921 29.7609ZM18.521 37.5942L20.3565 33.6775L22.1675 34.5263L20.3319 38.4429L18.521 37.5942ZM14.8498 45.4275L16.6854 41.5109L18.4964 42.3596L16.6608 46.2763L14.8498 45.4275ZM12.0965 51.3025L13.0143 49.3442L14.8252 50.1929L13.9075 52.1513C13.7538 52.4792 13.6984 52.8112 13.719 53.1268L11.7232 53.2573C11.681 52.6107 11.7971 51.9413 12.0965 51.3025ZM15.7184 57C15.013 57 14.3576 56.8211 13.79 56.5084L14.7551 54.7567C15.0322 54.9093 15.3563 55 15.7184 55H17.8551V57H15.7184ZM26.402 57H22.1286V55H26.402V57ZM34.9488 57H30.6754V55H34.9488V57ZM43.4956 57H39.2222V55H43.4956V57ZM52.0424 57H47.769V55H52.0424V57ZM60.5892 57H56.3158V55H60.5892V57ZM66.9994 57H64.8627V55H66.9994V57Z" fill="#F9F8F7"/>
</svg>
