<svg width="59" height="59" viewBox="0 0 59 59" fill="none" xmlns="http://www.w3.org/2000/svg">
<path d="M40 20C40 31.0457 31.0457 40 20 40C8.9543 40 0 31.0457 0 20C0 8.9543 8.9543 0 20 0C31.0457 0 40 8.9543 40 20Z" fill="#60DC74"/>
<path fill-rule="evenodd" clip-rule="evenodd" d="M39.5 19C40.1541 19 40.801 19.0331 41.4391 19.0977L41.2375 21.0875C40.6662 21.0297 40.0866 21 39.5 21V19ZM45.2392 19.8806C46.4844 20.2733 47.676 20.7903 48.8004 21.4171L47.8265 23.164C46.8186 22.6021 45.7516 22.1393 44.6376 21.7879L45.2392 19.8806ZM51.9798 23.6316C52.9604 24.4701 53.8591 25.4052 54.6623 26.4225L53.0925 27.6618C52.3696 26.7461 51.5612 25.9051 50.68 25.1517L51.9798 23.6316ZM56.7556 29.6763C57.341 30.8136 57.8226 32.0159 58.1875 33.2696L56.2673 33.8286C55.9384 32.6988 55.5045 31.6158 54.9773 30.5915L56.7556 29.6763ZM58.9101 37.068C58.9696 37.704 59 38.3485 59 39C59 39.6515 58.9696 40.296 58.9101 40.932L56.9188 40.7458C56.9725 40.1716 57 39.5892 57 39C57 38.4108 56.9725 37.8284 56.9188 37.2542L58.9101 37.068ZM20.0899 40.932C20.0304 40.296 20 39.6515 20 39H22C22 39.5892 22.0275 40.1716 22.0812 40.7458L20.0899 40.932ZM22.2443 48.3237C21.659 47.1864 21.1774 45.9841 20.8125 44.7304L22.7327 44.1714C23.0616 45.3012 23.4955 46.3842 24.0227 47.4085L22.2443 48.3237ZM58.1875 44.7304C57.8226 45.9841 57.341 47.1864 56.7556 48.3237L54.9773 47.4085C55.5045 46.3842 55.9384 45.3012 56.2673 44.1714L58.1875 44.7304ZM27.0202 54.3684C26.0396 53.5299 25.1409 52.5948 24.3377 51.5775L25.9075 50.3382C26.6304 51.2539 27.4388 52.0949 28.32 52.8483L27.0202 54.3684ZM54.6623 51.5775C53.8591 52.5948 52.9604 53.5299 51.9798 54.3684L50.68 52.8483C51.5612 52.0949 52.3696 51.2539 53.0925 50.3382L54.6623 51.5775ZM33.7608 58.1194C32.5156 57.7267 31.324 57.2097 30.1996 56.5829L31.1735 54.836C32.1814 55.3979 33.2484 55.8607 34.3624 56.2121L33.7608 58.1194ZM48.8004 56.5829C47.676 57.2097 46.4844 57.7267 45.2392 58.1194L44.6376 56.2121C45.7516 55.8607 46.8186 55.3979 47.8265 54.836L48.8004 56.5829ZM39.5 59C38.8459 59 38.199 58.9669 37.5609 58.9023L37.7625 56.9125C38.3338 56.9703 38.9134 57 39.5 57C40.0866 57 40.6662 56.9703 41.2375 56.9125L41.4391 58.9023C40.801 58.9669 40.1541 59 39.5 59Z" fill="#60DC74"/>
<path fill-rule="evenodd" clip-rule="evenodd" d="M40 21C39.3898 21 38.7869 21.032 38.1929 21.0945L37.9837 19.1055C38.6471 19.0357 39.3197 19 40 19V21ZM34.6612 21.8495C33.508 22.227 32.4038 22.724 31.3616 23.327L30.3599 21.5959C31.52 20.9247 32.7512 20.3704 34.0389 19.9488L34.6612 21.8495ZM28.4255 25.4489C27.524 26.2487 26.6973 27.1406 25.9587 28.1112L24.3672 26.9001C25.1836 25.8271 26.0986 24.8397 27.0981 23.9528L28.4255 25.4489ZM24.0431 31.1996C23.5097 32.2748 23.0709 33.4107 22.7386 34.5952L20.8129 34.0548C21.1791 32.7497 21.6629 31.4972 22.2514 30.3108L24.0431 31.1996ZM22.0818 38.1768C22.0277 38.7766 22 39.3847 22 40H20C20 39.3247 20.0304 38.6566 20.0898 37.9972L22.0818 38.1768Z" fill="#F9F8F7"/>
</svg>
