<svg width="59" height="59" viewBox="0 0 59 59" fill="none" xmlns="http://www.w3.org/2000/svg">
<path fill-rule="evenodd" clip-rule="evenodd" d="M29.5 57C44.6878 57 57 44.6878 57 29.5C57 14.3122 44.6878 2 29.5 2C14.3122 2 2 14.3122 2 29.5C2 44.6878 14.3122 57 29.5 57ZM29.5 59C45.7924 59 59 45.7924 59 29.5C59 13.2076 45.7924 0 29.5 0C13.2076 0 0 13.2076 0 29.5C0 45.7924 13.2076 59 29.5 59Z" fill="#60DC74"/>
<path d="M43 30C43 37.1797 37.1797 43 30 43C22.8203 43 17 37.1797 17 30C17 22.8203 22.8203 17 30 17C37.1797 17 43 22.8203 43 30Z" fill="#60DC74"/>
</svg>
