<svg width="59" height="59" viewBox="0 0 59 59" fill="none" xmlns="http://www.w3.org/2000/svg">
<path class="dots" fill-rule="evenodd" clip-rule="evenodd" d="M59 9.92396C59 14.8439 55.4198 18.9276 50.7223 19.712C55.4198 20.4964 59 24.5802 59 29.5C59 34.4198 55.4198 38.5036 50.7223 39.288C55.4198 40.0724 59 44.1562 59 49.076C59 54.5568 54.5568 59 49.076 59C44.1562 59 40.0724 55.4198 39.288 50.7223C38.5036 55.4198 34.4198 59 29.5 59C24.5802 59 20.4964 55.4198 19.712 50.7223C18.9276 55.4198 14.8439 59 9.92396 59C4.44311 59 0 54.5568 0 49.076C0 44.1562 3.58027 40.0724 8.27754 39.288C3.58027 38.5036 0 34.4198 0 29.5C0 24.5802 3.58027 20.4964 8.27754 19.712C3.58027 18.9276 0 14.8439 0 9.92396C0 4.44311 4.44311 0 9.92396 0C14.8439 0 18.9276 3.58027 19.712 8.27754C20.4964 3.58027 24.5802 0 29.5 0C34.4198 0 38.5036 3.58027 39.288 8.27754C40.0724 3.58027 44.1562 0 49.076 0C54.5568 0 59 4.44311 59 9.92396ZM19.712 11.5704C19.017 15.7322 15.7322 19.017 11.5704 19.712C15.7322 20.4069 19.017 23.6919 19.712 27.8537C20.4069 23.6919 23.6919 20.4069 27.8537 19.712C23.6919 19.017 20.4069 15.7322 19.712 11.5704ZM31.1463 19.712C35.3081 19.017 38.5931 15.7322 39.288 11.5704C39.983 15.7322 43.2679 19.017 47.4297 19.712C43.2679 20.4069 39.983 23.6919 39.288 27.8537C38.5931 23.6919 35.3081 20.4069 31.1463 19.712ZM39.288 47.4297C39.983 43.2679 43.2679 39.983 47.4297 39.288C43.2679 38.5931 39.983 35.3081 39.288 31.1463C38.5931 35.3081 35.3081 38.5931 31.1463 39.288C35.3081 39.983 38.5931 43.2679 39.288 47.4297ZM19.712 31.1463C20.4069 35.3081 23.6919 38.5931 27.8537 39.288C23.6919 39.983 20.4069 43.2679 19.712 47.4297C19.017 43.2679 15.7322 39.983 11.5704 39.288C15.7322 38.5931 19.017 35.3081 19.712 31.1463Z" fill="#60DC74"/>
</svg>
