<svg width="59" height="59" viewBox="0 0 59 59" fill="none" xmlns="http://www.w3.org/2000/svg">
<path d="M27.6671 49C27.6671 49 65.6544 22.556 53.6575 4.37577C49.6441 -1.70615 43.4782 -0.479556 37.5434 2.25081C32.7138 4.47276 27.6664 13.1117 27.6664 13.1117C27.6664 13.1117 22.1446 4.30635 17.0295 2.25081C11.2894 -0.0559442 5.01581 -1.86968 1.67677 4.37577C-8.04304 22.556 27.6671 49 27.6671 49Z" fill="#60DC74"/>
<path fill-rule="evenodd" clip-rule="evenodd" d="M29.393 14.1211L27.7269 16.9728L25.9724 14.1749L25.9706 14.1721L25.9613 14.1574L25.9197 14.0922C25.8819 14.0332 25.8242 13.944 25.7481 13.8283C25.5958 13.5967 25.3702 13.2597 25.0828 12.8472C24.5066 12.0203 23.6887 10.8998 22.7208 9.72177C20.7035 7.26653 18.3234 4.92623 16.2838 4.10657C13.4047 2.94959 10.7396 2.07351 8.48151 2.10601C7.39775 2.1216 6.47668 2.34822 5.68806 2.81023C4.90505 3.26895 4.12837 4.03216 3.44052 5.31874C1.38453 9.16433 1.64262 13.5685 3.49839 18.2859C5.36029 23.019 8.74831 27.8301 12.5373 32.1943C16.3106 36.5405 20.3953 40.3459 23.5473 43.0711C25.1207 44.4314 26.4553 45.5171 27.3937 46.2606C27.5024 46.3467 27.6058 46.4282 27.7035 46.505C27.8209 46.4183 27.9462 46.3252 28.0789 46.2261C29.0741 45.4825 30.4873 44.3968 32.1479 43.0368C35.4757 40.3114 39.7668 36.5084 43.6747 32.1674C47.6023 27.8045 51.0364 23.014 52.7833 18.3205C54.5119 13.6762 54.5299 9.32912 51.9882 5.47732C50.3356 2.97292 48.3817 2.0934 46.2404 2.00706C43.9381 1.91423 41.2653 2.74004 38.3793 4.06775C36.4562 4.9525 34.2448 7.29611 32.382 9.73006C31.4884 10.8976 30.7364 12.0027 30.2077 12.8167C29.944 13.2227 29.7373 13.5539 29.5979 13.7813C29.5282 13.895 29.4755 13.9825 29.4409 14.0403L29.4029 14.1042L29.3945 14.1186L29.393 14.1211ZM27.6671 49C27.6671 49 65.6544 22.556 53.6575 4.37577C49.6441 -1.70615 43.4782 -0.479556 37.5434 2.25081C34.1332 3.81974 30.6144 8.5881 28.8406 11.2554C28.1024 12.3655 27.6664 13.1117 27.6664 13.1117C27.6664 13.1117 27.2086 12.3817 26.4346 11.293C24.5203 8.60063 20.6718 3.7145 17.0295 2.25081C11.2894 -0.0559442 5.01581 -1.86968 1.67677 4.37577C-8.04304 22.556 27.6671 49 27.6671 49Z" fill="#60DC74"/>
<path fill-rule="evenodd" clip-rule="evenodd" d="M50.1159 46.0685L50.1153 46.0695L48.4359 49.0417L46.6658 46.1229L46.6651 46.1217L46.6516 46.0999C46.6397 46.0807 46.6205 46.05 46.5946 46.0092C46.5426 45.9274 46.4639 45.8058 46.3628 45.6559C46.1594 45.354 45.8718 44.9468 45.5339 44.5216C45.1927 44.0921 44.8222 43.6723 44.4552 43.3304C44.0702 42.9716 43.7836 42.7882 43.6186 42.7197C42.5313 42.2678 41.7533 42.0327 41.1995 42.041C40.9714 42.0444 40.8572 42.0906 40.7901 42.1312C40.7258 42.1701 40.5789 42.2797 40.4054 42.6153C39.8475 43.6943 39.8583 45.0206 40.4832 46.6632C41.1128 48.3181 42.2875 50.063 43.6668 51.7059C45.0318 53.3316 46.5178 54.7642 47.6727 55.7967C47.9404 56.036 48.189 56.2527 48.4126 56.444C48.6603 56.2442 48.9381 56.0156 49.2382 55.7615C50.4574 54.729 52.0163 53.299 53.427 51.6787C54.8557 50.0377 56.033 48.3134 56.6148 46.697C57.1812 45.1235 57.1254 43.8534 56.4356 42.7727C56.0243 42.1281 55.6597 42.0172 55.2871 42.0016C54.7418 41.9789 53.9699 42.1879 52.938 42.6788C52.7831 42.7525 52.514 42.9421 52.1552 43.3035C51.8134 43.6477 51.4702 44.0659 51.1552 44.4914C50.8434 44.9127 50.5791 45.3142 50.3925 45.6112C50.2998 45.7587 50.2278 45.8781 50.1802 45.9583C50.1565 45.9984 50.1389 46.0285 50.1281 46.0473L50.1159 46.0685ZM48.3752 59C48.3752 59 62.6204 48.7462 58.1216 41.6967C56.6165 39.3384 54.3043 39.814 52.0788 40.8728C51.1847 41.2981 50.2708 42.3297 49.5745 43.2654C48.8602 44.2253 48.3749 45.0841 48.3749 45.0841C48.3749 45.0841 47.8664 44.2457 47.12 43.3028C46.3602 42.343 45.3537 41.2748 44.3861 40.8728C42.2335 39.9783 39.8809 39.275 38.6288 41.6967C34.9839 48.7462 48.3752 59 48.3752 59Z" fill="#60DC74"/>
</svg>
