<svg width="93" height="113" viewBox="0 0 93 113" fill="none" xmlns="http://www.w3.org/2000/svg">
<g id="Group 2">
<path pathLength="100" id="Vector" d="M2.07189 2.14199C2.50029 2.14199 3.35709 2.14199 3.78549 2.14199C5.07069 2.14199 6.78429 2.14199 8.06949 2.14199C11.0683 2.14199 13.6387 2.14199 16.6375 2.14199C22.2067 2.14199 27.7759 2.14199 33.3451 2.14199C44.9119 2.14199 56.0503 2.142 67.6171 2.5704C74.0431 2.5704 80.4691 2.57039 86.8951 2.99879C86.4667 2.57039 86.0383 2.142 85.6099 1.7136L88.1803 50.1228C88.1803 58.2624 89.0371 65.9736 89.4655 74.1132C89.4655 75.8268 89.4655 77.9688 89.4655 79.6824C89.4655 81.396 87.7519 82.2528 86.4667 83.1096C83.0395 85.2516 80.0407 87.3936 76.6135 89.5356C68.9023 94.6764 61.6195 99.3888 53.9083 104.53C52.1947 105.386 53.9083 107.957 55.1935 107.1C62.0479 102.388 68.9023 98.1036 75.7567 93.3912C79.1839 91.2492 82.6111 89.1072 86.0383 86.5368C87.3235 85.68 89.0371 84.8232 90.3223 83.538C91.6075 82.2528 92.0359 80.5392 92.0359 78.8256C92.0359 77.112 92.0359 74.97 92.0359 73.2564C92.0359 71.1144 92.0359 68.9724 92.0359 66.8304C92.0359 62.5464 91.6075 58.6908 91.1791 54.4068C90.7507 46.2672 90.3223 37.6992 89.8939 29.5596C89.4655 20.1348 89.0371 11.1384 88.6087 1.7136C88.6087 0.856798 88.1803 0.428389 87.3235 0.428389C80.8975 0.428389 74.0431 0.428389 67.6171 0.428389C61.1911 0.428389 54.3367 0.428389 47.9107 0.428389C34.6303 0.428389 21.3499 0.4284 8.06949 0C6.35589 0 4.64229 0 2.92869 0C2.07189 0 0.786694 0.428398 0.358294 1.7136C-0.0701057 3.4272 2.92869 4.284 2.92869 2.5704C2.92869 2.5704 2.50029 2.142 2.07189 2.5704V2.14199Z" fill="white"/>
<path pathLength="100" id="Vector_2" d="M0.42841 2.61426C0.42841 2.61426 0 3.89945 0 4.75625C0 5.61305 0 6.46984 0 7.32664C0 9.04024 0 11.1822 0 12.8958C0 16.323 0 19.7502 0 23.6058L0.856799 45.0258C1.2852 59.163 1.7136 73.3003 2.5704 87.4375C2.5704 95.5771 2.9988 103.717 3.4272 111.428C3.4272 112.285 3.85561 112.713 4.71241 112.713C20.5632 111.856 36.414 111.428 52.6932 110.571C53.1216 110.571 53.9784 110.571 53.9784 109.714C56.1204 99.8611 57.834 90.0079 57.4056 80.1547L56.1204 81.4398C59.976 81.8682 64.26 82.725 68.1156 83.1534C71.5428 83.5818 75.3984 84.4387 78.8256 84.8671C83.9664 84.8671 89.964 84.8671 92.106 79.2979C92.5344 78.0127 90.3924 77.1559 89.964 78.4411C87.822 83.1535 82.2528 82.725 77.9688 82.2966C74.5416 82.2966 71.1144 81.4398 67.6872 80.583C63.8316 80.1546 60.4044 79.2978 56.5488 78.8694C55.692 78.8694 54.8352 78.8695 54.8352 80.1547C54.8352 84.8671 54.8352 90.0079 53.9784 94.7203C53.55 99.4327 52.6932 104.573 51.408 109.286L52.6932 108.429C36.8424 109.286 20.9916 109.714 4.71241 110.571C5.14081 110.999 5.56919 111.428 5.99759 111.856C5.56919 97.719 5.1408 83.5818 4.284 69.0162C3.8556 54.879 2.9988 40.7419 2.5704 26.6047C2.5704 22.7491 2.57041 18.465 2.14201 14.6094C2.14201 12.4674 2.14201 10.7539 2.14201 8.61185C2.14201 7.75505 2.14201 6.46984 2.14201 5.61304C2.14201 4.75624 1.71361 3.89945 1.28521 3.04265L0.42841 2.61426Z" fill="white"/>
<path pathLength="100" id="Vector_3" d="M59.9709 98.1306C59.9709 98.1306 58.6857 98.9874 58.2573 98.9874C57.4005 98.9874 56.9721 98.9874 56.1153 98.9874V100.701C56.1153 100.701 59.9709 98.9874 61.6845 98.1306C63.3981 97.2738 65.5401 95.9886 67.2537 95.1318C68.9673 94.275 70.6809 92.9898 72.3945 91.7046C73.2513 91.2762 74.1081 90.4194 74.5365 89.991C75.3933 89.5626 76.2502 88.7058 76.6786 87.849C76.6786 87.849 76.6785 86.9922 76.2501 86.9922C75.3933 86.9922 74.5365 87.849 74.1081 88.2774C73.2513 88.7058 72.3945 89.5626 71.5377 89.991C69.8241 91.2762 68.1105 92.133 66.3969 93.4182C64.6833 94.275 62.9697 95.5602 61.2561 96.417C59.5425 97.2738 57.4005 98.1306 55.6869 98.9874C54.8301 99.4158 55.6869 100.701 56.5437 100.273C57.8289 99.8442 59.1141 98.9874 59.9709 97.7022V98.1306Z" fill="white"/>
<path pathLength="100" id="Vector_4" d="M58.743 96.0049C58.743 96.0049 61.3133 94.2913 62.5985 93.4345C63.8837 92.5777 65.169 91.7209 66.0258 90.8641C66.0258 90.8641 66.0258 89.579 65.5974 90.0074C62.5986 91.2926 60.4565 93.4345 57.8861 95.1481C57.0293 95.5765 57.8862 96.8618 58.743 96.4334V96.0049Z" fill="white"/>
<path pathLength="100" id="Vector_5" d="M9.43818 14.1694C18.0062 14.5978 27.0026 14.5978 35.5706 14.1694C44.1386 14.1694 53.135 13.3125 61.703 12.8841L60.8462 12.0273C60.8462 16.3113 60.8462 20.5953 60.4178 24.4509C60.4178 25.3077 60.4178 26.5929 59.9894 27.4497C59.9894 28.3065 59.9894 29.1633 59.1326 29.1633C58.2758 29.1633 57.419 29.1633 56.5622 29.1633C55.277 29.1633 54.4202 29.1633 53.135 29.1633C44.567 29.1633 35.999 29.1633 27.8594 29.1633C23.147 29.1633 18.0062 29.1633 13.2938 29.1633L14.579 30.4486C14.579 27.8782 14.579 25.3077 14.579 22.7373C14.579 20.1669 15.0074 17.5966 14.579 15.0262C14.579 13.741 12.8654 13.741 12.437 15.0262C11.5802 17.5966 11.5802 20.167 11.5802 23.1658C11.5802 25.7362 11.5802 28.735 11.5802 31.3054C11.5802 32.1622 12.0086 32.5905 12.8654 32.5905C21.8618 32.5905 31.2866 32.5905 40.283 32.5905C44.9954 32.5905 49.2794 32.5905 53.9918 32.5905C55.7054 32.5905 57.8474 32.5905 59.561 32.5905C61.2746 31.7337 61.703 30.0201 61.703 28.3065C62.5598 23.1657 62.5598 18.025 62.1314 13.3126C62.1314 12.8842 61.703 12.4558 61.2746 12.4558C52.7066 13.3126 43.7102 13.741 35.1422 14.1694C26.5742 14.1694 17.5778 14.1694 9.00979 14.1694C8.15299 14.1694 8.15299 15.4545 9.00979 15.4545L9.43818 14.1694Z" fill="white"/>
<path pathLength="100" id="Vector_6" d="M13.2789 39.8594C13.2789 39.8594 14.5642 39.8594 15.421 39.8594H16.2778C16.2778 39.8594 16.7062 39.8594 17.1346 39.8594C17.563 39.8594 17.1346 39.8594 17.9914 39.8594H18.8482C19.705 39.8594 20.5617 39.8594 21.4185 39.8594C23.1321 39.8594 25.2741 39.0026 26.5593 39.8594C27.8445 40.2878 29.5581 40.2878 30.8433 39.8594C31.2717 39.8594 31.7001 39.0026 30.8433 38.5742C29.5581 38.1458 27.8445 38.1458 26.5593 38.5742C26.1309 38.5742 25.7026 38.5742 25.2742 38.5742C24.8458 38.5742 24.4174 38.5742 23.5606 38.5742C22.7038 38.5742 22.2753 38.5742 21.4185 38.5742C20.5617 38.5742 19.705 38.5742 18.8482 38.5742C18.8482 38.5742 17.9913 38.5742 17.5629 38.5742C17.5629 38.5742 17.563 38.5742 17.1346 38.5742C16.2778 38.5742 15.4209 38.5742 14.9925 38.5742C14.1357 38.5742 13.279 38.5742 12.8506 39.0026C12.4222 39.0026 12.8506 39.8594 12.8506 39.8594H13.2789Z" fill="white"/>
<path pathLength="100" id="Vector_7" d="M37.2399 39.8698C39.8103 39.8698 42.3807 39.8698 45.3795 39.8698C46.2363 39.8698 46.6647 39.8698 47.5215 39.8698C48.3783 39.8698 48.8067 39.8698 49.6635 39.8698C50.9487 39.8698 52.6623 39.8698 53.9475 39.8698C56.5179 39.8698 59.5167 39.8698 62.0871 39.8698C63.3723 39.8698 64.6575 39.8698 65.9427 39.8698C67.2279 39.8698 68.5131 39.8698 69.7983 39.4414C70.2267 39.4414 70.2267 38.5846 69.7983 38.1562C68.5131 37.7278 67.2279 38.1562 65.9427 38.1562C64.6575 38.1562 63.3723 38.1562 62.0871 38.1562C59.5167 38.5846 56.5179 38.1562 53.9475 38.5846C52.6623 38.5846 51.3771 38.5846 50.0919 38.5846C48.8067 38.5846 47.5215 38.5846 46.2363 38.5846C43.6659 38.5846 40.6671 38.5846 38.0967 38.5846C36.8115 38.5846 36.8115 40.7266 38.0967 40.7266L37.2399 39.8698Z" fill="white"/>
<path pathLength="100" id="Vector_8" d="M16.6504 48.4447C16.6504 48.4447 18.364 48.4447 19.2208 48.4447C19.2208 48.4447 20.0776 48.4447 20.506 48.4447C20.9344 48.4447 21.3628 48.4447 22.2196 48.4447C22.648 48.4447 22.648 47.5879 22.2196 47.5879C21.7912 47.5879 21.3628 47.5879 20.506 47.5879C20.506 47.5879 19.6492 47.5879 19.2208 47.5879C18.364 47.5879 17.5072 47.5879 16.6504 47.5879C15.7936 47.5879 15.7936 49.3015 16.6504 49.3015V48.4447Z" fill="white"/>
<path pathLength="100" id="Vector_9" d="M25.7056 48.4232C28.7044 48.4232 31.7032 47.9948 34.2736 47.138C34.702 47.138 34.702 46.2812 34.2736 46.2812C31.2748 46.2812 28.7044 46.7096 25.7056 47.138C24.8488 47.138 25.2772 48.4232 25.7056 48.4232Z" fill="white"/>
<path pathLength="100" id="Vector_10" d="M40.6035 47.1475C44.8875 47.1475 49.1716 47.1475 53.4556 47.1475C55.5976 47.1475 57.7395 47.1475 59.8815 47.1475C60.7383 47.1475 62.0235 47.1475 62.8803 47.1475C63.7371 47.1475 65.0224 47.1475 65.8792 47.1475C66.736 47.1475 66.736 45.8623 65.8792 45.8623C65.0224 45.8623 63.7371 45.8623 62.8803 45.8623C62.0235 45.8623 60.7383 45.8623 59.8815 45.8623C57.7395 45.8623 55.5976 45.8623 53.4556 45.8623C49.1716 45.8623 44.8875 45.8623 40.6035 45.8623C39.7467 45.8623 39.7467 47.5759 40.6035 47.5759V47.1475Z" fill="white"/>
<path pathLength="100" id="Vector_11" d="M12.7881 57.4174C17.5005 57.8458 22.2129 57.4174 27.3537 57.4174C28.6389 57.4174 29.9241 57.4174 30.7809 57.4174C32.0661 57.4174 32.9229 57.4174 34.2081 57.4174C36.3501 57.4174 38.9205 57.4174 41.0625 56.1322V55.2754C38.9205 55.2754 36.3501 55.2754 34.2081 55.2754C32.9229 55.2754 32.0661 55.2754 30.7809 55.7038C29.4957 55.7038 28.2105 55.7038 26.9253 55.7038C22.2129 55.7038 17.5005 55.2754 12.7881 55.2754C11.5029 55.2754 11.5029 56.989 12.7881 56.989V57.4174Z" fill="white"/>
<path pathLength="100" id="Vector_12" d="M44.9903 56.5482C47.9891 56.5482 51.4162 56.5482 54.415 56.1198V55.263C51.4162 54.4062 47.9891 54.8346 44.9903 54.8346C44.1335 54.8346 44.1335 56.5482 44.9903 56.5482Z" fill="white"/>
<path pathLength="100" id="Vector_13" d="M60.0616 57.8496C60.0616 57.8496 63.4888 57.8496 65.2024 57.8496C66.4876 57.8496 68.6295 57.8496 69.9147 57.8496C70.3431 57.8496 70.3431 56.5644 69.9147 56.5644C68.6295 56.136 66.916 56.5644 65.2024 56.5644C63.4888 56.5644 61.7752 56.5644 60.0616 56.5644C58.7764 56.5644 58.7764 58.278 60.0616 58.278V57.8496Z" fill="white"/>
<path pathLength="100" id="Vector_14" d="M13.7903 68.158C16.3607 68.158 19.3595 68.158 21.9299 68.158C24.5003 68.158 27.4991 68.158 30.0695 67.3012C31.3547 67.3012 32.6399 67.3012 33.9251 66.8728C34.7819 66.8728 35.2103 66.8728 36.0671 66.8728C36.9239 66.8728 37.3523 66.8728 38.2091 66.8728C39.4943 66.8728 40.7795 66.8728 42.0647 66.8728C43.3499 66.8728 44.6351 66.8728 45.9203 66.4444C46.3487 66.4444 46.3487 65.5876 45.9203 65.1592C44.6351 65.1592 43.3499 65.1592 42.0647 65.1592C40.7795 65.1592 39.4943 65.1592 38.2091 65.1592C37.7807 65.1592 36.9239 65.1592 36.4955 65.5876C35.6387 65.5876 34.7819 65.5876 33.9251 65.5876C32.6399 65.5876 31.3547 65.5876 29.6411 65.5876C27.0707 65.5876 24.0719 65.5876 21.5015 65.5876C18.9311 65.5876 15.9323 65.5876 13.3619 66.4444C12.0767 66.4444 12.5051 68.158 13.3619 68.158H13.7903Z" fill="white"/>
<path pathLength="100" id="Vector_15" d="M53.4629 65.158C53.4629 65.158 57.3185 65.158 59.0321 65.158C59.8889 65.158 60.7457 65.158 62.0309 65.158C62.0309 65.158 62.8877 65.158 63.3161 65.158C63.3161 65.158 64.6013 65.158 65.0297 65.158C65.8865 65.158 66.7433 65.158 66.7433 64.3012C66.7433 63.4444 65.8865 63.016 65.0297 63.4444C65.0297 63.4444 63.7445 63.4444 63.3161 63.4444C63.3161 63.4444 62.4593 63.4444 62.0309 63.4444C61.1741 63.4444 60.3173 63.4444 59.0321 63.4444C57.3185 63.4444 55.1765 63.4444 53.4629 63.4444C52.6061 63.4444 52.6061 64.7296 53.4629 64.7296V65.158Z" fill="white"/>
<path pathLength="100" id="Vector_16" d="M16.2712 99.8509C13.7008 99.8509 11.1304 101.993 11.5588 104.992C11.5588 105.849 12.4156 106.277 13.2724 106.277C15.8428 106.277 17.9848 104.563 19.27 102.421C19.27 102.421 19.27 101.136 19.27 100.708C18.8416 99.8509 17.9848 99.4225 16.6996 98.9941C15.8428 98.9941 14.5576 98.9941 14.5576 100.279C14.5576 100.279 14.5576 101.136 14.5576 101.565C14.5576 101.565 15.4144 101.565 15.8428 101.993H16.2712V100.279C16.2712 100.279 13.7008 102.85 11.9872 102.85L13.7008 104.135C13.7008 104.135 14.5576 101.136 15.8428 101.136C17.128 101.136 17.128 99.4225 15.8428 98.9941L16.2712 99.8509Z" fill="white"/>
<path pathLength="100" id="Vector_17" d="M4.75479 6.02566C4.75479 6.02566 3.46959 9.02446 4.75479 9.88126C5.61159 10.3097 6.46839 9.88126 7.32519 9.02446C7.75359 8.16766 8.18199 7.31084 8.18199 6.45404C8.18199 6.02564 7.32518 5.16886 6.89678 5.16886C6.89678 5.16886 6.89679 5.16886 7.32519 5.16886C7.32519 5.16886 7.32518 5.16886 6.89678 5.16886H6.03998C6.03998 5.16886 6.46838 5.16885 6.89678 4.74045C6.46838 4.74045 5.61159 5.59725 5.61159 6.02566C5.61159 6.02566 6.46838 6.02566 6.89678 6.02566C7.32518 6.02566 7.75358 4.74046 6.89678 4.31206C6.89678 3.88366 6.03998 3.45526 5.18318 4.31206L4.75479 6.02566Z" fill="white"/>
<path pathLength="100" id="Vector_18" d="M79.2592 9.88522C79.2592 9.88522 77.5456 6.45802 76.2604 7.74322C76.2604 7.74322 75.832 8.60003 75.832 9.02843C75.832 9.88523 76.2604 10.3136 77.1172 10.3136C77.5456 10.3136 77.974 10.3136 78.4024 10.3136C78.4024 10.3136 78.8308 10.3136 79.2592 9.45682C79.2592 9.02841 79.2592 8.60002 79.2592 7.74322C79.2592 7.31482 78.4024 6.45801 77.974 6.45801C77.1172 6.45801 76.6888 6.45801 76.2604 7.31481C76.2604 8.17161 76.2605 8.60003 76.6889 9.02843C76.6889 9.02843 76.6889 9.02841 76.6889 9.45682C76.6889 9.45682 76.6889 9.45682 76.6889 9.88522C76.6889 9.88522 76.6889 9.45683 76.6889 9.02843C76.6889 9.02843 76.6888 9.02843 77.1172 9.02843C77.1172 9.02843 77.1172 9.45682 77.1172 9.88522C77.1172 10.3136 77.1172 10.742 77.5456 11.1704C77.974 11.1704 78.4024 11.1704 78.8308 11.1704L79.2592 9.88522Z" fill="white"/>
<path pathLength="100" id="Vector_19" d="M82.1475 8.58453C82.1475 8.58453 80.8623 4.72893 78.7203 5.15733C76.5783 5.58573 75.7215 8.15613 76.5783 10.2981C76.5783 10.7265 77.4351 11.1549 77.8635 10.7265C79.5771 9.86974 81.2907 9.01292 81.7191 7.29932C81.7191 5.58572 80.8623 3.44373 79.1487 4.30053C78.7203 4.30053 78.2919 5.15732 78.7203 5.58572C78.7203 5.58572 79.1487 6.44253 78.7203 6.87093C78.7203 7.72773 77.4351 8.15612 76.5783 8.15612C77.0067 8.15612 77.8635 8.15613 78.2919 8.58453C78.2919 8.15613 78.2919 7.29933 79.1487 6.87093C80.0055 6.87093 80.8623 6.87092 81.2907 8.15612H82.1475V8.58453Z" fill="white"/>
<path pathLength="100" id="Vector_20" d="M6.46316 5.59316C6.03476 5.59316 5.17795 5.59317 5.17795 6.02157C4.74955 7.30677 5.17795 9.44878 6.89155 9.02038C8.60515 9.02038 9.89036 7.73516 10.7472 6.44996C10.7472 6.44996 10.7472 5.59317 10.7472 5.16477C10.3188 4.30797 9.46195 3.87957 8.60515 3.45117C7.74835 3.45117 6.46316 3.45116 6.46316 4.73636V5.59316C6.46316 5.59316 6.46315 5.59316 6.89155 5.59316C6.89155 5.59316 6.89156 5.59316 7.31996 5.59316C7.31996 5.59316 7.74836 5.59317 8.17676 6.02157C8.17676 5.59317 8.17676 4.73637 8.17676 4.30797C8.17676 5.16477 7.31996 5.59316 6.46316 5.59316H7.31996C7.31996 5.59316 7.31996 5.16476 7.31996 4.73636C7.31996 4.73636 7.31996 5.16476 7.31996 5.59316V4.30797L6.46316 5.59316Z" fill="white"/>
<path pathLength="100" id="Vector_21" d="M15.0757 103.289C15.0757 103.289 15.0757 102.432 15.0757 101.575C15.0757 101.575 15.0757 101.575 15.0757 102.004C15.0757 102.004 15.0757 101.147 15.0757 100.719C15.0757 100.719 15.0757 100.29 15.0757 99.8617C15.0757 99.4333 14.2189 99.0049 13.7905 99.4333C11.6485 100.29 9.93493 102.861 10.7917 105.431C10.7917 106.288 11.6485 106.716 12.5053 106.288C14.2189 106.288 15.9325 105.003 17.2177 103.289C18.5029 101.575 16.3609 99.0049 14.2189 99.8617C12.9337 99.8617 12.9337 101.575 14.2189 102.004C14.2189 102.004 14.2189 102.004 14.6473 102.432C14.6473 102.432 14.6473 101.575 14.6473 101.147C13.7905 102.432 12.9337 102.861 11.6485 103.289C12.0769 103.289 12.9337 103.717 13.3621 104.146C13.3621 102.861 13.3621 102.004 14.6473 101.147H12.9337C12.9337 101.147 12.9337 101.575 13.7905 102.004C13.7905 102.004 13.7905 102.004 13.7905 101.575C13.7905 101.575 13.7905 102.432 13.7905 102.861C13.7905 103.289 14.6473 103.717 14.6473 102.861L15.0757 103.289Z" fill="white"/>
<path pathLength="100" id="Vector_22" d="M79.6772 8.9982H79.2488C80.1056 8.9982 80.9624 8.9982 81.8192 8.9982C81.8192 8.1414 81.8192 7.28459 80.9624 6.85619C80.1056 6.42779 79.2488 5.99939 78.392 6.85619C77.5352 7.71299 77.5352 8.5698 78.392 8.9982C78.392 8.9982 79.2488 8.9982 78.8204 8.9982C78.8204 10.7118 81.3908 10.7118 81.3908 8.9982C81.3908 5.9994 76.6784 5.14258 76.25 8.14138C76.25 9.42658 77.1068 10.7118 78.392 10.7118C79.6772 10.7118 80.534 10.7118 80.534 8.9982H80.1056H79.6772Z" fill="white"/>
<path pathLength="100" id="Vector_23" d="M13.1843 100.285C13.1843 100.285 9.7571 102.855 10.1855 104.569C10.1855 105.425 11.0423 105.854 11.8991 105.425C13.1843 104.569 14.4695 104.997 15.7547 104.569C16.6115 104.569 17.4683 103.283 17.8967 102.427C17.8967 101.57 17.8967 100.285 17.4683 99.4278C16.6115 98.571 15.7547 98.571 14.8979 99.4278C14.0411 99.8562 14.8979 100.713 15.3263 101.141C15.3263 101.141 15.3263 101.57 15.3263 101.998C15.3263 102.427 14.0411 102.427 13.1843 102.855C12.3275 102.855 11.4707 103.283 11.0423 103.712C11.4707 103.712 11.8991 104.14 12.7559 104.569C12.7559 103.283 13.1843 101.998 14.0411 101.57C14.4695 101.57 14.0411 100.285 13.6127 100.285H13.1843Z" fill="white"/>
<path pathLength="100" id="Vector_24" d="M22.288 76.6938C19.2892 74.1234 15.862 74.1234 12.0064 74.9802C11.1496 74.9802 11.578 76.2654 12.0064 76.2654C18.4324 76.2654 24.8584 76.2654 31.2844 76.2654C34.2832 76.2654 37.7104 76.2654 40.7092 76.2654C42.4228 76.2654 43.708 76.2654 45.4216 76.2654C47.1352 76.2654 48.8488 76.2654 50.134 75.837C50.5624 75.837 50.9908 74.5518 50.134 74.5518C48.4204 74.5518 47.1352 74.5518 45.4216 74.5518C43.708 74.5518 41.9944 74.5518 40.7092 74.5518C37.7104 74.5518 34.2832 74.5518 31.2844 74.5518C24.8584 74.5518 18.4324 74.9802 12.0064 75.4086C12.0064 75.4086 12.0064 76.2654 12.0064 76.6938C15.0052 74.5518 18.8608 75.837 21.4312 77.979L22.288 76.6938Z" fill="white"/>
<path pathLength="100" id="Vector_25" d="M15.8736 82.676C18.0156 82.676 20.1576 83.1044 22.2996 83.1044C24.4416 83.1044 26.5836 83.1044 28.7256 81.8192C29.154 81.8192 29.154 80.534 28.7256 80.9624C24.4416 80.9624 20.1576 81.8192 15.8736 81.3908C15.4452 81.3908 15.0168 82.2476 15.8736 82.676Z" fill="white"/>
<path pathLength="100" id="Vector_26" d="M13.1836 22.7255C13.1836 22.7255 14.8972 22.7255 16.1824 21.8687C17.4676 21.4403 18.3244 20.5835 19.6096 20.1551C20.4664 19.7267 21.7516 18.8699 22.6084 18.4415C23.4652 18.0131 24.7504 17.5847 25.1788 16.7279C25.1788 16.7279 25.1788 15.8711 24.7504 15.8711C23.8936 15.8711 22.6084 16.7279 21.7516 17.1563C20.4664 17.5847 19.6096 18.4415 18.3244 18.8699L15.3256 20.5835C15.3256 20.5835 13.1836 21.4403 13.1836 22.7255Z" fill="white"/>
<path pathLength="100" id="Vector_27" d="M12.9265 28.3146C16.3537 25.7442 20.2093 23.6022 24.0649 21.4602C25.7785 20.6034 27.9205 19.3182 29.6341 18.4614C30.4909 18.033 31.3477 17.6046 32.2045 17.1762C33.0613 17.1762 33.9181 16.3194 34.3465 15.4626V15.0342C33.4897 15.0342 32.6329 15.0342 31.7761 15.0342C30.9193 15.4626 29.6341 15.891 28.7773 16.3194C26.6353 17.1762 24.9217 18.4614 22.7797 19.7466C18.9241 21.8886 15.4969 24.459 12.0697 27.0294C11.2129 27.4578 12.0697 28.743 12.9265 28.3146Z" fill="white"/>
<path pathLength="100" id="Vector_28" d="M17.5353 32.1438C21.3909 29.5734 24.8181 27.003 28.6737 24.4326C30.3873 23.1474 32.5293 21.8622 34.2429 20.577C35.9565 19.2918 38.0984 18.0066 39.812 16.7214C40.6688 15.8646 39.812 15.0078 38.9552 15.4362C36.8132 16.293 35.0997 17.5782 33.3861 18.8634C31.6725 20.1486 29.5305 21.4338 27.8169 22.719C24.3897 25.2894 20.9625 28.2882 17.5353 30.8586C17.1069 31.287 17.5353 32.1438 18.3921 31.7154L17.5353 32.1438Z" fill="white"/>
<path pathLength="100" id="Vector_29" d="M25.3553 32.1399C28.7825 29.1411 32.2097 26.5707 36.0653 24.0003C37.7789 22.7151 39.4925 21.4299 41.6345 20.5731C42.4913 20.1447 43.7765 19.2879 44.6333 18.8595C45.4901 18.4311 46.3469 17.5743 46.3469 16.7175V16.2891C44.2049 16.2891 42.4913 17.5743 40.7777 18.8595C39.0641 20.1447 36.9221 21.4299 35.2085 22.7151C31.7813 25.2855 27.9257 28.2843 24.9269 31.7115C24.0701 32.5683 24.9269 33.4251 26.2121 32.9967L25.3553 32.1399Z" fill="white"/>
<path pathLength="100" id="Vector_30" d="M33.0086 31.3189C36.0074 28.7485 39.4346 26.6065 42.8618 24.0361C44.5754 23.1793 45.8606 21.8941 47.5742 21.0373C49.2878 20.1805 51.0014 19.3237 52.715 17.6101C53.1434 16.7533 52.715 15.8965 51.8582 16.3249C49.7162 16.3249 48.0026 18.0385 46.7174 18.8953C45.0038 20.1805 43.2902 21.0373 41.5766 22.3225C38.1494 24.8929 35.1506 27.4633 32.1518 30.0337C31.295 30.8905 32.1518 31.7473 33.0086 30.8905V31.3189Z" fill="white"/>
<path pathLength="100" id="Vector_31" d="M38.5559 31.283C41.5547 29.141 44.9819 26.999 47.9807 24.857C49.6943 23.5718 50.9795 22.715 52.6931 21.4298C54.4067 20.1446 55.6919 19.2878 57.4055 18.0026C56.5487 17.5742 56.1203 17.1458 55.2635 16.289C55.2635 17.1458 53.9783 18.0026 53.9783 19.2878C53.9783 19.7162 54.8351 20.1446 55.2635 20.1446C56.1203 19.7162 56.5487 18.8594 57.4055 18.0026C58.2623 17.1458 57.4055 15.4322 55.6919 15.8606C53.9783 16.7174 52.6931 18.0026 50.9795 19.2878C49.2659 20.573 47.9807 21.4298 46.2671 22.715C43.2683 24.857 40.2695 27.4274 37.2707 29.5694C36.4139 30.4262 37.2707 31.7114 38.5559 30.8546V31.283Z" fill="white"/>
<path pathLength="100" id="Vector_32" d="M44.6223 31.2921C47.1927 29.5785 49.7631 27.8649 51.9051 26.1513C53.1903 25.2945 54.4755 24.4377 55.3323 23.5809C55.7607 23.1525 56.6175 22.7241 57.0459 22.2957C57.0459 22.2957 57.9027 21.8673 57.9027 21.4389C57.9027 21.4389 57.9027 21.0105 57.9027 20.5821C57.9027 20.1537 57.9027 19.2969 57.0459 19.2969C57.0459 19.2969 56.6175 19.2969 56.1891 19.2969C56.1891 19.2969 55.7607 19.2969 55.3323 19.7253C54.9039 20.1537 54.0471 20.5821 53.6187 21.0105C52.3335 21.8673 51.0483 22.7241 50.1915 23.5809C47.6211 25.2945 45.4791 27.4365 43.3371 29.1501C42.4803 30.0069 43.3371 31.2921 44.6223 30.8637V31.2921Z" fill="white"/>
<path pathLength="100" id="Vector_33" d="M49.7429 31.3011C49.7429 31.3011 53.5986 29.1591 55.3122 27.8739C56.169 27.4455 57.0257 26.5887 57.8825 26.1603C58.7393 25.7319 59.5962 24.8751 60.0246 24.0183C60.0246 23.5899 60.0245 22.3047 59.1677 22.3047C58.3109 22.3047 57.4542 23.1615 56.5974 23.5899C55.7406 24.0183 54.8837 24.8751 54.0269 25.3035C52.3133 26.5887 50.5997 27.8739 48.8861 29.1591C48.0293 30.0159 48.8861 31.3011 49.7429 30.8727V31.3011Z" fill="white"/>
<path pathLength="100" id="Vector_34" d="M56.6157 28.3123C56.6157 28.3123 58.3293 27.4555 59.1861 27.0271C59.1861 27.0271 60.0429 26.5987 60.4713 26.1703C60.4713 26.1703 60.8997 25.7419 61.3281 25.3135C61.7565 24.8851 61.3281 24.0283 60.4713 24.0283C60.0429 24.0283 59.6145 24.0283 59.1861 24.0283C59.1861 24.0283 58.3293 24.0283 57.9009 24.8851C57.0441 25.3135 56.6157 25.7419 55.7589 26.1703C54.4737 27.0271 55.7589 28.7407 57.0441 28.3123H56.6157Z" fill="white"/>
</g>
</svg>
