<svg width="64" height="65" viewBox="0 0 64 65" fill="none" xmlns="http://www.w3.org/2000/svg">
<g id="quote-left">
<path id="Vector" d="M13.7143 27.9288C12.1029 27.9288 10.5786 28.2574 9.14286 28.7716V27.9288C9.14286 22.8859 13.2429 18.7859 18.2857 18.7859C20.81 18.7859 22.8571 16.7388 22.8571 14.2145C22.8571 11.6902 20.8143 9.64307 18.2857 9.64307C8.20286 9.64307 0 17.8431 0 27.9288V41.6431C0 49.2174 6.14 55.3574 13.7143 55.3574C21.2886 55.3574 27.4286 49.2174 27.4286 41.6431C27.4286 34.0688 21.2857 27.9288 13.7143 27.9288ZM50.2857 27.9288C48.6743 27.9288 47.15 28.2581 45.7143 28.7686V27.9288C45.7143 22.8859 49.8143 18.7859 54.8571 18.7859C57.3814 18.7859 59.4286 16.7388 59.4286 14.2145C59.4286 11.6902 57.3814 9.64307 54.8571 9.64307C44.7743 9.64307 36.5714 17.8459 36.5714 27.9288V41.6431C36.5714 49.2174 42.7114 55.3574 50.2857 55.3574C57.86 55.3574 64 49.2174 64 41.6431C64 34.0688 57.8571 27.9288 50.2857 27.9288Z" fill="#60DC74"/>
</g>
</svg>
