<svg width="138" height="140" viewBox="0 0 138 140" fill="none" xmlns="http://www.w3.org/2000/svg">
<g id="Group 3">
<path id="Vector" d="M120.527 12.7612C120.527 12.7612 120.876 15.4194 120.933 16.8745C121.224 18.0775 121.281 19.5326 121.339 20.9877C121.454 23.898 121.318 26.5753 120.929 29.0197C120.17 34.3936 118.189 39.5731 115.957 44.5197C110.559 55.4213 101.651 63.5473 91.2106 69.7908C88.1251 71.6134 84.7875 73.2031 81.6828 74.5407C80.014 75.3355 78.5781 75.8783 76.6571 76.4402C74.9883 77.2351 73.3003 77.5449 71.3794 78.1068C70.4285 78.6303 70.9712 80.0663 71.9413 80.0278C75.0845 79.6603 78.4221 78.0706 81.2939 76.9851C84.3986 75.6476 87.2704 74.5621 90.123 72.9916C95.8281 69.8507 101.029 66.2438 105.706 61.6862C114.13 53.5794 120.283 43.3765 122.247 31.6394C122.85 28.4578 123.219 25.5283 122.852 22.3852C122.794 20.93 122.717 18.9899 122.66 17.5347C122.35 15.8467 122.292 14.3916 121.749 12.9557C121.245 12.4899 120.508 12.2762 120.294 13.0133L120.527 12.7612Z" fill="white"/>
<path id="Vector_2" d="M120.288 12.5186C120.288 12.5186 117.611 12.3818 116.408 12.6724C114.953 12.7301 113.75 13.0206 112.062 13.3304C109.171 13.9308 106.532 14.7642 103.893 15.5975C98.6153 17.2641 93.3759 19.9008 88.6409 23.0033C78.6857 29.2275 70.5339 38.0522 65.1172 48.4689C61.9526 54.4239 59.5252 60.5928 58.0871 67.2081C57.8927 68.4303 59.8521 68.8385 60.0465 67.6162C62.5146 56.3449 67.6792 45.6954 75.598 37.1228C83.0511 29.0545 92.502 22.3644 102.786 18.3133C105.658 17.2278 108.782 16.3753 111.673 15.7749C113.109 15.2322 114.564 15.1745 116.252 14.8647C117.94 14.5548 119.395 14.4971 120.831 13.9544C121.064 13.7023 121.297 13.4502 120.793 12.9844L120.288 12.5186Z" fill="white"/>
<path id="Vector_3" d="M71.0086 79.0507C71.0086 79.0507 70.718 77.8477 70.2138 77.3819C69.7095 76.916 69.2052 76.4502 68.701 75.9844C67.6924 75.0528 66.6839 74.1211 65.6753 73.1895C64.6668 72.2579 63.6583 71.3263 62.6497 70.3946C61.6412 69.463 60.3805 68.2985 59.372 67.3668C58.6156 66.6681 57.1989 67.6958 57.9745 68.8796C58.9831 69.8112 59.9916 70.7429 61.0002 71.6745C62.0087 72.6061 63.2694 73.7707 64.2779 74.7023C65.2864 75.6339 66.295 76.5656 67.5557 77.7301C68.0599 78.1959 68.5642 78.6618 69.0685 79.1276C69.5727 79.5934 70.077 80.0592 71.0278 79.5357C71.0278 79.5357 71.2607 79.2836 71.4936 79.0314L71.0086 79.0507Z" fill="white"/>
<path id="Vector_4" d="M70.6422 77.3916C69.0119 79.1565 67.3815 80.9214 66.0032 82.9193C65.3045 83.6757 64.6058 84.4321 63.9071 85.1885C63.1891 85.4599 62.1999 85.0133 61.6956 84.5474C59.9306 82.9171 58.4178 81.5197 56.6529 79.8893C54.888 78.2589 53.3559 76.3764 51.8239 74.494C51.8431 74.979 51.8623 75.464 51.8816 75.9491C53.0461 74.6884 53.9777 73.6799 55.1423 72.4192C56.0739 71.4107 57.2385 70.15 58.403 68.8893C59.3346 67.8808 57.8218 66.4833 56.8902 67.4919C55.9585 68.5004 54.794 69.7611 53.6294 71.0218C52.4649 72.2824 51.5333 73.291 50.3687 74.5516C49.9029 75.0559 49.9222 75.541 50.4264 76.0068C52.4435 77.8701 54.2277 79.9854 56.0119 82.1008C57.0204 83.0324 58.0289 83.9641 59.2896 85.1286C60.046 85.8273 60.8024 86.5261 61.5588 87.2248C63.7896 88.3509 65.4391 87.071 66.8366 85.5582C68.6999 83.5411 70.0588 81.0582 71.4178 78.5753C71.8837 78.0711 70.8943 77.6245 70.6614 77.8766L70.6422 77.3916Z" fill="white"/>
<path id="Vector_5" d="M101.97 63.7041C101.97 63.7041 101.039 64.7126 100.573 65.2169C99.8741 65.9733 99.6604 66.7105 99.2139 67.6998C98.0685 69.4455 97.4083 71.172 96.263 72.9177C94.4574 76.3899 92.3997 79.6292 90.3419 82.8685C90.5748 82.6163 91.312 82.83 91.5449 82.5779C89.2565 79.9967 86.9681 77.4155 84.6796 74.8343C83.9232 74.1355 82.7587 75.3962 83.5151 76.0949C86.0364 78.424 88.0919 81.2573 90.3804 83.8386C90.8846 84.3044 91.6026 84.033 91.5834 83.548C93.6411 80.3087 95.6988 77.0694 97.5044 73.5972C98.4168 72.1036 99.31 70.125 100.222 68.6314C100.921 67.875 101.135 67.1378 101.581 66.1485C102.28 65.3921 102.746 64.8879 102.222 63.937L101.97 63.7041Z" fill="white"/>
<path id="Vector_6" d="M72.4024 36.0303C72.4024 36.0303 70.9472 36.088 70.2293 36.3594C69.7635 36.8637 68.5605 37.1543 67.8425 37.4256C66.1737 38.2205 64.7378 38.7632 63.3212 39.7909C59.9836 41.3806 57.131 42.9512 53.7934 44.5409C53.3275 45.0451 52.8617 45.5494 53.8511 45.996C56.8574 48.3058 60.1159 50.8486 63.6074 53.1392C64.6159 54.0709 65.9942 52.073 65.0049 51.6264C61.7463 49.0836 58.507 47.0259 55.2677 44.9682C55.2869 45.4533 55.3062 45.9383 55.3254 46.4233C58.178 44.8528 61.5156 43.2632 64.3682 41.6927C66.037 40.8978 67.2208 40.1222 68.8896 39.3273C69.3554 38.823 70.5584 38.5324 71.0242 38.0282C71.7229 37.2718 72.2079 37.2526 72.9067 36.4962C72.9067 36.4962 73.1396 36.244 72.6545 36.2632L72.4024 36.0303Z" fill="white"/>
<path id="Vector_7" d="M117.68 38.1027C117.68 38.1027 117.37 36.4148 116.865 35.9489C115.857 35.0173 115.1 34.3186 114.092 33.3869C112.327 31.7566 110.562 30.1262 109.03 28.2437C107.265 26.6134 105.5 24.983 103.735 23.3527C102.979 22.6539 101.97 21.7223 101.214 21.0236C100.205 20.092 99.4489 19.3932 98.4404 18.4616C97.684 17.7629 96.7716 19.2564 97.2759 19.7223C98.0323 20.421 99.0408 21.3526 100.049 22.2843C101.058 23.2159 101.814 23.9146 102.823 24.8462C104.588 26.4766 106.353 28.1069 108.118 29.7373C109.883 31.3677 111.648 32.998 113.412 34.6284C114.421 35.56 115.177 36.2587 116.186 37.1903C116.438 37.4233 117.699 38.5878 118.165 38.0835L117.68 38.1027Z" fill="white"/>
<path id="Vector_8" d="M105.595 45.1356C106.915 41.6826 106.276 37.8215 103.969 34.7552C101.913 31.9219 98.2081 30.3684 94.5991 31.2402C91.2231 31.8598 88.6611 34.6333 88.0777 38.2999C87.2615 42.2187 90.0734 45.7508 93.0798 48.0606C94.5926 49.4581 96.8233 50.5842 99.2293 50.003C101.15 49.4411 103.285 48.1419 104.43 46.3962C105.129 45.6398 104.101 44.2231 102.917 44.9988C101.986 46.0073 100.821 47.268 99.1332 47.5778C97.6973 48.1205 96.2229 47.6932 94.9815 47.0137C92.7315 45.4026 89.7059 42.6076 89.8235 39.4452C89.9602 36.7679 91.8042 34.2658 94.2102 33.6846C96.8491 32.8513 100.05 33.9389 102.067 35.8022C104.588 38.1313 105.227 41.9924 104.392 45.4261C103.926 45.9304 105.148 46.1248 105.129 45.6398L105.595 45.1356Z" fill="white"/>
<path id="Vector_9" d="M85.1138 56.1742C85.1138 56.1742 81.9707 56.5417 80.9621 55.6101C79.7015 54.4455 80.1288 52.9712 81.2934 51.7105C82.225 50.702 83.913 50.3921 84.9408 51.8088C85.445 52.2746 85.7164 52.9926 85.7549 53.9627C85.7933 54.9328 85.3275 55.437 85.366 56.4071C85.3852 56.8922 86.1224 57.1058 86.3745 57.3387C87.3446 57.3003 87.7719 55.8259 87.9856 55.0888C87.9472 54.1187 87.9087 53.1486 87.3852 52.1978C86.5903 50.529 84.6118 49.6358 82.6716 49.7127C78.8105 50.3515 77.0818 55.7639 80.5732 58.0545C82.086 59.4519 84.5112 59.3558 86.1416 57.5909C86.6074 57.0866 86.1031 56.6208 85.3852 56.8922L85.1138 56.1742Z" fill="white"/>
<path id="Vector_10" d="M60.4724 83.3441C60.4724 83.3441 60.0065 83.8484 59.7736 84.1005C59.5407 84.3526 59.0749 84.8569 58.842 85.109C58.3762 85.6133 57.6775 86.3697 57.2117 86.8739C56.0471 88.1346 55.1155 89.1432 54.2031 90.6368C53.0385 91.8974 52.1069 92.906 50.9424 94.1666C50.4765 94.6709 50.0107 95.1752 49.312 95.9316C48.8462 96.4358 48.1475 97.1922 47.6817 97.6965C47.4488 97.9486 48.1859 98.1623 48.1859 98.1623C48.6517 97.658 49.3697 97.3867 50.3206 96.8632C50.7864 96.3589 51.2522 95.8547 51.9509 95.0983C53.1154 93.8376 54.28 92.5769 55.2116 91.5684C56.3761 90.3077 57.3078 89.2992 58.2202 87.8056C58.686 87.3013 59.1518 86.797 59.5984 85.8077C59.8313 85.5556 60.2971 85.0514 60.53 84.7992C60.7629 84.5471 60.9959 84.2949 61.2095 83.5578C61.4425 83.3056 60.686 82.6069 60.4531 82.859L60.4724 83.3441Z" fill="white"/>
<path id="Vector_11" d="M59.2723 79.5938C57.4283 82.0959 55.5843 84.598 53.003 86.8864C51.8385 88.1471 50.9069 89.1556 49.7423 90.4163C49.2765 90.9206 48.8107 91.4248 48.112 92.1812C47.6462 92.6855 46.9475 93.4419 46.4817 93.9462C46.4817 93.9462 46.5201 94.9163 46.9859 94.412C48.4218 93.8693 49.5864 92.6086 51.003 91.5809C52.1676 90.3202 53.0992 89.3117 54.2637 88.051C56.5928 85.5296 58.1847 82.7946 59.7766 80.0596L59.2723 79.5938Z" fill="white"/>
<path id="Vector_12" d="M57.0097 75.4487C54.467 78.7072 51.187 81.7521 48.3921 84.7777C46.9947 86.2905 45.0929 87.3375 43.4434 88.6174C42.7446 89.3738 41.7938 89.8973 40.8429 90.4208C40.1442 91.1772 38.9412 91.4678 38.2425 92.2242C38.0096 92.4763 38.0481 93.4464 38.766 93.175C39.7361 93.1365 40.6677 92.128 41.3857 91.8566C42.0844 91.1002 43.2874 90.8097 43.9861 90.0533C45.6357 88.7734 47.5182 87.2413 49.1678 85.9614C52.4477 82.9166 54.9905 79.658 57.514 75.9145L57.2619 75.6816L57.0097 75.4487Z" fill="white"/>
<path id="Vector_13" d="M51.2297 95.916C53.751 98.245 54.3899 102.106 53.3022 105.307C52.642 107.033 51.7104 108.042 50.3129 109.555C49.6142 110.311 49.1484 110.815 49.1868 111.786C48.9731 112.523 49.2637 113.726 49.0501 114.463C48.4475 117.644 46.1376 120.651 42.7615 121.271C42.5286 121.523 42.0436 121.542 41.5586 121.561C41.5586 121.561 41.0735 121.58 40.5884 121.6C40.3555 121.852 39.8897 122.356 39.6568 122.608C39.191 123.112 38.7252 123.617 38.4923 123.869C37.0948 125.382 35.9303 126.642 34.5328 128.155C32.864 128.95 31.409 129.008 29.6825 128.347C28.441 127.668 27.1803 126.503 27.3555 124.796C27.3171 123.826 26.0949 123.631 25.8812 124.369C24.7743 127.084 20.1184 126.054 17.8876 124.928C16.6462 124.249 15.8705 123.065 15.3278 121.629C15.0372 120.426 15.2317 119.204 16.4154 118.428C16.8813 117.924 16.6099 117.206 15.8727 116.993C13.6612 116.351 12.595 113.965 12.266 111.792C12.1698 109.366 13.5288 106.884 14.907 104.886C15.3728 104.381 15.8386 103.877 16.3044 103.373C16.5373 103.121 16.266 102.403 16.2468 101.918C16.2083 100.948 16.1699 99.9776 16.3643 98.7554C16.7724 96.796 17.6656 94.8174 19.0631 93.3046C20.6935 91.5396 22.8281 90.2405 25.0011 89.9114C25.2341 89.6593 25.6998 89.1551 25.9328 88.9029C26.2448 84.5183 31.2897 83.1038 34.685 82.9692C36.6251 82.8923 38.8174 83.0483 40.5439 83.7086C42.2704 84.3688 43.3174 86.2706 43.3751 87.7257C43.1806 88.9479 45.1208 88.871 45.3153 87.6488C45.4713 85.4565 43.92 83.089 41.9414 82.1958C39.7106 81.0697 37.0332 80.9329 34.608 81.0291C29.7576 81.2213 24.014 83.3922 23.7405 88.7469C23.9734 88.4948 24.2063 88.2427 24.6721 87.7384C17.9392 89.4627 13.6101 96.6784 14.8493 103.431L15.3152 102.926C12.4818 104.982 10.4241 108.221 10.5587 111.616C10.4411 114.779 12.2638 117.864 15.4646 118.952C15.2125 118.719 15.174 117.749 14.9218 117.516C13.7573 118.777 13.0971 120.503 13.4069 122.191C13.7359 124.364 14.9966 125.529 16.7423 126.674C19.7294 128.499 25.5884 129.238 27.1419 125.533C26.8898 125.3 25.9197 125.339 25.6675 125.106C25.5692 128.753 29.2935 130.792 32.4367 130.424C36.8021 130.251 39.5393 125.771 41.8299 122.279C41.8299 122.279 41.597 122.531 41.3641 122.783C45.9624 122.358 49.7081 118.809 50.5052 114.405C50.6996 113.183 50.3898 111.495 51.0885 110.739C52.0202 109.73 52.7189 108.974 53.6505 107.965C55.048 106.452 55.4369 104.008 55.3408 101.583C55.2446 99.1574 54.1784 96.7707 52.1613 94.9074C51.6571 94.4416 50.9583 95.198 51.4626 95.6638L51.2297 95.916Z" fill="white"/>
<path id="Vector_14" d="M43.4146 100.311C44.9851 103.164 43.4701 107.839 40.3462 108.691C40.3462 108.691 40.1133 108.944 39.8803 109.196C40.1902 110.884 39.5107 112.125 38.3462 113.386C37.8803 113.89 36.9295 114.414 36.2116 114.685C36.2116 114.685 35.4936 114.956 35.2414 114.723C35.2414 114.723 34.5043 114.51 34.0192 114.529C33.5342 114.548 33.5534 115.033 33.3205 115.285C33.0876 115.538 32.6218 116.042 32.1367 116.061C31.4188 116.332 30.4487 116.371 29.7115 116.157C27.7329 115.264 27.8889 113.072 29.0535 111.811C29.5193 111.307 29.015 110.841 28.297 111.112C25.6582 111.946 26.0641 116.059 28.0619 117.437C29.8269 119.067 33.4358 118.196 34.5619 115.965C34.5619 115.965 34.3291 116.217 34.0961 116.469C37.782 117.538 41.5277 113.989 40.8889 110.127C40.8889 110.127 40.656 110.379 40.4231 110.632C44.2458 109.023 46.2458 104.328 43.9189 100.777C43.6667 100.544 43.1817 100.563 43.4531 101.281L43.4146 100.311Z" fill="white"/>
<path id="Vector_15" d="M25.9873 108.033C25.9873 108.033 26.4531 107.529 27.1711 107.257C27.404 107.005 27.8698 106.501 28.1027 106.249C28.3356 105.997 27.8313 105.531 27.3463 105.55C27.0941 105.317 26.3762 105.588 25.9104 106.093C25.6775 106.345 25.4445 106.597 24.7266 106.868C24.4937 107.12 24.0279 107.625 24.5322 108.09C24.7843 108.323 25.2885 108.789 25.7543 108.285L25.9873 108.033Z" fill="white"/>
<path id="Vector_16" d="M31.6417 92.2989C31.6417 92.2989 27.5477 93.1899 26.4024 94.9356C25.005 96.4484 24.6161 98.8929 25.6631 100.795C25.9152 101.027 26.4002 101.008 26.381 100.523C26.2464 97.1279 28.2849 93.4036 31.9323 93.5019C32.4174 93.4827 32.631 92.7455 31.8939 92.5318L31.6417 92.2989Z" fill="white"/>
<path id="Vector_17" d="M96.0193 67.6551C94.6411 69.6529 93.7479 71.6315 92.6219 73.8623C91.9231 74.6187 91.7287 75.8409 90.7971 76.8494C90.0983 77.6058 89.4188 78.8473 88.9722 79.8366C88.5064 80.3409 89.4957 80.7875 89.7286 80.5353C91.359 78.7704 92.2329 76.3067 93.3783 74.561C94.5043 72.3302 95.3975 70.3516 96.2715 67.888C96.5044 67.6358 95.7672 67.4222 95.7672 67.4222L96.0193 67.6551Z" fill="white"/>
<path id="Vector_18" d="M92.2578 69.6753C92.2578 69.6753 90.433 72.6625 89.5206 74.1561C89.0548 74.6603 88.6081 75.6497 88.3944 76.3868C87.9286 76.8911 87.2299 77.6475 87.7534 78.5983C87.7534 78.5983 88.2577 79.0642 88.5098 79.2971C88.9756 78.7928 89.4414 78.2886 89.6551 77.5514C90.1209 77.0471 90.3154 75.8248 90.7812 75.3206C91.4415 73.5941 92.1018 71.8676 92.7813 70.6262C93.0142 70.374 92.277 70.1604 92.277 70.1604L92.2578 69.6753Z" fill="white"/>
<path id="Vector_19" d="M88.6732 71.0525C88.6732 71.0525 88.013 72.779 87.3142 73.5354C86.8484 74.0397 86.1497 74.7961 85.7031 75.7854C85.4702 76.0376 85.9745 76.5034 86.4595 76.4841C88.1283 75.6893 88.7501 72.9927 89.1583 71.0333L88.654 70.5675L88.6732 71.0525Z" fill="white"/>
<path id="Vector_20" d="M65.7922 78.0879C65.7922 78.0879 64.8606 79.0964 64.1619 79.8528C63.6961 80.3571 63.2303 80.8614 62.5315 81.6178C62.0657 82.122 61.5999 82.6263 60.9012 83.3827C60.4354 83.887 60.2024 84.1391 60.2409 85.1092L60.7452 85.575C61.211 85.0708 61.4439 84.8186 61.9097 84.3143C62.3756 83.8101 62.8414 83.3058 63.5401 82.5494C64.0059 82.0451 64.4717 81.5409 64.9183 80.5516C65.3841 80.0473 65.5978 79.3101 65.8115 78.573C66.0444 78.3208 65.3072 78.1071 65.3072 78.1071L65.7922 78.0879Z" fill="white"/>
<path id="Vector_21" d="M64.2687 76.2069C64.2687 76.2069 62.6576 78.4568 61.726 79.4654C61.2602 79.9696 60.7943 80.4739 60.3285 80.9782C59.8627 81.4825 59.3969 81.9867 58.9311 82.491C58.6982 82.7431 58.9696 83.4611 59.6875 83.1897C60.4055 82.9184 60.8712 82.4141 61.1041 82.162C61.57 81.6577 62.2687 80.9013 62.7345 80.397C63.6662 79.3885 64.3456 78.147 65.0059 76.4205C65.4717 75.9163 64.4824 75.4697 64.2495 75.7218L64.2687 76.2069Z" fill="white"/>
<path id="Vector_22" d="M62.0695 74.0364C62.0695 74.0364 60.2255 76.5385 59.3131 78.0321C58.8473 78.5363 58.3815 79.0406 57.6828 79.797C57.2169 80.3013 56.7511 80.8056 57.0225 81.5235C57.0225 81.5235 57.2746 81.7564 57.5267 81.9893C58.9819 81.9317 59.8751 79.953 60.5546 78.7116C61.7191 77.4509 62.3794 75.7244 62.8067 74.2501C63.2725 73.7458 62.0503 73.5514 61.8174 73.8035L62.0695 74.0364Z" fill="white"/>
<path id="Vector_23" d="M60.0734 72.6673C60.0734 72.6673 58.2101 74.6844 58.0157 75.9066C57.317 76.663 56.1524 77.9237 56.928 79.1074L57.4323 79.5732C58.6353 79.2827 59.0626 77.8083 59.7613 77.0519C60.693 76.0434 60.8875 74.8212 61.567 73.5797C62.0328 73.0755 60.7913 72.396 60.8106 72.881L60.0734 72.6673Z" fill="white"/>
<path id="Vector_24" d="M57.5592 70.8125C57.5592 70.8125 56.181 72.8103 55.7344 73.7996C55.0357 74.556 54.337 75.3124 53.8904 76.3017C53.4246 76.806 54.4139 77.2525 54.6468 77.0004C56.5485 75.9534 57.9075 73.4706 59.0336 71.2398C59.4994 70.7355 58.2579 70.056 58.025 70.3082L57.5592 70.8125Z" fill="white"/>
<path id="Vector_25" d="M69.5351 36.5962C67.9048 38.3612 67.0116 40.3398 65.6333 42.3377C64.9346 43.0941 64.488 44.0834 63.8085 45.3248C63.1098 46.0812 62.4303 47.3226 61.7508 48.5641C61.285 49.0683 62.2936 50 62.7594 49.4957C64.3897 47.7308 65.0307 45.5193 66.409 43.5214C67.5351 41.2907 68.6804 39.5449 69.8065 37.3142L69.3022 36.8484L69.5351 36.5962Z" fill="white"/>
<path id="Vector_26" d="M64.5671 40.4468C64.5671 40.4468 62.9559 42.6968 62.0435 44.1904C61.5777 44.6946 61.1119 45.1989 60.6653 46.1882C60.1995 46.6925 59.7337 47.1967 60.0051 47.9147L60.5093 48.3805C60.9752 47.8762 61.441 47.372 61.9068 46.8677C62.3726 46.3634 62.8384 45.8592 63.0521 45.122C63.7316 43.8806 64.4111 42.6391 65.0906 41.3977C65.3235 41.1455 64.5671 40.4468 64.5863 40.9318L64.5671 40.4468Z" fill="white"/>
<path id="Vector_27" d="M59.8235 42.5486C59.8235 42.5486 58.8918 43.5572 58.6781 44.2944C58.2123 44.7986 57.9794 45.0507 58.2508 45.7687C58.2508 45.7687 58.5029 46.0016 58.755 46.2345C59.2209 45.7302 59.4537 45.4781 59.9196 44.9739C60.3854 44.4696 60.599 43.7324 60.8127 42.9952C61.2785 42.491 60.2892 42.0444 60.0563 42.2965L59.8235 42.5486Z" fill="white"/>
<path id="Vector_28" d="M72.6487 37.2579C72.6487 37.2579 73.3859 37.4716 73.8709 37.4524C73.8709 37.4524 74.5889 37.181 74.8218 36.9289C74.8218 36.9289 75.0547 36.6768 74.8025 36.4438C74.5504 36.2109 74.2983 35.978 73.8132 35.9973C73.8132 35.9973 73.0953 36.2686 72.6103 36.2878C72.1444 36.7921 71.9115 37.0442 72.6487 37.2579Z" fill="white"/>
<path id="Vector_29" d="M121.409 28.4892C121.409 28.4892 120.069 31.4571 119.389 32.6985C118.924 33.2028 118.458 33.707 118.244 34.4442C117.778 34.9485 117.313 35.4528 117.351 36.4229L117.855 36.8887C119.039 36.1131 119.951 34.6194 120.379 33.1451C121.291 31.6515 121.719 30.1772 122.398 28.9357C122.631 28.6836 121.894 28.4699 121.894 28.4699L121.409 28.4892Z" fill="white"/>
<path id="Vector_30" d="M121.27 24.6065C119.872 26.1193 118.746 28.35 117.349 29.8628C116.65 30.6192 115.951 31.3756 115.253 32.132C114.787 32.6363 113.855 33.6448 113.894 34.6149C113.894 34.6149 114.146 34.8478 114.398 35.0807C115.116 34.8094 115.795 33.5679 116.261 33.0636C116.96 32.3072 117.659 31.5508 118.105 30.5615C119.503 29.0487 120.376 26.5851 121.522 24.8394C121.522 24.8394 121.018 24.3736 121.27 24.6065Z" fill="white"/>
<path id="Vector_31" d="M121.083 20.7634C119.686 22.2762 118.288 23.789 116.891 25.3018C115.494 26.8146 114.096 28.3274 113.203 30.306C113.203 30.306 113.474 31.024 113.707 30.7719C115.105 29.2591 116.502 27.7463 117.899 26.2334C119.297 24.7206 120.694 23.2079 121.588 21.2292C121.82 20.9771 121.083 20.7634 121.083 20.7634Z" fill="white"/>
<path id="Vector_32" d="M120.497 16.3638C118.866 18.1287 117.488 20.1266 115.877 22.3766C114.945 23.3851 114.247 24.1415 113.567 25.3829C112.869 26.1393 111.937 27.1479 111.742 28.3701L112.247 28.8359C112.945 28.0795 113.644 27.3231 114.343 26.5667C115.274 25.5582 115.721 24.5689 116.401 23.3274C117.779 21.3296 119.157 19.3317 120.283 17.1009C120.516 16.8488 119.779 16.6351 119.779 16.6351L120.497 16.3638Z" fill="white"/>
<path id="Vector_33" d="M118.22 14.2291C116.59 15.9941 114.959 17.759 113.6 20.2419C112.902 20.9983 111.97 22.0068 111.523 22.9961C110.825 23.7525 109.893 24.7611 109.699 25.9833L110.203 26.4491C110.902 25.6927 111.833 24.6842 112.532 23.9278C113.464 22.9193 114.162 22.1628 114.842 20.9214C116.472 19.1564 117.85 17.1586 118.976 14.9278C119.442 14.4236 118.453 13.977 118.22 14.2291Z" fill="white"/>
<path id="Vector_34" d="M115.247 12.4031C113.616 14.168 112.219 15.6808 110.841 17.6787C110.142 18.4351 109.21 19.4437 109.016 20.6659C108.317 21.4223 107.637 22.6637 107.191 23.653C106.958 23.9052 107.947 24.3518 107.947 24.3518C108.646 23.5954 109.578 22.5868 110.024 21.5975C110.723 20.8411 111.402 19.5996 111.849 18.6103C113.227 16.6125 114.373 14.8667 115.751 12.8689C115.984 12.6168 115.247 12.4031 115.247 12.4031Z" fill="white"/>
<path id="Vector_35" d="M109.667 13.8887C109.667 13.8887 108.503 15.1494 107.804 15.9058C107.105 16.6622 106.639 17.1664 105.941 17.9228C105.242 18.6792 104.776 19.1835 104.077 19.9399C103.379 20.6963 102.913 21.2006 102.699 21.9377C102.233 22.442 103.223 22.8886 103.456 22.6365C103.689 22.3843 103.921 22.1322 104.387 21.6279C104.62 21.3758 105.086 20.8715 105.319 20.6194C105.785 20.1151 106.483 19.3587 106.949 18.8545C107.648 18.0981 108.114 17.5938 108.56 16.6045C109.259 15.8481 109.473 15.1109 109.686 14.3737L109.182 13.9079L109.667 13.8887Z" fill="white"/>
<path id="Vector_36" d="M104.642 14.273C104.642 14.273 102.312 16.7944 102.137 18.5017L102.641 18.9675C104.058 17.9397 104.971 16.4461 105.398 14.9717C105.631 14.7196 104.874 14.0209 104.642 14.273Z" fill="white"/>
<path id="Vector_37" d="M100.027 16.2484C100.027 16.2484 99.3282 17.0048 99.3474 17.4898C99.1145 17.7419 99.1337 18.227 98.9201 18.9642C98.9201 18.9642 99.4243 19.43 99.1722 19.1971C99.8709 18.4407 100.337 17.9364 100.783 16.9471C101.249 16.4428 100.26 15.9963 100.027 16.2484Z" fill="white"/>
<path id="Vector_38" d="M120.494 36.5821C120.494 36.5821 120.532 37.5522 120.066 38.0565C119.601 38.5607 119.872 39.2787 120.823 38.7552C121.522 37.9988 122.22 37.2424 121.697 36.2915C121.192 35.8257 120.475 36.097 120.494 36.5821Z" fill="white"/>
<path id="Vector_39" d="M120.556 38.0404C120.556 38.0404 119.257 35.9057 118.734 34.9549C118.21 34.004 117.687 33.0532 116.911 31.8694C116.659 31.6365 115.941 31.9079 116.212 32.6258C116.736 33.5767 117.259 34.5275 118.035 35.7113C118.791 36.41 119.334 37.8459 119.858 38.7968C120.362 39.2626 120.828 38.7583 120.556 38.0404Z" fill="white"/>
<path id="Vector_40" d="M103.685 39.5918C103.685 39.5918 102.578 42.3076 101.413 43.5682C100.482 44.5768 99.55 45.5853 98.3855 46.846C98.1526 47.0981 98.4047 47.331 98.8898 47.3118C101.509 45.9935 103.315 42.5213 104.17 39.5725C104.403 39.3204 103.413 38.8738 103.433 39.3589L103.685 39.5918Z" fill="white"/>
<path id="Vector_41" d="M103.21 35.5472C101.812 37.06 100.434 39.0578 99.5411 41.0365C98.8424 41.7929 98.3958 42.7822 97.9492 43.7715C97.2505 44.5279 96.8039 45.5172 96.8423 46.4873L97.0945 46.7202C97.7932 45.9638 98.4919 45.2074 99.1906 44.451C99.8894 43.6946 100.336 42.7053 100.783 41.7159C101.928 39.9702 103.306 37.9724 104.199 35.9938C104.432 35.7417 103.676 35.0429 103.695 35.528L103.21 35.5472Z" fill="white"/>
<path id="Vector_42" d="M100.82 35.1098C99.1894 36.8748 98.2962 38.8534 96.918 40.8513C96.2193 41.6077 95.7727 42.597 95.0932 43.8384C94.3945 44.5948 93.9479 45.5841 93.7534 46.8063L94.0056 47.0392C94.7043 46.2828 95.403 45.5265 96.1017 44.7701C96.8004 44.0136 97.247 43.0243 97.9265 41.7829C99.0719 40.0372 100.45 38.0393 101.343 36.0607C101.809 35.5564 100.82 35.1098 100.587 35.362L100.82 35.1098Z" fill="white"/>
<path id="Vector_43" d="M98.3547 33.7619C97.1902 35.0226 96.0257 36.2833 95.3654 38.0098L93.5021 40.0268C93.5021 40.0268 92.8419 41.7533 92.8803 42.7234L93.3846 43.1892C94.5683 42.4136 95.7137 40.6679 96.3739 38.9414C97.5385 37.6807 98.1987 35.9542 98.859 34.2277C99.0919 33.9756 98.3547 33.7619 98.3547 33.7619Z" fill="white"/>
<path id="Vector_44" d="M95.5712 32.2086C95.5712 32.2086 93.7272 34.7108 92.8148 36.2043C92.349 36.7086 92.1353 37.4458 91.6887 38.4351C91.2229 38.9393 90.7571 39.4436 90.7956 40.4137C90.5627 40.6658 91.3191 41.3645 91.552 41.1124C92.0178 40.6081 92.4836 40.1039 92.9494 39.5996C93.4152 39.0953 93.8618 38.1061 94.0755 37.3689C94.9879 35.8753 95.4152 34.401 96.3276 32.9074C96.7935 32.4031 95.8041 31.9565 95.5712 32.2086Z" fill="white"/>
<path id="Vector_45" d="M91.235 32.8612C91.235 32.8612 90.5748 34.5878 90.3611 35.3249C89.8953 35.8292 89.1965 36.5856 89.4679 37.3035C89.235 37.5557 89.9722 37.7693 90.2243 38.0022C91.641 36.9745 92.282 34.763 92.7094 33.2886C92.923 32.5514 91.7009 32.3569 91.4872 33.0941L91.235 32.8612Z" fill="white"/>
<path id="Vector_46" d="M85.4177 51.8046C85.4177 51.8046 84.7383 53.0461 84.5246 53.7832C84.0588 54.2875 83.5929 54.7918 83.6122 55.2769C83.6122 55.2769 83.8643 55.5098 84.1164 55.7427C85.8045 55.4328 86.4455 53.2213 87.3771 52.2128C87.5908 51.4756 86.3686 51.2811 86.1549 52.0183L85.4177 51.8046Z" fill="white"/>
<path id="Vector_47" d="M83.7162 51.6156C83.7162 51.6156 82.7846 52.6241 82.5517 52.8762L82.0858 53.3805C81.8529 53.6326 81.62 53.8848 81.8721 54.1177C81.6392 54.3698 82.6285 54.8164 82.6285 54.8164C82.8614 54.5643 83.0944 54.3121 83.3273 54.06L83.7931 53.5557C84.2589 53.0514 84.7247 52.5472 84.7055 52.0621C85.1713 51.5579 83.9299 50.8784 83.6969 51.1305L83.7162 51.6156Z" fill="white"/>
<path id="Vector_48" d="M119.5 40.6811C119.5 40.6811 118.415 37.8093 117.406 36.8777C116.397 35.9461 115.118 34.2965 114.128 33.8499L113.663 34.3541C114.167 34.82 114.671 35.2858 115.175 35.7516C115.68 36.2174 116.184 36.6832 116.688 37.149C117.192 37.6149 117.697 38.0807 118.453 38.7794C118.957 39.2452 119.462 39.711 119.733 40.429L119.5 40.6811Z" fill="white"/>
</g>
</svg>
