<svg width="44" height="64" viewBox="0 0 44 64" fill="none" xmlns="http://www.w3.org/2000/svg">
<g id="Frame 5441">
<path id="Vector" d="M36.4304 5.01016C36.4304 5.01016 36.5412 5.07173 36.652 5.13331C36.8244 5.08408 37.0584 4.92403 36.8983 4.69007C36.8983 4.69007 36.7999 4.3453 36.6275 4.39453C36.1842 4.14823 35.7779 4.35751 35.3715 4.56679C34.7928 4.8253 34.3249 5.14539 33.8077 5.29309C32.7611 5.8717 31.776 6.3395 30.7293 6.9181C28.87 7.91526 27.0106 8.91243 25.4713 10.3775C23.9321 11.8426 22.8853 13.7264 21.7277 15.5486C20.6193 17.5432 19.5109 19.5378 18.4026 21.5324C17.7868 22.6405 17.1095 23.8594 16.4937 24.9675C16.1858 25.5215 15.8779 26.0756 15.5701 26.6297C15.2622 27.1837 14.9543 27.7378 14.5848 28.4026C14.4001 28.7351 15.065 29.1045 15.2497 28.7721C15.496 28.3288 15.8039 27.7748 16.0502 27.3315C16.2965 26.8883 16.6044 26.3342 16.8507 25.891C17.4049 24.8937 17.959 23.8964 18.5132 22.8991C19.6216 20.9045 20.73 18.9099 21.8383 16.9153C22.8236 15.1424 23.8703 13.2586 25.188 11.6703C26.5056 10.0821 28.3158 8.91256 30.1751 7.9154C31.2218 7.33679 32.2685 6.75819 33.4259 6.24116C34.0047 5.98264 34.4726 5.66255 35.1129 5.29323C35.3469 5.13318 35.5808 4.97314 35.9256 4.87467C35.9256 4.87467 35.9256 4.87467 36.098 4.82543C36.098 4.82543 36.098 4.82543 36.2088 4.88701L35.9872 4.76386L36.4304 5.01016Z" fill="#252525"/>
<path id="Vector_2" d="M36.5187 5.05194C36.8263 7.10824 37.2447 9.22611 37.5524 11.2824C37.8107 13.1663 37.8967 15.0995 37.3055 16.9464C36.7143 18.7932 35.6675 20.677 34.7439 22.3392C33.6971 24.223 32.6503 26.1067 31.3819 27.8674C30.8277 28.8647 30.1011 29.9112 29.4361 30.8469C29.1283 31.401 28.8819 31.8442 28.4633 32.3367C28.3401 32.5583 28.1554 32.8907 28.0322 33.1124C27.8475 33.4448 27.7859 33.5556 27.712 33.9496C27.6504 34.0604 27.9829 34.2452 28.1552 34.1959C28.3892 34.0359 28.5616 33.9866 28.7956 33.8266C28.9187 33.605 29.1034 33.2725 29.2266 33.0509C29.4729 32.6077 29.7192 32.1644 30.1379 31.672C30.6921 30.6747 31.4063 29.9113 31.9605 28.914C33.1181 27.0918 34.3373 25.1588 35.3841 23.275C36.3693 21.5021 37.4161 19.6183 38.0689 17.6606C38.7216 15.7029 38.808 13.7205 38.5496 11.8366C38.2544 9.4971 37.6759 7.14527 37.2698 4.7442C37.1713 4.39942 36.6542 4.54712 36.7526 4.89189L36.5187 5.05194Z" fill="#252525"/>
<path id="Vector_3" d="M15.3088 28.9469C15.3088 28.9469 15.2472 29.0577 15.1856 29.1685C15.124 29.2794 15.2841 29.5133 15.2225 29.6241C15.321 29.9689 15.3086 30.2521 15.4071 30.5969C15.4932 31.2248 15.5178 31.9636 15.7147 32.6532C15.8132 32.9979 16.4904 33.0842 16.5151 32.5178C16.429 31.8898 16.232 31.2003 16.0351 30.5107C15.9366 30.166 15.9489 29.8828 15.8505 29.538C15.752 29.1932 15.7644 28.91 15.4812 28.8977C15.4812 28.8977 15.592 28.9593 15.7028 29.0208C15.592 28.9593 15.3703 28.8361 15.358 29.1193L15.3088 28.9469Z" fill="#252525"/>
<path id="Vector_4" d="M27.6031 34.1886C27.6031 34.1886 27.0859 34.3363 26.6796 34.5456C26.4456 34.7056 26.1009 34.8041 25.8669 34.9641C25.2882 35.2227 24.7587 35.6536 24.1799 35.9121C23.7736 36.1214 24.0813 36.8725 24.5492 36.5524C25.0172 36.2323 25.6575 35.863 26.1254 35.5429C26.3594 35.3828 26.5933 35.2228 26.8273 35.0627C27.0613 34.9027 27.2952 34.7427 27.5907 34.4718C27.6523 34.361 27.5539 34.0162 27.4307 34.2378L27.6031 34.1886Z" fill="#252525"/>
<path id="Vector_5" d="M17.0648 33.2692C17.0648 33.2692 17.0279 32.8137 16.9171 32.7521C16.6955 32.6289 16.5847 32.5673 16.3631 32.4442C16.0306 32.2595 15.8336 32.8751 16.0552 32.9982C17.2125 33.7864 18.4315 34.4637 19.6504 35.1411C20.2044 35.4489 20.8693 35.8184 21.4233 36.1263C21.9774 36.4342 22.6423 36.8036 23.2579 37.0007C23.7011 37.247 23.9598 36.5206 23.6273 36.3358C23.0733 36.0279 22.4084 35.6585 21.8544 35.3506C21.3003 35.0427 20.6355 34.6733 20.0814 34.3654C18.8625 33.6881 17.7544 33.0723 16.5355 32.395C16.4123 32.6166 16.3507 32.7274 16.3384 33.0106C16.56 33.1337 16.7816 33.2569 17.0033 33.38C17.0033 33.38 17.2249 33.5032 17.1756 33.3308L17.0648 33.2692Z" fill="#252525"/>
<path id="Vector_6" d="M16.1461 33.1864C16.1461 33.1864 15.7274 33.6789 15.4319 33.9497C15.2471 34.2822 15.0624 34.6146 14.8777 34.947C14.4467 35.7227 14.7544 36.4738 15.5301 36.9049C16.5274 37.4591 17.5247 38.0132 18.5835 38.4566C19.5808 39.0108 20.6889 39.6266 21.7478 40.0699C21.9694 40.1931 22.1418 40.1438 22.2034 40.033C22.9669 39.4421 23.0655 38.4817 23.3857 37.6444C23.632 37.2012 23.866 37.0412 24.2107 36.9427C24.6171 36.7334 25.1342 36.5857 25.0973 36.1301C25.2205 35.9085 24.7772 35.6622 24.6541 35.8838C24.4694 36.2162 23.903 36.1916 23.5582 36.29C23.1519 36.4993 22.8563 36.7702 22.61 37.2134C22.2406 37.8783 22.2528 38.9003 21.6001 39.5528C21.7109 39.6144 21.9449 39.4543 22.0557 39.5159C20.1719 38.4691 18.165 37.6439 16.2196 36.7079C15.8872 36.5232 15.3824 36.3877 15.2839 36.0429C15.2347 35.8706 15.3086 35.4765 15.4317 35.2549C15.6165 34.9225 15.7396 34.7009 15.9243 34.3684C16.1091 34.036 16.2322 33.8144 16.023 33.408C16.023 33.408 15.9121 33.3465 15.8013 33.2849L16.1461 33.1864Z" fill="#252525"/>
<path id="Vector_7" d="M28.2955 33.701C28.2955 33.701 27.9508 33.7994 27.7168 33.9595C27.6552 34.0703 27.372 34.0579 27.2489 34.2796C27.2489 34.2796 27.2981 34.452 27.4089 34.5135C27.5197 34.5751 27.7537 34.4151 27.9261 34.3658C27.9876 34.255 28.16 34.2058 28.394 34.0457C28.5171 33.8241 28.4679 33.6517 28.1847 33.6394L28.2955 33.701Z" fill="#252525"/>
<path id="Vector_8" d="M16.2607 28.475C16.2607 28.475 16.1622 28.1302 16.113 27.9579C16.0514 28.0687 15.7682 28.0563 15.5958 28.1056C15.8051 28.5119 16.1868 28.869 16.5192 29.0538C16.8516 29.2385 17.1717 29.7064 17.615 29.9527C18.3291 30.4945 19.0432 31.0364 19.9296 31.529C21.5918 32.4526 23.2047 33.2039 25.1132 33.6843C26.1228 33.9553 27.194 34.1155 28.2653 34.2756C28.6593 34.3496 28.6347 33.6108 28.2407 33.5369C25.9259 33.2657 23.7958 32.6622 21.6288 31.603C20.6315 31.0489 19.6342 30.4947 18.6369 29.9405C18.1937 29.6942 17.7012 29.2755 17.3196 28.9184C16.8763 28.6721 16.507 28.0318 16.0637 27.7855C15.8421 27.6623 15.485 28.044 15.8174 28.2287C16.0391 28.3519 16.1499 28.4134 16.1991 28.5858C16.1991 28.5858 16.3099 28.6474 16.2607 28.475Z" fill="#252525"/>
<path id="Vector_9" d="M15.4701 36.7302C15.4701 36.7302 14.2634 37.0748 13.7955 37.3949C13.3276 37.715 12.9705 38.0966 12.7734 38.7123C12.5271 39.1555 12.6748 39.6727 12.9949 40.1406C13.2165 40.2638 13.2657 40.4361 13.4874 40.5593C13.709 40.6824 14.1646 40.6456 14.263 40.9903C14.3738 41.0519 14.1891 41.3843 14.1275 41.4951C14.0044 41.7168 13.8197 42.0492 13.6965 42.2708C13.3886 42.8249 13.0192 43.4897 12.7113 44.0438C12.4034 44.5978 12.2556 45.3859 12.0585 46.0015C11.923 46.5063 11.8983 47.0727 12.1076 47.479C12.3661 48.0578 12.9818 48.2549 13.4497 47.9348C13.9668 47.7871 14.2747 47.233 14.521 46.7898C14.2994 46.6666 14.0778 46.5435 13.8562 46.4203C13.7207 46.9251 13.6344 47.6023 13.9545 48.0703C14.2746 48.5382 14.9518 48.6244 15.4197 48.3044C15.8876 47.9843 15.9123 47.4179 16.0478 46.913C16.1217 46.519 15.9864 45.7187 16.5035 45.571L15.9495 45.2631C15.9495 45.2631 16.1957 46.125 16.4049 46.5314C16.5034 46.8762 16.959 46.8393 17.0821 46.6176C17.7595 45.3987 18.5476 44.2414 19.0526 43.0717C19.0526 43.0717 18.8186 43.2317 18.6462 43.281C19.619 43.0964 20.4932 42.567 20.9243 41.7913C21.3553 41.0157 21.6879 39.8952 21.0969 39.1318C20.8753 39.0086 20.6413 39.1686 20.6906 39.341C20.6659 39.9074 20.6412 40.4738 20.4441 41.0895C20.1363 41.6435 19.89 42.0867 19.3112 42.3453C19.0773 42.5053 18.6832 42.4314 18.4493 42.5914C18.3261 42.8131 18.203 43.0347 18.0798 43.2563C17.9567 43.4779 17.8951 43.5887 17.7719 43.8104C17.3409 44.586 16.8483 45.4725 16.4173 46.2482L17.0945 46.3344C17.0945 46.3344 16.8483 45.4725 16.7006 44.9554C16.6514 44.783 16.4297 44.6598 16.1465 44.6475C15.691 44.6844 15.3339 45.066 15.1984 45.5708C14.9521 46.0141 15.0998 46.5312 15.0258 46.9253C14.9643 47.0361 14.878 47.7133 14.6564 47.5901C14.324 47.4054 14.521 46.7898 14.5334 46.5066C14.7181 46.1741 13.9424 45.7431 13.8685 46.1371C13.7453 46.3587 13.499 46.802 13.2651 46.962C12.9203 47.0605 12.8218 46.7157 12.8342 46.4325C12.8589 45.8661 12.9944 45.3613 13.1298 44.8565C13.4377 44.3024 13.4624 43.736 13.7703 43.182C14.0782 42.6279 14.3245 42.1847 14.6324 41.6306C14.8171 41.2982 15.0634 40.855 14.9649 40.5102C14.928 40.0546 14.5464 39.6975 14.1524 39.6236C13.9307 39.5004 13.8199 39.4388 13.5983 39.3157C13.4875 39.2541 13.389 38.9093 13.4506 38.7985C13.4137 38.3429 13.66 37.8997 14.1279 37.5796C14.2511 37.358 14.5959 37.2595 14.9406 37.1611C14.9406 37.1611 15.1746 37.001 15.347 36.9518C15.347 36.9518 15.4701 36.7302 15.6425 36.6809C15.7041 36.5701 15.6549 36.3977 15.5441 36.3361L15.4701 36.7302Z" fill="#252525"/>
<path id="Vector_10" d="M15.8955 36.6752C15.8955 36.6752 15.9201 36.1088 15.5261 36.0349C15.0829 35.7886 14.7258 36.1702 14.3194 36.3795C13.322 37.1305 12.3246 37.8815 11.438 38.6941C10.5513 39.5066 9.71396 40.4916 9.04897 41.4273C8.55636 42.3138 7.54659 43.348 7.84199 44.3823C8.02659 45.355 9.43023 45.6999 9.92284 44.8135L9.14717 44.3824C8.21119 46.3278 7.54607 48.5687 6.94251 50.6988C6.75779 51.0312 7.20102 51.2775 7.60737 51.0682C7.77976 51.019 7.98904 51.4253 7.92746 51.5361C8.02593 51.8809 7.84121 52.2134 7.76729 52.6074C7.61946 53.3954 7.58243 54.245 7.43459 55.033C7.13892 56.609 6.67087 58.2343 6.092 59.798C5.96885 60.0196 6.17813 60.4259 6.46133 60.4383C7.48331 60.4261 8.13595 59.7735 8.6778 59.0595C9.28121 58.2345 9.71225 57.4589 10.6973 56.9911C11.5716 56.4617 12.7783 56.1171 13.0001 54.935C13.1356 54.4302 13.0494 53.8023 13.2957 53.359C13.3573 53.2482 13.4805 53.0266 13.7637 53.0389C14.0469 53.0513 14.2069 53.2852 14.5517 53.1868C15.1181 53.2114 15.6476 52.7805 16.0047 52.3989C16.3741 51.734 16.4604 51.0568 16.5467 50.3796C16.4235 50.6012 16.3619 50.712 16.128 50.8721C17.6548 50.9954 19.0832 49.4687 18.8617 48.0404C18.8002 48.1512 18.677 48.3728 18.6154 48.4836C18.7262 48.5452 18.8986 48.4959 19.1203 48.6191C19.3419 48.7422 19.5758 48.5822 19.6374 48.4714C20.7827 46.9324 21.7063 45.2702 22.4083 43.4849C22.7286 42.6477 22.8764 41.8597 23.0858 40.9608C23.1721 40.2836 23.0367 39.4833 22.6058 38.9538C22.3349 38.6582 21.6946 39.0275 21.9039 39.4339C22.224 39.9018 22.3101 40.5298 22.1131 41.1454C21.9652 41.9334 21.7066 42.6599 21.4479 43.3863C20.8691 44.95 20.1178 46.5629 18.9849 47.8187C19.0957 47.8803 19.3297 47.7203 19.4405 47.7818C19.108 47.5971 18.714 47.5232 18.3693 47.6217C18.2585 47.5601 18.0737 47.8925 18.123 48.0649C18.246 49.1485 17.4086 50.1334 16.2758 50.0841C16.0542 49.9609 15.8695 50.2933 15.8571 50.5765C15.8324 51.1429 15.8077 51.7093 15.4999 52.2634C15.3767 52.485 15.3151 52.5958 15.032 52.5835C14.798 52.7435 14.5764 52.6204 14.3547 52.4972C13.9115 52.2509 13.3328 52.5094 13.0865 52.9527C12.8401 53.3959 12.5938 53.8391 12.6307 54.2947C12.6061 54.8611 12.5321 55.2551 12.175 55.6368C11.8179 56.0185 11.3008 56.1662 10.8944 56.3754C10.4881 56.5847 10.0817 56.794 9.72459 57.1757C9.42905 57.4465 9.07194 57.8282 8.88721 58.1606C8.51776 58.8255 7.96357 59.8228 6.94159 59.835C7.16321 59.9581 7.15087 60.2413 7.31092 60.4753C8.18532 58.6408 8.55491 56.6707 8.9245 54.7007C9.06 54.1959 9.0231 53.7403 9.15859 53.2355C9.23251 52.8415 9.36801 52.3366 9.33112 51.881C9.19575 51.0807 8.54322 50.428 7.7921 50.7358C8.01372 50.8589 8.23535 50.9821 8.45697 51.1052C8.99894 49.086 9.7133 47.0175 10.5385 45.0105C10.7848 44.5673 10.1199 44.1978 9.7628 44.5795C9.70123 44.6903 9.3688 44.5056 9.31956 44.3332C9.04871 44.0377 9.35658 43.4836 9.47973 43.262C9.97234 42.3755 10.6373 41.4398 11.3516 40.6764C12.1274 39.8023 12.8416 39.039 13.6666 38.3372C14.0238 37.9555 14.4917 37.6355 15.0212 37.2046C15.1443 36.9829 15.3783 36.8229 15.7231 36.7244C15.7231 36.7244 15.7846 36.6136 15.8955 36.6752C15.7107 37.0076 16.2156 37.1431 16.3387 36.9215L15.8955 36.6752Z" fill="#252525"/>
<path id="Vector_11" d="M27.1484 10.1522C28.8352 11.8146 30.7066 13.1446 32.9351 14.0929C33.9324 14.6471 34.9421 14.9181 36.1241 15.1399C36.5181 15.2138 37.0229 15.3493 37.4785 15.3124C37.9341 15.2755 38.3897 15.2386 38.636 14.7953C38.636 14.7953 38.5867 14.623 38.4759 14.5614C38.2543 14.4382 38.0819 14.4875 37.848 14.6475C37.6756 14.6967 37.3924 14.6844 37.22 14.7336C36.7644 14.7705 36.3704 14.6966 35.8656 14.5611C34.8559 14.2901 33.8463 14.0191 32.849 13.465C30.8421 12.6398 29.0814 11.3714 27.444 9.88134C27.2224 9.75819 26.9268 10.029 27.0869 10.263L27.1484 10.1522Z" fill="#252525"/>
<path id="Vector_12" d="M30.7266 14.4547C29.2614 14.2206 27.9684 15.2424 27.4019 16.5229C26.663 17.8526 27.0445 19.5149 28.2511 20.4755C29.3468 21.3744 30.9721 21.8425 32.3635 21.1654C33.9274 20.4391 34.7525 18.4322 34.0878 16.7575C33.78 16.0064 33.1275 15.3538 32.4134 14.8119C31.6378 14.3809 30.8621 13.9498 30.0001 14.196C29.6554 14.2945 29.7538 14.6393 29.9755 14.7624C31.0959 15.095 32.3272 15.4891 33.0782 16.4865C33.8784 17.6563 33.6443 19.1216 32.4129 20.0326C31.4771 20.6728 30.1719 20.6727 29.2362 20.0077C28.2389 19.4535 27.7834 18.1852 28.116 17.0647C28.5101 15.8335 29.6923 14.7501 30.8866 14.6886C30.9974 14.7502 31.0714 14.3562 30.9605 14.2946L30.7266 14.4547Z" fill="#252525"/>
<path id="Vector_13" d="M26.4725 23.1209C26.4725 23.1209 26.5957 22.8992 26.768 22.85C26.9404 22.8008 26.9528 22.5176 26.9035 22.3452C26.3495 22.0373 25.586 22.6283 25.2289 23.0099C24.921 23.564 24.9456 24.3028 25.3765 24.8323C25.869 25.251 26.5954 25.5096 27.1741 25.2511C27.7529 24.9926 28.0115 24.2661 27.9254 23.6382C27.8269 23.2934 27.5561 22.9979 27.2236 22.8131C26.8912 22.6284 26.4972 22.5545 26.2017 22.8253C26.1401 22.9361 26.0169 23.1578 26.2386 23.2809C26.4602 23.4041 26.571 23.4656 26.7926 23.5888C27.0142 23.7119 27.0635 23.8843 27.1127 24.0567C27.1496 24.5123 26.7432 24.7216 26.3492 24.6477C25.9552 24.5738 25.5736 24.2166 25.8199 23.7734C25.943 23.5518 26.0046 23.441 26.1277 23.2193C26.2509 22.9977 26.6449 23.0716 26.8173 23.0224L26.374 22.7761C26.374 22.7761 26.2509 22.9977 26.1893 23.1085C26.1893 23.1085 26.2386 23.2809 26.4109 23.2317L26.4725 23.1209Z" fill="#252525"/>
<path id="Vector_14" d="M21.5625 16.902C19.6419 15.3997 17.0561 16.1382 15.406 17.5417C14.4578 18.4651 13.7312 19.5116 12.9431 20.6689C12.2042 21.9987 11.5268 23.2176 10.6771 24.4857C9.9382 25.8155 9.19928 27.1452 8.41114 28.3025C7.79538 29.4106 6.83485 30.6172 7.17949 31.8239C7.4749 32.8582 8.69381 33.5356 9.58043 32.723C10.5163 32.0828 10.6272 30.8392 11.1198 29.9527C11.6864 28.6722 12.5361 27.4041 13.7059 26.6039C14.8141 25.9144 16.0208 25.5698 17.2521 25.9639C17.7569 26.0994 17.9663 25.2006 17.3999 25.1759C15.2083 24.6832 13.0657 25.668 11.7481 27.2562C10.9107 28.2412 10.4057 29.4109 9.96235 30.4698C9.65447 31.0238 9.48196 32.3782 8.58313 32.1688C8.18912 32.0949 7.9306 31.5162 7.89371 31.0606C7.91839 30.4942 8.22628 29.9401 8.53416 29.3861C9.2115 28.1672 9.88882 26.9482 10.6154 25.9017C11.2927 24.6828 11.9701 23.4639 12.7582 22.3065C13.374 21.1984 13.9897 20.0903 14.8271 19.1054C15.5537 18.0588 16.6127 17.197 17.7086 16.7908C18.8045 16.3846 20.1097 16.3847 21.0946 17.2221C21.427 17.4068 21.7842 17.0252 21.5133 16.7296L21.5625 16.902Z" fill="#252525"/>
<path id="Vector_15" d="M34.3662 24.8954C36.1269 24.8586 37.2349 26.7796 37.1116 28.3064C37.0622 29.4392 36.508 30.4364 36.0154 31.3229C35.4613 32.3202 34.6239 33.3052 33.9589 34.2409C32.5057 36.334 31.0526 38.427 29.5995 40.5201C29.5379 40.6309 29.0453 41.5174 28.8236 41.3942C28.602 41.2711 28.8483 40.8278 28.7991 40.6554C29.0454 40.2122 29.2917 39.769 29.538 39.3257C29.8459 38.7717 30.1538 38.2176 30.4001 37.7744C30.708 37.2203 31.0774 36.5555 31.3853 36.0014C31.6316 35.5582 31.8287 34.9425 31.5702 34.3638C31.2132 33.4403 30.1051 32.8245 29.2555 32.7875C28.8615 32.7136 28.8368 33.28 29.0584 33.4031C29.5016 33.6494 29.8341 33.8342 30.2773 34.0805C30.6097 34.2652 30.819 34.6715 30.8067 34.9547C30.6835 35.1764 30.5604 35.398 30.4372 35.6196C30.2525 35.952 30.0678 36.2845 29.8831 36.6169C29.5752 37.1709 29.2673 37.725 28.9594 38.2791C28.4668 39.1655 27.6294 40.1505 27.814 41.1232C27.8509 41.5788 28.2326 41.9359 28.6882 41.899C29.1437 41.8621 29.5501 41.6529 29.7964 41.2096C30.6954 40.1139 31.3111 39.0058 32.0993 37.8484C32.8874 36.6911 33.614 35.6445 34.4021 34.4872C35.1287 33.4407 35.8553 32.3941 36.5818 31.3476C37.136 30.3503 37.7518 29.2422 37.8011 28.1094C37.9983 26.1886 36.4595 23.7382 34.2308 24.095C33.886 24.1935 33.9229 24.6491 34.2677 24.5506L34.3662 24.8954Z" fill="#252525"/>
<path id="Vector_16" d="M13.7149 39.0862C13.7149 39.0862 14.8108 38.6799 15.2171 38.4707C15.7959 38.2122 16.313 38.0644 16.781 37.7444C17.0149 37.5843 16.8672 37.0671 16.6333 37.2272C16.1161 37.3749 15.6482 37.695 15.0694 37.9535C14.4907 38.212 14.0228 38.5321 13.5549 38.8522C13.4933 38.963 13.4809 39.2462 13.6533 39.197L13.7149 39.0862Z" fill="#252525"/>
<path id="Vector_17" d="M13.5958 40.0379C14.4578 39.7917 15.2705 39.3731 16.1324 39.127C16.5388 38.9177 16.9451 38.7084 17.2407 38.4375C17.5362 38.1667 18.0534 38.019 18.1273 37.625C18.1273 37.625 18.1273 37.625 18.0165 37.5634C17.6224 37.4895 17.3269 37.7603 17.0314 38.0312C16.625 38.2405 16.3295 38.5113 15.9231 38.7206C15.1104 39.1392 14.2977 39.5577 13.485 39.9763C13.3127 40.0255 13.3003 40.3087 13.5835 40.3211L13.5958 40.0379Z" fill="#252525"/>
<path id="Vector_18" d="M14.3547 41.3251C15.389 41.0297 16.3125 40.6727 17.1868 40.1433C17.5931 39.934 18.061 39.6139 18.529 39.2938C18.6521 39.0722 18.9969 38.9738 19.2309 38.8137C19.354 38.5921 19.4156 38.4813 19.5387 38.2597C19.5387 38.2597 19.4895 38.0873 19.3171 38.1365C19.1447 38.1857 18.9723 38.235 18.7384 38.395C18.6152 38.6166 18.2704 38.7151 18.0981 38.7643C17.6917 38.9736 17.2238 39.2937 16.8174 39.503C15.9432 40.0324 15.0197 40.3893 14.207 40.8079C14.1454 40.9187 14.133 41.2019 14.3054 41.1527L14.3547 41.3251Z" fill="#252525"/>
<path id="Vector_19" d="M13.9465 43.1333C15.2148 42.6779 16.4338 42.05 17.5421 41.3606C18.1824 40.9913 18.6503 40.6712 19.2906 40.3019C19.7585 39.9818 20.5097 39.674 20.8175 39.12C20.8791 39.0092 20.8299 38.8368 20.5959 38.9968C19.968 39.0829 19.4385 39.5139 18.909 39.9448C18.3795 40.3757 17.8007 40.6342 17.1604 41.0035C16.0522 41.6929 14.8331 42.3207 13.7249 43.0102C13.6633 43.121 13.651 43.4042 13.8849 43.2441L13.9465 43.1333Z" fill="#252525"/>
<path id="Vector_20" d="M13.7299 44.4677C14.9982 44.0122 16.328 43.446 17.5471 42.8181C18.1258 42.5596 18.7661 42.1903 19.2956 41.7594C19.8743 41.5009 20.5147 41.1316 20.9334 40.6391C20.9949 40.5283 20.8349 40.2943 20.6625 40.3435C20.3177 40.442 20.0838 40.602 19.8498 40.7621C19.6158 40.9221 19.2095 41.1314 18.9755 41.2915C18.3352 41.6608 17.8673 41.9809 17.227 42.3502C16.0079 42.978 14.8997 43.6675 13.6806 44.2953C13.6806 44.2953 13.5575 44.5169 13.7299 44.4677Z" fill="#252525"/>
<path id="Vector_21" d="M13.4095 45.8786C14.4438 45.5832 15.5397 45.177 16.414 44.6476C16.8819 44.3275 17.3991 44.1798 17.867 43.8598C18.3349 43.5397 18.9136 43.2811 19.1599 42.8379C19.2831 42.6163 19.123 42.3823 18.9507 42.4316C18.4335 42.5793 18.0764 42.9609 17.6085 43.281C17.1405 43.6011 16.7342 43.8104 16.2663 44.1305C15.392 44.6598 14.4069 45.1276 13.4218 45.5954C13.4218 45.5954 13.2987 45.8171 13.5819 45.8294L13.4095 45.8786Z" fill="#252525"/>
<path id="Vector_22" d="M13.1814 47.0538C14.1665 46.5861 15.1515 46.1183 16.0874 45.4781C16.2105 45.2565 16.2229 44.9733 15.8781 45.0717C14.7822 45.4779 13.8464 46.1181 12.9721 46.6475C12.7381 46.8075 13.009 47.1031 13.1814 47.0538Z" fill="#252525"/>
<path id="Vector_23" d="M20.2227 17.1729C19.9148 17.7269 19.6069 18.281 19.2374 18.9458C18.9296 19.4999 18.5601 20.1647 18.2522 20.7188C17.9443 21.2728 17.6365 21.8269 17.267 22.4918C16.9591 23.0458 16.6512 23.5999 16.4542 24.2155C16.3926 24.3263 16.6758 24.3386 16.6758 24.3386C16.9837 23.7846 17.2916 23.2305 17.661 22.5657C17.9689 22.0116 18.3383 21.3468 18.6462 20.7927C18.9541 20.2387 19.262 19.6846 19.6314 19.0197C19.9393 18.4657 20.2472 17.9116 20.4443 17.296L20.3335 17.2344L20.2227 17.1729Z" fill="#252525"/>
<path id="Vector_24" d="M19.4773 16.4698C18.6152 18.0212 17.8147 19.4617 16.9526 21.0131C16.5216 21.7887 16.1521 22.4536 15.7211 23.2293C15.5364 23.5617 15.2901 24.0049 15.1054 24.3374C14.9206 24.6698 14.7359 25.0022 14.5512 25.3347C14.5512 25.3347 14.662 25.3963 14.7728 25.4578C15.0068 25.2978 15.2531 24.8545 15.5486 24.5837C15.7333 24.2513 15.9796 23.808 16.1644 23.4756C16.5954 22.6999 17.0264 21.9242 17.3959 21.2594C18.258 19.708 19.0584 18.2675 19.8097 16.6546C19.8713 16.5437 19.6496 16.4206 19.5881 16.5314L19.4773 16.4698Z" fill="#252525"/>
<path id="Vector_25" d="M18.4006 16.3136C17.4769 17.9758 16.5533 19.6379 15.6296 21.3001C15.1986 22.0758 14.706 22.9623 14.1642 23.6764C13.9179 24.1196 13.7331 24.452 13.4868 24.8953C13.3637 25.1169 13.2405 25.3385 13.1174 25.5601C12.9942 25.7818 12.8711 26.0034 12.8095 26.1142C12.8095 26.1142 12.8587 26.2866 13.0311 26.2373C13.4375 26.0281 13.6838 25.5848 13.8685 25.2524C14.1148 24.8092 14.2995 24.4767 14.5458 24.0335C15.0384 23.147 15.4695 22.3713 16.0729 21.5464C16.9965 19.8842 17.9202 18.2221 18.733 16.4984C18.7946 16.3875 18.5729 16.2644 18.5114 16.3752L18.4006 16.3136Z" fill="#252525"/>
<path id="Vector_26" d="M16.9844 17.2598C15.8144 19.3652 14.6445 21.4706 13.4745 23.576C12.9204 24.5733 12.3046 25.6814 11.7504 26.6787C11.4425 27.2327 11.1962 27.676 10.8883 28.23C10.7652 28.4516 10.5805 28.7841 10.4573 29.0057C10.3342 29.2273 10.1494 29.5597 10.0263 29.7814L10.2479 29.9045C10.371 29.6829 10.4942 29.4613 10.6789 29.1288C10.8021 28.9072 10.9868 28.5748 11.11 28.3532C11.4178 27.7991 11.6641 27.3559 11.972 26.8018C12.5262 25.8045 13.142 24.6964 13.6962 23.6991C14.8661 21.5937 16.0361 19.4883 16.9844 17.2598Z" fill="#252525"/>
<path id="Vector_27" d="M14.3945 19.8828C13.3477 21.7666 12.3625 23.5396 11.3157 25.4233C10.8231 26.3098 10.3305 27.1963 9.77633 28.1936C9.53002 28.6368 9.22215 29.1909 8.97584 29.6341C8.72954 30.0774 8.48323 30.5206 8.23693 30.9639C8.11378 31.1855 8.4462 31.3702 8.56936 31.1486C8.81566 30.7054 9.06197 30.2621 9.30827 29.8189C9.55458 29.3756 9.80088 28.9324 10.0472 28.4891C10.5398 27.6027 11.094 26.6054 11.5866 25.7189C12.6334 23.8351 13.5078 22.0006 14.4438 20.0552L14.3945 19.8828Z" fill="#252525"/>
<path id="Vector_28" d="M33.9648 24.8105C33.2259 26.1403 32.487 27.47 31.7481 28.7997C31.3786 29.4646 31.0092 30.1295 30.6397 30.7943C30.2703 31.4592 29.9008 32.124 29.5314 32.7889C29.4082 33.0105 29.7406 33.1953 29.8638 32.9736C30.2333 32.3088 30.6027 31.6439 30.9722 30.979C31.3416 30.3142 31.7111 29.6493 32.0805 28.9845C32.8194 27.6547 33.5584 26.325 34.1865 24.9337L33.9648 24.8105Z" fill="#252525"/>
<path id="Vector_29" d="M35.4431 24.7758C34.5318 26.1548 33.6821 27.4229 32.7708 28.8019C32.4013 29.4668 32.0319 30.1316 31.49 30.8457C31.1206 31.5106 30.5787 32.2247 30.3201 32.9511C30.2585 33.0619 30.4801 33.1851 30.6525 33.1359C31.2436 32.5941 31.5022 31.8677 32.0441 31.1536C32.4135 30.4887 32.8446 29.7131 33.214 29.0482C34.0145 27.6077 34.8642 26.3395 35.6647 24.899C35.7879 24.6774 35.5663 24.5542 35.3323 24.7143L35.4431 24.7758Z" fill="#252525"/>
<path id="Vector_30" d="M36.3842 25.7266C35.4729 27.1055 34.4508 28.4229 33.5395 29.8019C33.17 30.4667 32.6282 31.1808 32.1479 31.7841C31.7169 32.5598 31.2366 33.1631 30.6948 33.8772C30.5716 34.0988 30.9533 34.4559 31.138 34.1235C32.1601 32.8061 32.9606 31.3656 33.8719 29.9866C34.6724 28.5461 35.6945 27.2287 36.5566 25.6773C36.6182 25.5665 36.3965 25.4434 36.335 25.5542L36.3842 25.7266Z" fill="#252525"/>
<path id="Vector_31" d="M36.6626 26.747C35.8005 28.2983 35 29.7389 34.0271 31.2286C33.5961 32.0043 33.0543 32.7184 32.574 33.3217C32.3893 33.6541 32.0322 34.0358 31.7366 34.3066C31.5519 34.6391 31.1948 35.0207 31.0101 35.3532C30.9485 35.464 31.1085 35.6979 31.2317 35.4763C31.9336 34.9962 32.3646 34.2205 32.9064 33.5064C33.3375 32.7307 33.9901 32.0782 34.3596 31.4134C35.2216 29.862 36.0837 28.3107 36.9458 26.7593C37.0073 26.6485 36.7857 26.5253 36.7242 26.6362L36.6626 26.747Z" fill="#252525"/>
<path id="Vector_32" d="M37.0892 27.8622C35.8208 29.6229 34.6632 31.4451 33.5672 33.1565C33.0746 34.043 32.4096 34.9787 31.8061 35.8036C31.3135 36.6901 30.5377 37.5642 30.2667 38.5739C30.1436 38.7955 30.476 38.9802 30.5992 38.7586C31.3134 37.9952 31.8676 36.998 32.3602 36.1115C32.8528 35.225 33.407 34.2277 34.0104 33.4028C35.0572 31.519 36.2148 29.6968 37.3724 27.8746C37.434 27.7638 37.2124 27.6406 37.1508 27.7514L37.0892 27.8622Z" fill="#252525"/>
<path id="Vector_33" d="M29.5484 8.15493C29.5484 8.15493 28.8834 9.09065 28.6371 9.53389C28.3908 9.97713 27.9721 10.4696 27.8366 10.9744C27.775 11.0852 27.9351 11.3192 28.169 11.1592C28.4153 10.7159 28.7232 10.1619 29.0803 9.7802C29.3882 9.22614 29.6345 8.7829 29.9424 8.22885C30.004 8.11804 29.7824 7.99488 29.7208 8.10569L29.5484 8.15493Z" fill="#252525"/>
<path id="Vector_34" d="M30.9176 7.60516C30.6097 8.15922 30.0802 8.59012 29.7108 9.25498C29.5876 9.4766 29.4029 9.80903 29.2797 10.0307C29.1566 10.2523 28.861 10.5231 28.7871 10.9171C28.7255 11.028 28.9472 11.1511 29.1195 11.1019C29.3535 10.9418 29.4767 10.7202 29.5998 10.4986C29.7845 10.1661 29.9077 9.94453 30.0924 9.61209C30.4003 9.05804 30.7082 8.50399 31.1885 7.9007C31.25 7.78989 31.09 7.55593 30.9668 7.77755L30.9176 7.60516Z" fill="#252525"/>
<path id="Vector_35" d="M32.3567 6.80391C31.6301 7.85044 30.9036 8.89697 30.1154 10.0543C29.8691 10.4976 29.3396 10.9285 29.3765 11.384C29.4257 11.5564 29.8074 11.9135 29.9306 11.6919C29.9306 11.6919 29.9306 11.6919 29.9429 11.4087C30.0661 11.1871 30.1276 11.0763 30.2508 10.8547C30.4971 10.4114 30.6818 10.079 30.9281 9.63576C31.4207 8.74927 31.8518 7.9736 32.3444 7.08711C32.4675 6.86549 32.1351 6.68076 32.0119 6.90238L32.3567 6.80391Z" fill="#252525"/>
<path id="Vector_36" d="M34.2855 5.70539C33.6698 6.81349 32.9432 7.86002 32.2782 8.79574C31.9703 9.34979 31.6624 9.90385 31.3545 10.4579C31.0467 11.012 30.7388 11.566 30.4925 12.0092C30.3693 12.2309 30.7018 12.4156 30.8249 12.194C31.2436 11.7015 31.3791 11.1967 31.7978 10.7042C32.1057 10.1501 32.4135 9.5961 32.7214 9.04205C33.3372 7.93394 33.9529 6.82583 34.5071 5.82854C34.6303 5.60691 34.2979 5.42219 34.1747 5.64381L34.2855 5.70539Z" fill="#252525"/>
<path id="Vector_37" d="M35.8504 4.97396C35.0499 6.4145 34.0278 7.73189 33.2273 9.17242C32.8578 9.83729 32.4268 10.613 32.0574 11.2778C31.6263 12.0535 31.1461 12.6568 30.8258 13.494C30.7027 13.7157 31.0843 14.0728 31.2691 13.7403C31.3922 13.5187 31.5154 13.2971 31.7493 13.1371C31.8109 13.0262 31.7617 12.8539 31.5277 13.0139C31.2938 13.1739 31.1214 13.2232 30.8874 13.3832L31.2075 13.8512C31.6878 13.2479 32.008 12.4106 32.4883 11.8073C32.9193 11.0317 33.2887 10.3668 33.7198 9.59112C34.5203 8.15058 35.3208 6.71004 36.1828 5.15869C36.306 4.93707 35.9735 4.75234 35.8504 4.97396Z" fill="#252525"/>
<path id="Vector_38" d="M36.4341 6.02806C35.7567 7.24698 35.0178 8.57671 34.3405 9.79562C33.971 10.4605 33.6631 11.0145 33.2937 11.6794C33.1089 12.0118 32.9242 12.3443 32.7395 12.6767C32.5548 13.0091 32.4316 13.2308 32.2469 13.5632C32.1853 13.674 32.4685 13.6863 32.5793 13.7479C32.8133 13.5879 32.998 13.2554 33.232 13.0954C33.4167 12.763 33.6014 12.4305 33.7862 12.0981C34.1556 11.4332 34.4635 10.8792 34.8329 10.2143C35.5103 8.9954 36.2492 7.66567 36.7049 6.3236C36.8281 6.10198 36.4956 5.91725 36.3725 6.13887L36.4341 6.02806Z" fill="#252525"/>
<path id="Vector_39" d="M37.2028 7.04329C36.587 8.15139 36.0821 9.32108 35.5279 10.3184C35.22 10.8724 34.9121 11.4265 34.6042 11.9805C34.2964 12.5346 33.9885 13.0886 33.7422 13.5319C33.619 13.7535 33.9514 13.9382 34.1854 13.7782C34.6041 13.2857 34.8012 12.6701 35.0475 12.2268C35.3554 11.6728 35.6632 11.1187 35.9711 10.5647C36.5869 9.45657 37.0918 8.28688 37.5352 7.22801C37.6583 7.00639 37.2151 6.76009 37.2028 7.04329Z" fill="#252525"/>
<path id="Vector_40" d="M37.196 9.06062C36.7034 9.94711 36.2723 10.7228 35.7797 11.6093C35.5334 12.0525 35.2871 12.4958 35.0408 12.939C34.8561 13.2714 34.6098 13.7147 34.425 14.0471L34.6467 14.1703C35.053 13.961 35.2993 13.5177 35.484 13.1853C35.7303 12.7421 35.9766 12.2988 36.223 11.8556C36.7156 10.9691 37.0358 10.1318 37.4176 9.18377C37.5407 8.96215 37.1467 8.88824 37.0851 8.99905L37.196 9.06062Z" fill="#252525"/>
<path id="Vector_41" d="M37.5797 10.7291C37.2718 11.2831 36.9024 11.948 36.5945 12.502C36.4098 12.8345 36.2866 13.0561 36.1019 13.3885C35.9171 13.7209 35.7324 14.0534 35.6093 14.275C35.5477 14.3858 35.8185 14.6813 36.0525 14.5213C36.2865 14.3613 36.3604 13.9672 36.5451 13.6348C36.7298 13.3024 36.9146 12.9699 37.0993 12.6375C37.4072 12.0835 37.6658 11.357 37.8629 10.7414C37.986 10.5198 37.592 10.4459 37.5305 10.5567L37.5797 10.7291Z" fill="#252525"/>
<path id="Vector_42" d="M37.1903 13.2688C37.1903 13.2688 37.0056 13.6012 36.8824 13.8229C36.7593 14.0445 36.6977 14.1553 36.6361 14.2661L36.8578 14.3893C36.9193 14.2784 37.0425 14.0568 37.1041 13.946C37.2272 13.7244 37.2888 13.6136 37.412 13.392C37.5351 13.1703 37.2027 12.9856 37.0795 13.2072L37.1903 13.2688Z" fill="#252525"/>
<path id="Vector_43" d="M26.5667 10.407C28.1918 12.1802 30.2972 13.3502 32.4642 14.4093C33.3507 14.9019 34.4095 15.3453 35.4192 15.6163C35.8624 15.8626 36.318 15.8257 36.8844 15.8504C37.106 15.9735 37.34 15.8135 37.6232 15.8258C37.9064 15.8381 38.1403 15.6781 38.4235 15.6904C38.9899 15.7151 38.7438 14.8532 38.2758 15.1733C38.1527 15.3949 37.7587 15.321 37.4755 15.3086C37.2539 15.1855 37.0199 15.3455 36.7367 15.3332C36.2811 15.3701 35.7763 15.2346 35.3331 14.9883C34.3234 14.7173 33.4369 14.2247 32.4889 13.8429C30.4943 12.7345 28.6721 11.5769 26.8006 10.2469C26.6898 10.1854 26.5667 10.407 26.6775 10.4686L26.5667 10.407Z" fill="#252525"/>
<path id="Vector_44" d="M30.2336 14.763C29.7041 15.1939 29.113 15.7356 28.5835 16.1665C28.3988 16.4989 28.054 16.5974 27.8693 16.9298C27.6845 17.2622 27.3398 17.3607 27.155 17.6931C27.0319 17.9148 27.2535 18.0379 27.4875 17.8779C27.7214 17.7178 28.017 17.447 28.2509 17.2869C28.4356 16.9545 28.842 16.7452 29.076 16.5852C29.6055 16.1543 30.0857 15.551 30.5044 15.0585C30.6276 14.8369 30.406 14.7137 30.2828 14.9353L30.2336 14.763Z" fill="#252525"/>
<path id="Vector_45" d="M31.0453 14.9174C30.3434 15.3975 29.6907 16.05 29.0997 16.5918L28.1515 17.5151C28.1515 17.5151 27.4988 18.1677 27.2033 18.4385C27.0801 18.6601 27.351 18.9557 27.5849 18.7956C27.9913 18.5863 28.176 18.2539 28.4716 17.9831C28.6563 17.6506 29.1242 17.3305 29.4197 17.0597C30.0724 16.4072 30.6635 15.8654 31.2053 15.1513C31.3285 14.9297 31.1684 14.6958 30.9345 14.8558L31.0453 14.9174Z" fill="#252525"/>
<path id="Vector_46" d="M31.115 16.125C31.115 16.125 31.3613 15.6817 31.6445 15.6941C31.706 15.5833 31.7676 15.4725 31.546 15.3493C31.3244 15.2262 31.2012 15.4478 31.1397 15.5586C31.0165 15.7802 30.8441 15.8294 30.6101 15.9895C30.253 16.3712 29.9575 16.642 29.6004 17.0237C28.9477 17.6762 28.1843 18.2672 27.6424 18.9813C27.5193 19.2029 27.7286 19.6092 27.9625 19.4492C28.726 18.8582 29.3786 18.2057 30.0313 17.5532C30.3268 17.2823 30.6839 16.9007 30.9795 16.6298C31.1026 16.4082 31.3366 16.2481 31.5706 16.0881C31.6937 15.8665 31.7553 15.7557 31.8169 15.6449C31.8169 15.6449 31.5952 15.5217 31.4844 15.4601C31.3613 15.6818 31.2381 15.9034 31.1766 16.0142C31.1766 16.0142 31.2258 16.1866 31.2874 16.0758L31.115 16.125Z" fill="#252525"/>
<path id="Vector_47" d="M31.8442 16.0859C31.1916 16.7384 30.5389 17.391 29.8863 18.0435C29.7016 18.3759 29.2336 18.696 28.9381 18.9669C28.6426 19.2377 28.2362 19.447 28.1007 19.9518C28.0391 20.0626 28.2608 20.1858 28.3223 20.075C28.6671 19.9765 29.135 19.6564 29.4306 19.3856C29.7261 19.1147 30.0832 18.733 30.4403 18.3514C31.093 17.6988 31.6348 16.9847 32.1767 16.2707C32.2998 16.049 32.0782 15.9259 31.8442 16.0859Z" fill="#252525"/>
<path id="Vector_48" d="M32.5123 16.47C31.8597 17.1226 31.3794 17.7259 30.7268 18.3784C30.542 18.7108 30.1357 18.9201 29.7786 19.3018C29.483 19.5726 29.0767 19.7819 28.892 20.1143C28.7688 20.3359 28.9289 20.5699 29.1628 20.4099C29.5076 20.3114 29.8647 19.9297 30.1602 19.6589C30.4558 19.388 30.8129 19.0063 31.1084 18.7355C31.7611 18.083 32.2414 17.4797 32.6724 16.704C32.7955 16.4824 32.5739 16.3592 32.34 16.5193L32.5123 16.47Z" fill="#252525"/>
<path id="Vector_49" d="M33.3397 17.0781C32.8594 17.6814 32.3299 18.1123 31.7388 18.654C31.5541 18.9864 31.2093 19.0849 30.9138 19.3557C30.6183 19.6266 30.2119 19.8359 30.0272 20.1683C29.904 20.3899 30.0025 20.7347 30.2365 20.5747C30.9876 20.2669 31.4678 19.6636 32.0589 19.1219C32.65 18.5802 33.1303 17.9769 33.6105 17.3736C33.7337 17.152 33.4628 16.8565 33.2781 17.1889L33.3397 17.0781Z" fill="#252525"/>
<path id="Vector_50" d="M33.067 18.3721C33.067 18.3721 32.4021 19.3078 31.9341 19.6279C31.811 19.8496 31.577 20.0096 31.343 20.1696C31.2199 20.3913 30.8751 20.4897 30.752 20.7114C30.6288 20.933 30.8504 21.0561 31.0228 21.0069C31.306 21.0192 31.4907 20.6868 31.7247 20.5267C31.8479 20.3051 32.2542 20.0959 32.3774 19.8742C32.6852 19.3202 33.0424 18.9385 33.4611 18.446C33.5842 18.2244 33.2518 18.0397 33.1286 18.2613L33.067 18.3721Z" fill="#252525"/>
<path id="Vector_51" d="M26.9829 22.9733C26.9829 22.9733 26.3426 23.3426 26.0471 23.6135C25.9239 23.8351 25.456 24.1552 25.616 24.3892C25.616 24.3892 25.616 24.3892 25.7268 24.4507C26.01 24.4631 26.084 24.0691 26.3179 23.909C26.5026 23.5766 26.8474 23.4781 27.143 23.2073C27.2045 23.0965 27.2169 22.8133 27.0445 22.8625L26.9829 22.9733Z" fill="#252525"/>
<path id="Vector_52" d="M16.3404 28.8089C16.3404 28.8089 16.2295 30.0525 16.3156 30.6805C16.3033 30.9637 16.4018 31.3085 16.3894 31.5917C16.3771 31.8749 16.4755 32.2196 16.6356 32.4536C16.6356 32.4536 16.8572 32.5768 16.808 32.4044C16.9311 32.1828 16.8327 31.838 16.7834 31.6656C16.685 31.3208 16.6973 31.0376 16.5988 30.6929C16.5127 30.0649 16.5374 29.4985 16.4512 28.8705C16.5128 28.7597 16.1188 28.6858 16.2296 28.7474L16.3404 28.8089Z" fill="#252525"/>
<path id="Vector_53" d="M17.2702 29.7491C16.9623 30.3032 16.7652 30.9188 16.7405 31.4852C16.7282 31.7684 16.7159 32.0516 16.8143 32.3963C16.802 32.6795 16.7896 32.9627 17.1837 33.0367C17.3068 32.815 17.3684 32.7042 17.2083 32.4703C17.2207 32.1871 17.1222 31.8423 17.1345 31.5591C17.1592 30.9927 17.3563 30.3771 17.4918 29.8722C17.6149 29.6506 17.2209 29.5767 17.1594 29.6875L17.2702 29.7491Z" fill="#252525"/>
<path id="Vector_54" d="M18.5148 30.4395C18.5148 30.4395 17.8991 31.5476 17.5912 32.1016C17.468 32.3233 17.2833 32.6557 17.1602 32.8773C17.037 33.0989 16.9139 33.3206 17.0123 33.6653C17.0123 33.6653 17.2339 33.7885 17.3448 33.8501C17.5787 33.69 17.5911 33.4068 17.7758 33.0744C17.8989 32.8528 18.0837 32.5203 18.2068 32.2987C18.5147 31.7447 18.601 31.0674 18.8473 30.6242C18.9704 30.4026 18.5764 30.3287 18.5148 30.4395Z" fill="#252525"/>
<path id="Vector_55" d="M19.3412 31.0549C19.3412 31.0549 18.787 32.0522 18.5407 32.4954C18.4176 32.717 18.2944 32.9387 18.1097 33.2711C17.9866 33.4927 17.925 33.6035 17.9126 33.8867C17.9126 33.8867 18.0235 33.9483 18.1343 34.0099C18.3067 33.9607 18.4298 33.739 18.553 33.5174C18.6761 33.2958 18.7993 33.0742 18.984 32.7417C19.2303 32.2985 19.5382 31.7444 19.7845 31.3012C19.9076 31.0796 19.5752 30.8948 19.452 31.1165L19.3412 31.0549Z" fill="#252525"/>
<path id="Vector_56" d="M20.3288 31.5992C20.3288 31.5992 19.6761 32.2517 19.4298 32.6949C19.2451 33.0274 18.7772 33.3475 18.6417 33.8523C18.5185 34.0739 18.8509 34.2586 19.0849 34.0986C19.4913 33.8893 19.6267 33.3845 19.9223 33.1136C20.1686 32.6704 20.4149 32.2271 20.5996 31.8947C20.7228 31.6731 20.3903 31.4884 20.2672 31.71L20.3288 31.5992Z" fill="#252525"/>
<path id="Vector_57" d="M21.0738 32.1523C21.0738 32.1523 20.298 33.0264 19.9409 33.4081C19.7561 33.7405 19.1158 34.1098 19.0911 34.6762L19.3128 34.7994C19.596 34.8117 19.7191 34.5901 19.8423 34.3685C19.9654 34.1469 20.0886 33.9253 20.3225 33.7652C20.5688 33.322 20.9875 32.8295 21.3447 32.4478C21.4678 32.2262 21.1969 31.9307 21.0122 32.2631L21.0738 32.1523Z" fill="#252525"/>
<path id="Vector_58" d="M21.7747 32.8442C21.7747 32.8442 21.0112 33.4351 20.6541 33.8168C20.4694 34.1492 19.8291 34.5186 20.0384 34.9249C20.0384 34.9249 20.1492 34.9865 20.26 35.0481C20.654 35.122 20.9619 34.5679 21.1466 34.2355C21.3929 33.7923 21.7993 33.583 22.1564 33.2013C22.3411 32.8689 22.0087 32.6841 21.7747 32.8442Z" fill="#252525"/>
<path id="Vector_59" d="M23.5573 33.0951C23.5573 33.0951 22.5599 33.8461 22.0304 34.277C21.9072 34.4986 21.5625 34.5971 21.2669 34.8679C21.1438 35.0895 20.799 35.188 20.7866 35.4712C20.7251 35.582 20.8359 35.6436 21.0083 35.5944C21.2299 35.7175 21.587 35.3358 21.821 35.1758C21.9441 34.9542 22.2889 34.8557 22.5844 34.5849C23.0524 34.2648 23.5818 33.8339 24.0005 33.3414C24.1237 33.1198 23.9636 32.8858 23.7297 33.0458L23.5573 33.0951Z" fill="#252525"/>
<path id="Vector_60" d="M24.5546 33.6519C24.5546 33.6519 23.508 34.2306 23.04 34.5506C22.5721 34.8707 22.1042 35.1908 21.7963 35.7449C21.7963 35.7449 21.7347 35.8557 21.784 36.0281C21.784 36.0281 21.784 36.0281 21.8948 36.0896C21.8948 36.0896 22.0056 36.1512 22.178 36.102C22.6459 35.7819 23.003 35.4002 23.4709 35.0801C23.9389 34.7601 24.296 34.3784 24.7639 34.0583C24.8871 33.8367 24.7886 33.4919 24.5546 33.6519Z" fill="#252525"/>
<path id="Vector_61" d="M25.682 33.9904C25.682 33.9904 24.6353 34.569 24.1058 34.9999C23.9827 35.2215 23.6379 35.3199 23.4039 35.48C23.2808 35.7016 22.936 35.8001 22.8129 36.0217C22.6897 36.2433 22.9113 36.3665 23.1453 36.2064C23.4285 36.2188 23.5516 35.9972 23.7856 35.8371C23.9088 35.6155 24.2535 35.517 24.5491 35.2462C25.017 34.9261 25.4849 34.606 25.9528 34.2859C26.1868 34.1258 25.9775 33.7195 25.6327 33.818L25.682 33.9904Z" fill="#252525"/>
<path id="Vector_62" d="M27.3567 34.051C27.3567 34.051 26.1993 34.568 25.6698 34.9989C25.2018 35.319 24.5615 35.6883 24.2044 36.07C24.1428 36.1808 24.3029 36.4148 24.4753 36.3656C25.054 36.107 25.4727 35.6146 26.0514 35.356C26.5193 35.036 27.1597 34.6666 27.7384 34.4081C27.9724 34.2481 27.7631 33.8417 27.5291 34.0018L27.3567 34.051Z" fill="#252525"/>
</g>
</svg>
