<svg width="59" height="59" viewBox="0 0 59 59" fill="none" xmlns="http://www.w3.org/2000/svg">
<g id="Samodzielno&#197;&#155;&#196;&#135;">
<path d="M19.6667 9.83333C19.6667 15.2641 15.2641 19.6667 9.83333 19.6667C4.40253 19.6667 0 15.2641 0 9.83333C0 4.40253 4.40253 0 9.83333 0C15.2641 0 19.6667 4.40253 19.6667 9.83333Z" fill="#60DC74"/>
<path d="M39.3333 9.83333C39.3333 15.2641 34.9308 19.6667 29.5 19.6667C24.0692 19.6667 19.6667 15.2641 19.6667 9.83333C19.6667 4.40253 24.0692 0 29.5 0C34.9308 0 39.3333 4.40253 39.3333 9.83333Z" fill="#60DC74"/>
<path d="M59 9.83333C59 15.2641 54.5975 19.6667 49.1667 19.6667C43.7359 19.6667 39.3333 15.2641 39.3333 9.83333C39.3333 4.40253 43.7359 0 49.1667 0C54.5975 0 59 4.40253 59 9.83333Z" fill="#60DC74"/>
<path d="M19.6667 29.5C19.6667 34.9308 15.2641 39.3333 9.83333 39.3333C4.40253 39.3333 0 34.9308 0 29.5C0 24.0692 4.40253 19.6667 9.83333 19.6667C15.2641 19.6667 19.6667 24.0692 19.6667 29.5Z" fill="#60DC74"/>
<path fill-rule="evenodd" clip-rule="evenodd" d="M29.5 37.3333C33.8262 37.3333 37.3333 33.8262 37.3333 29.5C37.3333 25.1738 33.8262 21.6667 29.5 21.6667C25.1738 21.6667 21.6667 25.1738 21.6667 29.5C21.6667 33.8262 25.1738 37.3333 29.5 37.3333ZM29.5 39.3333C34.9308 39.3333 39.3333 34.9308 39.3333 29.5C39.3333 24.0692 34.9308 19.6667 29.5 19.6667C24.0692 19.6667 19.6667 24.0692 19.6667 29.5C19.6667 34.9308 24.0692 39.3333 29.5 39.3333Z" fill="#60DC74"/>
<path d="M59 29.5C59 34.9308 54.5975 39.3333 49.1667 39.3333C43.7359 39.3333 39.3333 34.9308 39.3333 29.5C39.3333 24.0692 43.7359 19.6667 49.1667 19.6667C54.5975 19.6667 59 24.0692 59 29.5Z" fill="#60DC74"/>
<path d="M19.6667 49.1667C19.6667 54.5975 15.2641 59 9.83333 59C4.40253 59 0 54.5975 0 49.1667C0 43.7359 4.40253 39.3333 9.83333 39.3333C15.2641 39.3333 19.6667 43.7359 19.6667 49.1667Z" fill="#60DC74"/>
<path d="M39.3333 49.1667C39.3333 54.5975 34.9308 59 29.5 59C24.0692 59 19.6667 54.5975 19.6667 49.1667C19.6667 43.7359 24.0692 39.3333 29.5 39.3333C34.9308 39.3333 39.3333 43.7359 39.3333 49.1667Z" fill="#60DC74"/>
<path d="M59 49.1667C59 54.5975 54.5975 59 49.1667 59C43.7359 59 39.3333 54.5975 39.3333 49.1667C39.3333 43.7359 43.7359 39.3333 49.1667 39.3333C54.5975 39.3333 59 43.7359 59 49.1667Z" fill="#60DC74"/>
</g>
</svg>
