<svg width="113" height="72" viewBox="0 0 113 72" fill="none" xmlns="http://www.w3.org/2000/svg">
<g id="Frame 9469">
<path id="Vector" d="M57.9678 58.8515C53.5504 59.2613 48.7314 58.8515 43.9124 58.8515C39.495 58.4418 35.0776 57.6223 30.6602 55.9834C23.0301 53.525 15.8017 49.4276 10.1795 43.2816C4.95893 37.9551 0.943103 30.5798 0.139938 22.7949C-0.261644 19.1073 0.139946 15.4196 2.14786 12.1418C4.15577 8.45415 8.17159 6.81521 11.7858 5.58601C29.4555 -0.150284 47.9283 -1.37949 66.4011 1.48865C75.2359 2.71786 84.4723 5.17626 92.9055 8.86388C100.536 12.1418 107.764 17.0586 111.378 25.2533C112.985 28.9409 113.386 33.448 112.583 37.5453C111.78 41.2329 109.772 44.5108 106.961 47.379C100.937 53.525 92.1024 55.9834 83.6691 56.8029C81.2596 56.8029 79.2517 57.2126 76.8422 57.2126L78.047 55.5737C79.6533 60.4905 79.6533 66.2268 78.047 71.1436C78.047 71.9631 76.4406 72.3728 76.039 71.5533C70.0153 66.2268 63.9916 61.3099 57.1647 56.8029C55.9599 55.9834 57.1646 53.9347 58.3694 54.7542C65.1963 59.2613 71.6216 64.1781 78.047 69.5046C77.2438 69.5046 76.4406 69.5046 76.039 69.9144C77.2438 64.9976 77.2438 60.0807 76.039 55.5737C76.039 54.7542 76.4406 53.9347 77.2438 53.9347C85.2754 53.1152 94.1102 52.7055 101.339 47.7887C107.362 43.6913 111.78 37.1356 110.575 29.7604C108.969 21.5657 102.945 15.8294 95.7166 12.1418C88.0865 8.04441 79.6533 5.99574 71.6217 4.3568C54.7552 0.669189 36.684 1.07892 19.8175 5.17627C17.8096 5.58601 15.8017 6.40547 13.3922 6.81521C11.3842 7.22495 9.37636 8.04441 7.77003 8.86388C4.55737 10.5028 2.95103 13.7807 2.54945 17.4683C1.74628 24.8435 5.36053 32.2188 9.37636 37.5453C19.4159 50.6568 35.8808 55.5737 51.9441 56.3931C53.952 56.3931 56.3615 56.3931 58.3694 56.3931C59.1726 56.3931 59.1726 57.6223 58.3694 57.6223L57.9678 58.8515Z" fill="white"/>
<path id="Vector_2" d="M30.9478 33.2704C28.4236 31.8437 27.0468 28.9903 27.7352 26.3407C28.4236 23.6911 30.9478 21.653 34.1604 21.2454C37.1436 20.8377 40.3562 22.2644 41.733 24.5064C43.3393 26.7483 42.8804 29.8056 41.0446 31.8437C38.5204 34.6971 33.7015 34.2895 30.4889 32.2513C30.0299 32.0475 30.4889 31.4361 30.9478 31.4361C33.7015 32.0475 36.9141 33.4742 39.4383 31.4361C41.2741 30.0094 41.9625 27.7674 41.0446 25.7293C40.1267 23.6911 37.832 22.0606 35.3078 22.0606C32.5541 22.0606 30.0299 23.4873 29.112 25.7293C27.9647 28.175 29.112 31.0284 31.4068 32.659C31.6362 32.659 31.4068 33.2704 30.9478 33.0666V33.2704Z" fill="white"/>
<path id="Vector_3" d="M57.0351 33.8417C57.0351 33.8417 55.0272 33.8417 54.2241 33.8417C53.4209 33.8417 53.4209 33.4319 53.0193 32.6125C52.2162 31.3833 51.8146 29.7443 51.413 28.5151C51.0114 26.0567 51.413 22.7788 53.8225 21.5496C55.8304 20.3204 58.2399 21.5496 60.2478 22.7788C62.2557 24.4178 63.0589 27.2859 61.8541 29.7443C61.051 31.3833 60.2478 32.6125 58.6415 33.4319C57.4367 34.2514 55.4288 35.0709 54.2241 34.2514C53.4209 34.2514 53.8225 33.0222 54.2241 32.6125C54.6257 32.6125 55.4288 32.2027 55.8304 32.2027C56.232 32.2027 57.0352 32.2027 57.4367 31.3833C58.2399 30.9735 59.4447 29.7443 59.8462 28.9248C60.6494 26.8762 59.8462 24.8275 57.8383 24.008C55.8304 23.1886 53.8225 24.008 53.0193 26.0567C52.2162 28.5151 53.4209 31.3833 54.6257 33.4319C54.6257 33.4319 54.2241 33.4319 53.8225 33.4319C54.6257 33.4319 55.8304 33.4319 56.6336 33.4319C57.4367 33.4319 57.4367 34.6611 56.6336 34.6611L57.0351 33.8417Z" fill="white"/>
<path id="Vector_4" d="M74.4104 30.5856C76.8199 29.7662 76.4183 26.0785 73.6072 26.4883C72.804 26.4883 72.0009 27.7175 72.4025 28.5369C72.4025 29.3564 73.6072 30.1759 74.0088 30.5856V31.4051C72.0009 32.6343 70.3945 30.1759 70.3945 28.5369C70.3945 26.4883 71.5993 24.8493 73.6072 24.4396C75.6151 24.4396 77.2214 25.2591 77.623 27.3077C77.623 28.9467 76.8199 30.9954 74.812 31.4051C74.0088 31.4051 74.0088 30.5856 74.812 30.5856H74.4104Z" fill="white"/>
</g>
</svg>
