<svg width="72" height="59" viewBox="0 0 72 59" fill="none" xmlns="http://www.w3.org/2000/svg">
<g id="Zaanga&#197;&#188;owanie">
<path d="M48.7403 12.8263C48.7403 19.9101 42.9977 25.6526 35.914 25.6526C28.8302 25.6526 23.0877 19.9101 23.0877 12.8263C23.0877 5.74253 28.8302 0 35.914 0C42.9977 0 48.7403 5.74253 48.7403 12.8263Z" fill="#60DC74"/>
<path d="M25.6526 46.1737C25.6526 53.2575 19.9101 59 12.8263 59C5.74253 59 0 53.2575 0 46.1737C0 39.0899 5.74253 33.3474 12.8263 33.3474C19.9101 33.3474 25.6526 39.0899 25.6526 46.1737Z" fill="#60DC74"/>
<path d="M71.8319 46.1737C71.8319 53.2575 66.0894 59 59.0056 59C51.9218 59 46.1793 53.2575 46.1793 46.1737C46.1793 39.0899 51.9218 33.3474 59.0056 33.3474C66.0894 33.3474 71.8319 39.0899 71.8319 46.1737Z" fill="#60DC74"/>
<path fill-rule="evenodd" clip-rule="evenodd" d="M35.7348 12.6434L12.6475 45.9918L10.97 44.8305L34.0574 11.4821L35.7348 12.6434Z" fill="#60DC74"/>
<path fill-rule="evenodd" clip-rule="evenodd" d="M35.7318 12.6434L58.8191 45.9918L60.4965 44.8305L37.4092 11.4821L35.7318 12.6434Z" fill="#60DC74"/>
</g>
</svg>
