<svg width="70" height="59" viewBox="0 0 70 59" fill="none" xmlns="http://www.w3.org/2000/svg">
<g id="Zaufanie">
<path fill-rule="evenodd" clip-rule="evenodd" d="M17.4673 2.79633C15.382 2.00226 13.4122 1.77585 11.6983 2.37182C9.23011 3.23005 7.24176 4.34352 5.71339 5.86637C4.19357 7.3807 3.07831 9.34975 2.42833 12.0049C1.31607 16.5485 2.45088 21.4854 4.92587 26.4305C7.39693 31.3677 11.1496 36.2018 15.0882 40.4704C19.0212 44.7331 23.1075 48.3976 26.2141 50.9984C27.7662 52.2979 29.0713 53.3298 29.9868 54.0357C30.3078 54.2832 30.5809 54.4906 30.7998 54.6553C30.9966 54.4862 31.2393 54.2759 31.523 54.0271C32.3624 53.2907 33.5599 52.2166 34.9876 50.87C37.8447 48.1752 41.6151 44.3969 45.279 40.0561C48.9472 35.71 52.4828 30.8301 54.894 25.9327C57.3129 21.0193 58.5414 16.2073 57.7716 11.9429C57.2988 9.3241 56.2565 7.3576 54.7772 5.84298C53.2871 4.31737 51.3052 3.20113 48.8867 2.3734C47.2698 1.82001 45.4189 2.05997 43.4553 2.85807C41.4967 3.65414 39.5276 4.96574 37.753 6.39285C35.9844 7.81512 34.4448 9.32286 33.3451 10.4784C32.7963 11.0552 32.3594 11.5418 32.0608 11.8827C31.9116 12.0531 31.7971 12.187 31.7207 12.2774C31.6825 12.3226 31.6537 12.3569 31.635 12.3794L31.6143 12.4043L31.6089 12.4109L30.862 13.3212L30.0913 12.4321L30.0902 12.4309L30.0852 12.4252L30.063 12.3999C30.0429 12.377 30.0121 12.3422 29.9712 12.2963C29.8893 12.2047 29.7667 12.069 29.607 11.8964C29.2876 11.551 28.8204 11.0584 28.234 10.4748C27.0593 9.30575 25.4159 7.78133 23.5323 6.34721C21.6428 4.90864 19.5471 3.58835 17.4673 2.79633ZM30.8212 10.2424C30.5085 9.90982 30.1078 9.49349 29.6327 9.02066C28.4172 7.81106 26.7059 6.22235 24.7307 4.71856C22.7614 3.21923 20.4944 1.77685 18.1685 0.891113C15.8479 0.00743238 13.3688 -0.358989 11.0513 0.44684C8.40005 1.36874 6.11935 2.61411 4.31385 4.41309C2.49979 6.2206 1.21635 8.53639 0.487595 11.5134C-0.787556 16.7224 0.556822 22.1851 3.14354 27.3534C5.73418 32.5296 9.62572 37.5229 13.6298 41.8626C17.6394 46.2081 21.7942 49.9328 24.9431 52.5691C26.5186 53.8882 27.8448 54.9369 28.7787 55.6569C29.2456 56.017 29.6146 56.2949 29.8678 56.4835C29.9944 56.5779 30.092 56.6498 30.1584 56.6986L30.2345 56.7541L30.2598 56.7725L30.2613 56.7736C30.2613 56.7736 30.262 56.7741 30.8411 55.9449L30.2613 56.7736L30.8826 57.2226L31.4728 56.7334L30.8411 55.9449C31.4728 56.7334 31.4728 56.7334 31.4728 56.7334L31.4748 56.7318L31.4797 56.7277L31.4979 56.7126L31.5672 56.6545C31.6279 56.6036 31.7171 56.5284 31.8328 56.4298C32.0642 56.2328 32.4017 55.9427 32.8293 55.5676C33.6843 54.8174 34.9 53.727 36.3475 52.3617C39.2408 49.6327 43.0686 45.7979 46.7965 41.3812C50.5199 36.9697 54.1694 31.9476 56.6823 26.8436C59.1873 21.7555 60.6217 16.4665 59.7387 11.5754C59.1988 8.58451 57.981 6.23674 56.196 4.40919C54.4218 2.59264 52.1353 1.33882 49.5245 0.445265C47.2873 -0.320429 44.9156 0.0737849 42.7132 0.96895C40.5058 1.86614 38.3656 3.30688 36.5126 4.79699C34.6536 6.29195 33.0474 7.86632 31.9081 9.06355C31.4762 9.51744 31.11 9.91853 30.8212 10.2424Z" fill="#60DC74"/>
<path d="M45.1568 22.5783C45.1568 22.5783 35.1767 11.7361 28.1205 14.0471C23.6401 15.5144 20.6482 17.9358 19.4416 22.5783C15.2628 38.6562 45.1568 59 45.1568 59C45.1568 59 72.4792 37.6718 69.5863 22.5783C68.7 17.9543 65.6302 15.4659 61.2288 14.0471C54.4828 11.8725 45.1568 22.5783 45.1568 22.5783Z" fill="#60DC74"/>
</g>
</svg>
